<svg width="746" height="476" viewBox="0 0 746 476" fill="none" xmlns="http://www.w3.org/2000/svg">
<rect width="746" height="476" rx="16" fill="white"/>
<path d="M27.3026 43H24.4901L29.6108 28.4545H32.8636L37.9915 43H35.179L31.294 31.4375H31.1804L27.3026 43ZM27.3949 37.2969H35.0653V39.4134H27.3949V37.2969ZM39.5937 47.0909V32.0909H42.1221V33.8949H42.2712C42.4038 33.6297 42.5908 33.348 42.8323 33.0497C43.0738 32.7467 43.4005 32.4886 43.8124 32.2756C44.2244 32.0578 44.7499 31.9489 45.3891 31.9489C46.2319 31.9489 46.9919 32.1643 47.669 32.5952C48.3508 33.0213 48.8906 33.6534 49.2883 34.4915C49.6907 35.3248 49.892 36.3475 49.892 37.5597C49.892 38.7576 49.6955 39.7756 49.3025 40.6136C48.9095 41.4517 48.3745 42.0909 47.6974 42.5312C47.0203 42.9716 46.2532 43.1918 45.3962 43.1918C44.7712 43.1918 44.2528 43.0876 43.8408 42.8793C43.4289 42.6709 43.0975 42.42 42.8465 42.1264C42.6003 41.8281 42.4085 41.5464 42.2712 41.2812H42.1647V47.0909H39.5937ZM42.115 37.5455C42.115 38.2509 42.2144 38.8688 42.4133 39.3991C42.6169 39.9295 42.9081 40.3437 43.2869 40.642C43.6704 40.9356 44.1344 41.0824 44.6789 41.0824C45.2471 41.0824 45.7229 40.9309 46.1065 40.6278C46.49 40.3201 46.7788 39.901 46.9729 39.3707C47.1718 38.8357 47.2712 38.2273 47.2712 37.5455C47.2712 36.8684 47.1742 36.267 46.98 35.7415C46.7859 35.2159 46.4971 34.804 46.1136 34.5057C45.73 34.2074 45.2518 34.0582 44.6789 34.0582C44.1297 34.0582 43.6633 34.2027 43.2798 34.4915C42.8962 34.7803 42.605 35.1851 42.4062 35.706C42.2121 36.2268 42.115 36.84 42.115 37.5455ZM51.8937 47.0909V32.0909H54.4221V33.8949H54.5712C54.7038 33.6297 54.8908 33.348 55.1323 33.0497C55.3738 32.7467 55.7005 32.4886 56.1124 32.2756C56.5244 32.0578 57.0499 31.9489 57.6891 31.9489C58.5319 31.9489 59.2919 32.1643 59.969 32.5952C60.6508 33.0213 61.1906 33.6534 61.5883 34.4915C61.9907 35.3248 62.192 36.3475 62.192 37.5597C62.192 38.7576 61.9955 39.7756 61.6025 40.6136C61.2095 41.4517 60.6745 42.0909 59.9974 42.5312C59.3203 42.9716 58.5532 43.1918 57.6962 43.1918C57.0712 43.1918 56.5528 43.0876 56.1408 42.8793C55.7289 42.6709 55.3975 42.42 55.1465 42.1264C54.9003 41.8281 54.7085 41.5464 54.5712 41.2812H54.4647V47.0909H51.8937ZM54.415 37.5455C54.415 38.2509 54.5144 38.8688 54.7133 39.3991C54.9169 39.9295 55.2081 40.3437 55.5869 40.642C55.9704 40.9356 56.4344 41.0824 56.9789 41.0824C57.5471 41.0824 58.0229 40.9309 58.4065 40.6278C58.79 40.3201 59.0788 39.901 59.2729 39.3707C59.4718 38.8357 59.5712 38.2273 59.5712 37.5455C59.5712 36.8684 59.4742 36.267 59.28 35.7415C59.0859 35.2159 58.7971 34.804 58.4136 34.5057C58.03 34.2074 57.5518 34.0582 56.9789 34.0582C56.4297 34.0582 55.9633 34.2027 55.5798 34.4915C55.1962 34.7803 54.905 35.1851 54.7062 35.706C54.5121 36.2268 54.415 36.84 54.415 37.5455ZM66.7647 28.4545V43H64.1937V28.4545H66.7647ZM69.2085 43V32.0909H71.7795V43H69.2085ZM70.5011 30.5426C70.0939 30.5426 69.7436 30.4077 69.45 30.1378C69.1564 29.8632 69.0097 29.5341 69.0097 29.1506C69.0097 28.7623 69.1564 28.4332 69.45 28.1634C69.7436 27.8887 70.0939 27.7514 70.5011 27.7514C70.9131 27.7514 71.2634 27.8887 71.5523 28.1634C71.8458 28.4332 71.9926 28.7623 71.9926 29.1506C71.9926 29.5341 71.8458 29.8632 71.5523 30.1378C71.2634 30.4077 70.9131 30.5426 70.5011 30.5426ZM78.9819 43.2131C77.8929 43.2131 76.9577 42.974 76.1765 42.4957C75.4 42.0175 74.801 41.357 74.3796 40.5142C73.9629 39.6667 73.7546 38.6913 73.7546 37.5881C73.7546 36.4801 73.9677 35.5024 74.3938 34.6548C74.82 33.8026 75.4213 33.1397 76.1978 32.6662C76.979 32.188 77.9023 31.9489 78.9677 31.9489C79.8531 31.9489 80.6367 32.1122 81.3185 32.4389C82.0051 32.7609 82.552 33.2178 82.9592 33.8097C83.3664 34.3968 83.5984 35.0833 83.6552 35.8693H81.1978C81.0984 35.3437 80.8616 34.9058 80.4876 34.5554C80.1183 34.2003 79.6235 34.0227 79.0032 34.0227C78.4776 34.0227 78.016 34.1648 77.6183 34.4489C77.2205 34.7282 76.9104 35.1307 76.6879 35.6562C76.4701 36.1818 76.3612 36.8116 76.3612 37.5455C76.3612 38.2888 76.4701 38.928 76.6879 39.4631C76.9057 39.9934 77.2111 40.4029 77.604 40.6918C78.0018 40.9759 78.4682 41.1179 79.0032 41.1179C79.382 41.1179 79.7205 41.0469 80.0188 40.9048C80.3219 40.758 80.5752 40.5473 80.7788 40.2727C80.9824 39.9981 81.122 39.6643 81.1978 39.2713H83.6552C83.5936 40.0431 83.3664 40.7273 82.9734 41.3239C82.5804 41.9157 82.0453 42.3797 81.3683 42.7159C80.6912 43.0473 79.8957 43.2131 78.9819 43.2131ZM88.7055 43.2202C88.0143 43.2202 87.3916 43.0971 86.8376 42.8509C86.2884 42.5999 85.8528 42.2306 85.5308 41.7429C85.2136 41.2552 85.055 40.6539 85.055 39.9389C85.055 39.3234 85.1686 38.8144 85.3959 38.4119C85.6232 38.0095 85.9333 37.6875 86.3263 37.446C86.7193 37.2045 87.162 37.0223 87.6544 36.8991C88.1516 36.7713 88.6653 36.679 89.1956 36.6222C89.8348 36.5559 90.3533 36.4967 90.751 36.4446C91.1487 36.3878 91.4375 36.3026 91.6175 36.1889C91.8021 36.0705 91.8945 35.8883 91.8945 35.642V35.5994C91.8945 35.0644 91.7358 34.6501 91.4186 34.3565C91.1014 34.063 90.6445 33.9162 90.0479 33.9162C89.4181 33.9162 88.9186 34.0535 88.5493 34.3281C88.1847 34.6027 87.9385 34.9271 87.8107 35.3011L85.4101 34.9602C85.5995 34.2973 85.912 33.7434 86.3476 33.2983C86.7832 32.8485 87.3159 32.5123 87.9456 32.2898C88.5753 32.0625 89.2714 31.9489 90.0337 31.9489C90.5592 31.9489 91.0824 32.0104 91.6033 32.1335C92.1241 32.2566 92.6 32.4602 93.0308 32.7443C93.4617 33.0237 93.8073 33.4048 94.0678 33.8878C94.3329 34.3707 94.4655 34.9744 94.4655 35.6989V43H91.9939V41.5014H91.9087C91.7524 41.8045 91.5322 42.0885 91.2482 42.3537C90.9688 42.6141 90.6161 42.8248 90.1899 42.9858C89.7685 43.142 89.2737 43.2202 88.7055 43.2202ZM89.3732 41.331C89.8893 41.331 90.3367 41.2292 90.7155 41.0256C91.0943 40.8172 91.3855 40.5426 91.5891 40.2017C91.7974 39.8608 91.9016 39.4891 91.9016 39.0866V37.8011C91.8211 37.8674 91.6838 37.929 91.4896 37.9858C91.3002 38.0426 91.0872 38.0923 90.8504 38.1349C90.6137 38.1776 90.3793 38.2154 90.1473 38.2486C89.9153 38.2817 89.7141 38.3101 89.5436 38.3338C89.1601 38.3859 88.8168 38.4711 88.5138 38.5895C88.2107 38.7079 87.9716 38.8736 87.7964 39.0866C87.6213 39.295 87.5337 39.5649 87.5337 39.8963C87.5337 40.3698 87.7065 40.7273 88.0521 40.9688C88.3978 41.2102 88.8381 41.331 89.3732 41.331ZM99.4217 36.608V43H96.8507V32.0909H99.3081V33.9446H99.4359C99.6869 33.3338 100.087 32.8485 100.636 32.4886C101.19 32.1288 101.874 31.9489 102.689 31.9489C103.442 31.9489 104.097 32.1098 104.656 32.4318C105.22 32.7538 105.655 33.2202 105.963 33.831C106.275 34.4418 106.429 35.1828 106.425 36.054V43H103.854V36.4517C103.854 35.7225 103.664 35.152 103.285 34.7401C102.911 34.3281 102.393 34.1222 101.73 34.1222C101.28 34.1222 100.88 34.2216 100.53 34.4205C100.184 34.6146 99.9118 34.8963 99.7129 35.2656C99.5188 35.6349 99.4217 36.0824 99.4217 36.608ZM114.286 32.0909V34.0795H108.014V32.0909H114.286ZM109.563 29.4773H112.134V39.7188C112.134 40.0644 112.186 40.3295 112.29 40.5142C112.399 40.6941 112.541 40.8172 112.716 40.8835C112.891 40.9498 113.085 40.983 113.298 40.983C113.459 40.983 113.606 40.9711 113.739 40.9474C113.876 40.9238 113.98 40.9025 114.051 40.8835L114.485 42.8935C114.347 42.9408 114.151 42.9929 113.895 43.0497C113.644 43.1065 113.336 43.1397 112.972 43.1491C112.328 43.1681 111.748 43.071 111.232 42.858C110.716 42.6402 110.306 42.304 110.003 41.8494C109.705 41.3949 109.558 40.8267 109.563 40.1449V29.4773ZM126.039 43H121.11V28.4545H126.139C127.583 28.4545 128.824 28.7457 129.86 29.3281C130.902 29.9058 131.702 30.7367 132.261 31.821C132.82 32.9053 133.099 34.2027 133.099 35.7131C133.099 37.2282 132.817 38.5303 132.254 39.6193C131.695 40.7083 130.888 41.544 129.832 42.1264C128.781 42.7088 127.517 43 126.039 43ZM123.745 40.7202H125.912C126.925 40.7202 127.77 40.5355 128.447 40.1662C129.124 39.7921 129.633 39.2358 129.974 38.4972C130.315 37.7538 130.485 36.8258 130.485 35.7131C130.485 34.6004 130.315 33.6771 129.974 32.9432C129.633 32.2045 129.129 31.6529 128.461 31.2884C127.798 30.919 126.975 30.7344 125.99 30.7344H123.745V40.7202ZM140.119 43.2131C139.025 43.2131 138.08 42.9858 137.285 42.5312C136.494 42.072 135.886 41.4233 135.459 40.5852C135.033 39.7424 134.82 38.7505 134.82 37.6094C134.82 36.4872 135.033 35.5024 135.459 34.6548C135.89 33.8026 136.492 33.1397 137.263 32.6662C138.035 32.188 138.942 31.9489 139.984 31.9489C140.656 31.9489 141.29 32.0578 141.887 32.2756C142.488 32.4886 143.019 32.8201 143.478 33.2699C143.942 33.7197 144.307 34.2926 144.572 34.9886C144.837 35.6799 144.969 36.5038 144.969 37.4602V38.2486H136.028V36.5156H142.505C142.5 36.0232 142.394 35.5852 142.185 35.2017C141.977 34.8134 141.686 34.508 141.312 34.2855C140.942 34.063 140.512 33.9517 140.019 33.9517C139.494 33.9517 139.032 34.0795 138.634 34.3352C138.236 34.5862 137.926 34.9176 137.704 35.3295C137.486 35.7367 137.375 36.1842 137.37 36.6719V38.1847C137.37 38.8191 137.486 39.3636 137.718 39.8182C137.95 40.268 138.274 40.6136 138.691 40.8551C139.108 41.0919 139.595 41.2102 140.154 41.2102C140.528 41.2102 140.867 41.1581 141.17 41.054C141.473 40.9451 141.735 40.7865 141.958 40.5781C142.181 40.3698 142.349 40.1117 142.462 39.804L144.863 40.0739C144.711 40.7083 144.423 41.2623 143.996 41.7358C143.575 42.2045 143.035 42.5691 142.377 42.8295C141.719 43.0852 140.966 43.2131 140.119 43.2131ZM146.944 43V32.0909H149.402V33.9446H149.53C149.757 33.3196 150.133 32.8319 150.659 32.4815C151.185 32.1264 151.812 31.9489 152.541 31.9489C153.28 31.9489 153.902 32.1288 154.409 32.4886C154.92 32.8437 155.28 33.3291 155.488 33.9446H155.602C155.844 33.3385 156.251 32.8556 156.824 32.4957C157.401 32.1312 158.086 31.9489 158.876 31.9489C159.88 31.9489 160.699 32.2661 161.334 32.9006C161.968 33.535 162.285 34.4607 162.285 35.6776V43H159.707V36.0753C159.707 35.3982 159.527 34.9034 159.167 34.5909C158.808 34.2737 158.367 34.1151 157.846 34.1151C157.226 34.1151 156.741 34.3092 156.39 34.6974C156.045 35.081 155.872 35.5805 155.872 36.196V43H153.351V35.9688C153.351 35.4053 153.18 34.9555 152.839 34.6193C152.503 34.2831 152.063 34.1151 151.518 34.1151C151.149 34.1151 150.813 34.2098 150.51 34.3991C150.207 34.5838 149.965 34.8466 149.785 35.1875C149.605 35.5237 149.515 35.9167 149.515 36.3665V43H146.944ZM169.452 43.2131C168.387 43.2131 167.464 42.9787 166.682 42.5099C165.901 42.0412 165.295 41.3854 164.864 40.5426C164.438 39.6998 164.225 38.715 164.225 37.5881C164.225 36.4612 164.438 35.474 164.864 34.6264C165.295 33.7789 165.901 33.1207 166.682 32.652C167.464 32.1832 168.387 31.9489 169.452 31.9489C170.518 31.9489 171.441 32.1832 172.222 32.652C173.003 33.1207 173.607 33.7789 174.033 34.6264C174.464 35.474 174.679 36.4612 174.679 37.5881C174.679 38.715 174.464 39.6998 174.033 40.5426C173.607 41.3854 173.003 42.0412 172.222 42.5099C171.441 42.9787 170.518 43.2131 169.452 43.2131ZM169.466 41.1534C170.044 41.1534 170.527 40.9948 170.915 40.6776C171.304 40.3556 171.592 39.9247 171.782 39.3849C171.976 38.8452 172.073 38.2438 172.073 37.581C172.073 36.9134 171.976 36.3097 171.782 35.7699C171.592 35.2254 171.304 34.7921 170.915 34.4702C170.527 34.1482 170.044 33.9872 169.466 33.9872C168.875 33.9872 168.382 34.1482 167.989 34.4702C167.601 34.7921 167.31 35.2254 167.116 35.7699C166.926 36.3097 166.831 36.9134 166.831 37.581C166.831 38.2438 166.926 38.8452 167.116 39.3849C167.31 39.9247 167.601 40.3556 167.989 40.6776C168.382 40.9948 168.875 41.1534 169.466 41.1534ZM181.406 47.3182C180.483 47.3182 179.69 47.1927 179.027 46.9418C178.364 46.6955 177.831 46.3641 177.429 45.9474C177.026 45.5308 176.747 45.0691 176.591 44.5625L178.906 44.0014C179.01 44.2145 179.162 44.4252 179.361 44.6335C179.559 44.8466 179.827 45.0218 180.163 45.1591C180.504 45.3011 180.932 45.3722 181.449 45.3722C182.178 45.3722 182.781 45.1946 183.26 44.8395C183.738 44.4891 183.977 43.9115 183.977 43.1065V41.0398H183.849C183.717 41.3049 183.522 41.5772 183.267 41.8565C183.016 42.1359 182.682 42.3703 182.265 42.5597C181.853 42.7491 181.335 42.8438 180.71 42.8438C179.872 42.8438 179.112 42.6473 178.43 42.2543C177.753 41.8565 177.213 41.2647 176.811 40.4787C176.413 39.688 176.214 38.6984 176.214 37.5099C176.214 36.312 176.413 35.3011 176.811 34.4773C177.213 33.6487 177.755 33.0213 178.437 32.5952C179.119 32.1643 179.879 31.9489 180.717 31.9489C181.356 31.9489 181.882 32.0578 182.294 32.2756C182.71 32.4886 183.042 32.7467 183.288 33.0497C183.534 33.348 183.721 33.6297 183.849 33.8949H183.991V32.0909H186.527V43.1776C186.527 44.1103 186.304 44.8821 185.859 45.4929C185.414 46.1037 184.806 46.5606 184.034 46.8636C183.262 47.1667 182.386 47.3182 181.406 47.3182ZM181.427 40.8267C181.972 40.8267 182.436 40.6941 182.819 40.429C183.203 40.1638 183.494 39.7827 183.693 39.2855C183.892 38.7884 183.991 38.1918 183.991 37.4957C183.991 36.8092 183.892 36.2079 183.693 35.6918C183.499 35.1757 183.21 34.7756 182.826 34.4915C182.448 34.2027 181.981 34.0582 181.427 34.0582C180.854 34.0582 180.376 34.2074 179.993 34.5057C179.609 34.804 179.32 35.2135 179.126 35.7344C178.932 36.2505 178.835 36.8376 178.835 37.4957C178.835 38.1634 178.932 38.7481 179.126 39.25C179.325 39.7472 179.616 40.1354 180 40.4148C180.388 40.6894 180.864 40.8267 181.427 40.8267ZM188.962 43V32.0909H191.455V33.9091H191.568C191.767 33.2794 192.108 32.794 192.591 32.4531C193.079 32.1075 193.635 31.9347 194.26 31.9347C194.402 31.9347 194.561 31.9418 194.736 31.956C194.916 31.9654 195.065 31.982 195.183 32.0057V34.3707C195.074 34.3329 194.902 34.2997 194.665 34.2713C194.433 34.2382 194.208 34.2216 193.99 34.2216C193.521 34.2216 193.1 34.3234 192.726 34.527C192.357 34.7259 192.065 35.0028 191.852 35.358C191.639 35.7131 191.533 36.1226 191.533 36.5866V43H188.962ZM199.635 43.2202C198.944 43.2202 198.321 43.0971 197.767 42.8509C197.218 42.5999 196.782 42.2306 196.461 41.7429C196.143 41.2552 195.985 40.6539 195.985 39.9389C195.985 39.3234 196.098 38.8144 196.326 38.4119C196.553 38.0095 196.863 37.6875 197.256 37.446C197.649 37.2045 198.092 37.0223 198.584 36.8991C199.081 36.7713 199.595 36.679 200.125 36.6222C200.764 36.5559 201.283 36.4967 201.681 36.4446C202.078 36.3878 202.367 36.3026 202.547 36.1889C202.732 36.0705 202.824 35.8883 202.824 35.642V35.5994C202.824 35.0644 202.666 34.6501 202.348 34.3565C202.031 34.063 201.574 33.9162 200.978 33.9162C200.348 33.9162 199.848 34.0535 199.479 34.3281C199.114 34.6027 198.868 34.9271 198.74 35.3011L196.34 34.9602C196.529 34.2973 196.842 33.7434 197.277 33.2983C197.713 32.8485 198.246 32.5123 198.875 32.2898C199.505 32.0625 200.201 31.9489 200.963 31.9489C201.489 31.9489 202.012 32.0104 202.533 32.1335C203.054 32.2566 203.53 32.4602 203.961 32.7443C204.391 33.0237 204.737 33.4048 204.997 33.8878C205.263 34.3707 205.395 34.9744 205.395 35.6989V43H202.924V41.5014H202.838C202.682 41.8045 202.462 42.0885 202.178 42.3537C201.898 42.6141 201.546 42.8248 201.12 42.9858C200.698 43.142 200.203 43.2202 199.635 43.2202ZM200.303 41.331C200.819 41.331 201.266 41.2292 201.645 41.0256C202.024 40.8172 202.315 40.5426 202.519 40.2017C202.727 39.8608 202.831 39.4891 202.831 39.0866V37.8011C202.751 37.8674 202.613 37.929 202.419 37.9858C202.23 38.0426 202.017 38.0923 201.78 38.1349C201.543 38.1776 201.309 38.2154 201.077 38.2486C200.845 38.2817 200.644 38.3101 200.473 38.3338C200.09 38.3859 199.746 38.4711 199.443 38.5895C199.14 38.7079 198.901 38.8736 198.726 39.0866C198.551 39.295 198.463 39.5649 198.463 39.8963C198.463 40.3698 198.636 40.7273 198.982 40.9688C199.327 41.2102 199.768 41.331 200.303 41.331ZM207.78 47.0909V32.0909H210.309V33.8949H210.458C210.591 33.6297 210.778 33.348 211.019 33.0497C211.261 32.7467 211.587 32.4886 211.999 32.2756C212.411 32.0578 212.937 31.9489 213.576 31.9489C214.419 31.9489 215.179 32.1643 215.856 32.5952C216.538 33.0213 217.077 33.6534 217.475 34.4915C217.877 35.3248 218.079 36.3475 218.079 37.5597C218.079 38.7576 217.882 39.7756 217.489 40.6136C217.096 41.4517 216.561 42.0909 215.884 42.5312C215.207 42.9716 214.44 43.1918 213.583 43.1918C212.958 43.1918 212.439 43.0876 212.028 42.8793C211.616 42.6709 211.284 42.42 211.033 42.1264C210.787 41.8281 210.595 41.5464 210.458 41.2812H210.351V47.0909H207.78ZM210.302 37.5455C210.302 38.2509 210.401 38.8688 210.6 39.3991C210.804 39.9295 211.095 40.3437 211.474 40.642C211.857 40.9356 212.321 41.0824 212.866 41.0824C213.434 41.0824 213.91 40.9309 214.293 40.6278C214.677 40.3201 214.966 39.901 215.16 39.3707C215.359 38.8357 215.458 38.2273 215.458 37.5455C215.458 36.8684 215.361 36.267 215.167 35.7415C214.973 35.2159 214.684 34.804 214.3 34.5057C213.917 34.2074 213.439 34.0582 212.866 34.0582C212.316 34.0582 211.85 34.2027 211.466 34.4915C211.083 34.7803 210.792 35.1851 210.593 35.706C210.399 36.2268 210.302 36.84 210.302 37.5455ZM222.651 36.608V43H220.08V28.4545H222.595V33.9446H222.722C222.978 33.3291 223.373 32.8437 223.909 32.4886C224.448 32.1288 225.135 31.9489 225.968 31.9489C226.726 31.9489 227.386 32.1075 227.95 32.4247C228.513 32.742 228.949 33.206 229.257 33.8168C229.569 34.4276 229.725 35.1733 229.725 36.054V43H227.154V36.4517C227.154 35.7178 226.965 35.1473 226.586 34.7401C226.212 34.3281 225.686 34.1222 225.009 34.1222C224.555 34.1222 224.148 34.2216 223.788 34.4205C223.433 34.6146 223.153 34.8963 222.95 35.2656C222.751 35.6349 222.651 36.0824 222.651 36.608ZM232.146 43V32.0909H234.717V43H232.146ZM233.439 30.5426C233.031 30.5426 232.681 30.4077 232.387 30.1378C232.094 29.8632 231.947 29.5341 231.947 29.1506C231.947 28.7623 232.094 28.4332 232.387 28.1634C232.681 27.8887 233.031 27.7514 233.439 27.7514C233.851 27.7514 234.201 27.8887 234.49 28.1634C234.783 28.4332 234.93 28.7623 234.93 29.1506C234.93 29.5341 234.783 29.8632 234.49 30.1378C234.201 30.4077 233.851 30.5426 233.439 30.5426ZM241.919 43.2131C240.83 43.2131 239.895 42.974 239.114 42.4957C238.337 42.0175 237.739 41.357 237.317 40.5142C236.9 39.6667 236.692 38.6913 236.692 37.5881C236.692 36.4801 236.905 35.5024 237.331 34.6548C237.757 33.8026 238.359 33.1397 239.135 32.6662C239.917 32.188 240.84 31.9489 241.905 31.9489C242.791 31.9489 243.574 32.1122 244.256 32.4389C244.943 32.7609 245.489 33.2178 245.897 33.8097C246.304 34.3968 246.536 35.0833 246.593 35.8693H244.135C244.036 35.3437 243.799 34.9058 243.425 34.5554C243.056 34.2003 242.561 34.0227 241.941 34.0227C241.415 34.0227 240.953 34.1648 240.556 34.4489C240.158 34.7282 239.848 35.1307 239.625 35.6562C239.408 36.1818 239.299 36.8116 239.299 37.5455C239.299 38.2888 239.408 38.928 239.625 39.4631C239.843 39.9934 240.149 40.4029 240.542 40.6918C240.939 40.9759 241.406 41.1179 241.941 41.1179C242.319 41.1179 242.658 41.0469 242.956 40.9048C243.259 40.758 243.513 40.5473 243.716 40.2727C243.92 39.9981 244.06 39.6643 244.135 39.2713H246.593C246.531 40.0431 246.304 40.7273 245.911 41.3239C245.518 41.9157 244.983 42.3797 244.306 42.7159C243.629 43.0473 242.833 43.2131 241.919 43.2131ZM257.126 34.9744L254.782 35.2301C254.716 34.9934 254.6 34.7708 254.434 34.5625C254.273 34.3542 254.055 34.1861 253.781 34.0582C253.506 33.9304 253.17 33.8665 252.772 33.8665C252.237 33.8665 251.787 33.9825 251.423 34.2145C251.063 34.4465 250.885 34.7472 250.89 35.1165C250.885 35.4337 251.001 35.6918 251.238 35.8906C251.48 36.0895 251.877 36.2528 252.431 36.3807L254.292 36.7784C255.324 37.0009 256.091 37.3537 256.593 37.8366C257.1 38.3196 257.356 38.9517 257.36 39.733C257.356 40.4195 257.154 41.0256 256.757 41.5511C256.364 42.072 255.817 42.4792 255.116 42.7727C254.415 43.0663 253.61 43.2131 252.701 43.2131C251.366 43.2131 250.291 42.9337 249.477 42.375C248.662 41.8116 248.177 41.0279 248.021 40.0241L250.528 39.7827C250.642 40.2751 250.883 40.6468 251.252 40.8977C251.622 41.1487 252.102 41.2741 252.694 41.2741C253.305 41.2741 253.795 41.1487 254.164 40.8977C254.538 40.6468 254.725 40.3366 254.725 39.9673C254.725 39.6548 254.605 39.3968 254.363 39.1932C254.126 38.9896 253.757 38.8333 253.255 38.7244L251.394 38.3338C250.348 38.116 249.574 37.7491 249.072 37.233C248.57 36.7121 248.322 36.054 248.326 35.2585C248.322 34.5862 248.504 34.0038 248.873 33.5114C249.247 33.0142 249.766 32.6307 250.429 32.3608C251.096 32.0862 251.866 31.9489 252.737 31.9489C254.015 31.9489 255.021 32.2211 255.755 32.7656C256.494 33.3101 256.951 34.0464 257.126 34.9744Z" fill="#131313"/>
<path d="M671.895 41.5V40.6051L677.384 32.4119H671.835V31.3182H678.855V32.2131L673.366 40.4062H678.915V41.5H671.895ZM683.626 41.6591C682.937 41.6591 682.332 41.495 681.812 41.1669C681.294 40.8388 680.89 40.3797 680.598 39.7898C680.31 39.1998 680.166 38.5104 680.166 37.7216C680.166 36.9261 680.31 36.2318 680.598 35.6385C680.89 35.0452 681.294 34.5845 681.812 34.2564C682.332 33.9283 682.937 33.7642 683.626 33.7642C684.316 33.7642 684.919 33.9283 685.436 34.2564C685.956 34.5845 686.361 35.0452 686.649 35.6385C686.941 36.2318 687.086 36.9261 687.086 37.7216C687.086 38.5104 686.941 39.1998 686.649 39.7898C686.361 40.3797 685.956 40.8388 685.436 41.1669C684.919 41.495 684.316 41.6591 683.626 41.6591ZM683.626 40.6051C684.15 40.6051 684.581 40.4709 684.919 40.2024C685.257 39.9339 685.507 39.581 685.669 39.1435C685.832 38.706 685.913 38.232 685.913 37.7216C685.913 37.2112 685.832 36.7356 685.669 36.2947C685.507 35.8539 685.257 35.4976 684.919 35.2259C684.581 34.9541 684.15 34.8182 683.626 34.8182C683.102 34.8182 682.672 34.9541 682.334 35.2259C681.995 35.4976 681.745 35.8539 681.583 36.2947C681.42 36.7356 681.339 37.2112 681.339 37.7216C681.339 38.232 681.42 38.706 681.583 39.1435C681.745 39.581 681.995 39.9339 682.334 40.2024C682.672 40.4709 683.102 40.6051 683.626 40.6051ZM689.751 36.9062V41.5H688.577V33.8636H689.711V35.0568H689.81C689.989 34.669 690.261 34.3575 690.626 34.1222C690.99 33.8835 691.461 33.7642 692.038 33.7642C692.555 33.7642 693.007 33.8703 693.395 34.0824C693.783 34.2912 694.084 34.6094 694.3 35.0369C694.515 35.4612 694.623 35.9981 694.623 36.6477V41.5H693.45V36.7273C693.45 36.1274 693.294 35.66 692.982 35.3253C692.671 34.9872 692.243 34.8182 691.7 34.8182C691.325 34.8182 690.99 34.8994 690.695 35.0618C690.404 35.2242 690.173 35.4612 690.004 35.7727C689.835 36.0843 689.751 36.4621 689.751 36.9062ZM699.669 41.6591C698.933 41.6591 698.298 41.4967 697.764 41.1719C697.234 40.8438 696.825 40.3864 696.536 39.7997C696.251 39.2098 696.109 38.5237 696.109 37.7415C696.109 36.9593 696.251 36.2699 696.536 35.6733C696.825 35.0734 697.226 34.6061 697.74 34.2713C698.257 33.9332 698.86 33.7642 699.549 33.7642C699.947 33.7642 700.34 33.8305 700.727 33.9631C701.115 34.0956 701.468 34.3111 701.786 34.6094C702.105 34.9044 702.358 35.2955 702.547 35.7827C702.736 36.2699 702.83 36.8698 702.83 37.5824V38.0795H696.944V37.0653H701.637C701.637 36.6345 701.551 36.25 701.379 35.9119C701.21 35.5739 700.968 35.3071 700.653 35.1115C700.341 34.916 699.973 34.8182 699.549 34.8182C699.082 34.8182 698.678 34.9342 698.336 35.1662C697.998 35.3949 697.738 35.6932 697.556 36.0611C697.373 36.429 697.282 36.8234 697.282 37.2443V37.9205C697.282 38.4972 697.382 38.986 697.58 39.3871C697.783 39.7848 698.063 40.0881 698.421 40.2969C698.779 40.5024 699.195 40.6051 699.669 40.6051C699.977 40.6051 700.255 40.562 700.504 40.4759C700.756 40.3864 700.973 40.2538 701.155 40.0781C701.337 39.8991 701.478 39.6771 701.578 39.4119L702.711 39.7301C702.592 40.1146 702.391 40.4527 702.11 40.7443C701.828 41.0327 701.48 41.258 701.066 41.4205C700.651 41.5795 700.186 41.6591 699.669 41.6591Z" fill="#454545"/>
<path d="M711.5 34.25L715 37.75L718.5 34.25" stroke="#7D7D7D" stroke-linecap="round" stroke-linejoin="round"/>
<line x1="75" y1="418" x2="75" y2="72" stroke="#F1F1F1"/>
<path d="M66.7357 445V437.727H71.2457V438.672H67.833V440.888H70.9225V441.829H67.833V445H66.7357ZM78.3356 440.092H77.2276C77.185 439.856 77.1057 439.647 76.9897 439.467C76.8737 439.287 76.7317 439.135 76.5636 439.009C76.3955 438.884 76.2073 438.789 75.9989 438.725C75.793 438.661 75.574 438.629 75.342 438.629C74.9229 438.629 74.5477 438.735 74.2163 438.945C73.8872 439.156 73.6268 439.465 73.435 439.872C73.2456 440.279 73.1509 440.777 73.1509 441.364C73.1509 441.955 73.2456 442.455 73.435 442.862C73.6268 443.269 73.8884 443.577 74.2198 443.786C74.5513 443.994 74.9241 444.098 75.3384 444.098C75.5681 444.098 75.7859 444.067 75.9918 444.006C76.2002 443.942 76.3884 443.848 76.5565 443.725C76.7246 443.602 76.8666 443.452 76.9826 443.274C77.101 443.094 77.1826 442.888 77.2276 442.656L78.3356 442.66C78.2764 443.017 78.1616 443.346 77.9911 443.647C77.823 443.945 77.6064 444.203 77.3413 444.421C77.0785 444.637 76.7778 444.804 76.4393 444.922C76.1007 445.04 75.7314 445.099 75.3313 445.099C74.7016 445.099 74.1405 444.95 73.6481 444.652C73.1557 444.351 72.7674 443.922 72.4833 443.363C72.2016 442.804 72.0607 442.138 72.0607 441.364C72.0607 440.587 72.2028 439.921 72.4869 439.364C72.771 438.806 73.1592 438.377 73.6516 438.079C74.1441 437.778 74.704 437.628 75.3313 437.628C75.7172 437.628 76.0771 437.683 76.4109 437.795C76.747 437.904 77.0489 438.065 77.3164 438.278C77.5839 438.488 77.8053 438.746 77.9805 439.052C78.1557 439.355 78.274 439.702 78.3356 440.092ZM78.99 438.672V437.727H84.6185V438.672H82.3493V445H81.2556V438.672H78.99Z" fill="#7D7D7D"/>
<line x1="137.661" y1="420" x2="137.661" y2="72" stroke="#F1F1F1"/>
<path d="M127.389 441.092H126.281C126.239 440.856 126.16 440.647 126.044 440.467C125.928 440.287 125.785 440.135 125.617 440.009C125.449 439.884 125.261 439.789 125.053 439.725C124.847 439.661 124.628 439.629 124.396 439.629C123.977 439.629 123.602 439.735 123.27 439.945C122.941 440.156 122.681 440.465 122.489 440.872C122.299 441.279 122.205 441.777 122.205 442.364C122.205 442.955 122.299 443.455 122.489 443.862C122.681 444.269 122.942 444.577 123.274 444.786C123.605 444.994 123.978 445.098 124.392 445.098C124.622 445.098 124.84 445.067 125.046 445.006C125.254 444.942 125.442 444.848 125.61 444.725C125.778 444.602 125.92 444.452 126.036 444.274C126.155 444.094 126.236 443.888 126.281 443.656L127.389 443.66C127.33 444.017 127.215 444.346 127.045 444.647C126.877 444.945 126.66 445.203 126.395 445.421C126.132 445.637 125.832 445.804 125.493 445.922C125.155 446.04 124.785 446.099 124.385 446.099C123.755 446.099 123.194 445.95 122.702 445.652C122.209 445.351 121.821 444.922 121.537 444.363C121.255 443.804 121.115 443.138 121.115 442.364C121.115 441.587 121.257 440.921 121.541 440.364C121.825 439.806 122.213 439.377 122.705 439.079C123.198 438.778 123.758 438.628 124.385 438.628C124.771 438.628 125.131 438.683 125.465 438.795C125.801 438.904 126.103 439.065 126.37 439.278C126.638 439.488 126.859 439.746 127.034 440.052C127.209 440.355 127.328 440.702 127.389 441.092ZM129.905 446.121C129.559 446.121 129.246 446.057 128.967 445.929C128.688 445.799 128.466 445.611 128.303 445.364C128.142 445.118 128.062 444.816 128.062 444.459C128.062 444.151 128.121 443.898 128.239 443.699C128.357 443.5 128.517 443.343 128.718 443.227C128.92 443.111 129.145 443.023 129.393 442.964C129.642 442.905 129.895 442.86 130.153 442.829C130.48 442.791 130.745 442.76 130.949 442.737C131.152 442.71 131.3 442.669 131.392 442.612C131.485 442.555 131.531 442.463 131.531 442.335V442.31C131.531 442 131.443 441.76 131.268 441.589C131.095 441.419 130.837 441.334 130.494 441.334C130.137 441.334 129.855 441.413 129.649 441.572C129.445 441.728 129.304 441.902 129.226 442.094L128.228 441.866C128.347 441.535 128.52 441.268 128.747 441.064C128.977 440.858 129.24 440.709 129.539 440.616C129.837 440.522 130.151 440.474 130.48 440.474C130.698 440.474 130.928 440.5 131.172 440.553C131.419 440.602 131.648 440.695 131.861 440.83C132.077 440.964 132.253 441.157 132.39 441.408C132.528 441.657 132.596 441.98 132.596 442.378V446H131.559V445.254H131.517C131.448 445.392 131.345 445.527 131.208 445.659C131.071 445.792 130.894 445.902 130.679 445.989C130.463 446.077 130.205 446.121 129.905 446.121ZM130.135 445.268C130.429 445.268 130.68 445.21 130.888 445.094C131.099 444.978 131.259 444.827 131.368 444.64C131.479 444.451 131.535 444.248 131.535 444.033V443.33C131.497 443.367 131.423 443.403 131.314 443.436C131.208 443.467 131.086 443.494 130.949 443.518C130.811 443.539 130.678 443.559 130.547 443.578C130.417 443.595 130.308 443.609 130.221 443.621C130.015 443.647 129.826 443.691 129.656 443.752C129.488 443.814 129.353 443.902 129.251 444.018C129.152 444.132 129.102 444.284 129.102 444.473C129.102 444.736 129.199 444.935 129.393 445.07C129.587 445.202 129.835 445.268 130.135 445.268ZM134.772 438.727V446H133.711V438.727H134.772ZM137.488 446.121C137.143 446.121 136.83 446.057 136.551 445.929C136.271 445.799 136.05 445.611 135.887 445.364C135.726 445.118 135.645 444.816 135.645 444.459C135.645 444.151 135.704 443.898 135.823 443.699C135.941 443.5 136.101 443.343 136.302 443.227C136.503 443.111 136.728 443.023 136.977 442.964C137.225 442.905 137.479 442.86 137.737 442.829C138.063 442.791 138.329 442.76 138.532 442.737C138.736 442.71 138.884 442.669 138.976 442.612C139.068 442.555 139.115 442.463 139.115 442.335V442.31C139.115 442 139.027 441.76 138.852 441.589C138.679 441.419 138.421 441.334 138.078 441.334C137.72 441.334 137.438 441.413 137.232 441.572C137.029 441.728 136.888 441.902 136.81 442.094L135.812 441.866C135.93 441.535 136.103 441.268 136.33 441.064C136.56 440.858 136.824 440.709 137.122 440.616C137.421 440.522 137.734 440.474 138.063 440.474C138.281 440.474 138.512 440.5 138.756 440.553C139.002 440.602 139.232 440.695 139.445 440.83C139.66 440.964 139.837 441.157 139.974 441.408C140.111 441.657 140.18 441.98 140.18 442.378V446H139.143V445.254H139.1C139.032 445.392 138.929 445.527 138.791 445.659C138.654 445.792 138.478 445.902 138.262 445.989C138.047 446.077 137.789 446.121 137.488 446.121ZM137.719 445.268C138.013 445.268 138.263 445.21 138.472 445.094C138.683 444.978 138.842 444.827 138.951 444.64C139.062 444.451 139.118 444.248 139.118 444.033V443.33C139.08 443.367 139.007 443.403 138.898 443.436C138.791 443.467 138.669 443.494 138.532 443.518C138.395 443.539 138.261 443.559 138.131 443.578C138.001 443.595 137.892 443.609 137.804 443.621C137.598 443.647 137.41 443.691 137.24 443.752C137.071 443.814 136.937 443.902 136.835 444.018C136.735 444.132 136.686 444.284 136.686 444.473C136.686 444.736 136.783 444.935 136.977 445.07C137.171 445.202 137.418 445.268 137.719 445.268ZM141.379 446V438.727H142.441V441.43H142.505C142.567 441.316 142.655 441.185 142.771 441.036C142.887 440.886 143.048 440.756 143.254 440.645C143.46 440.531 143.733 440.474 144.071 440.474C144.511 440.474 144.904 440.586 145.25 440.808C145.596 441.031 145.867 441.352 146.063 441.771C146.262 442.19 146.362 442.694 146.362 443.283C146.362 443.873 146.263 444.378 146.067 444.8C145.87 445.219 145.6 445.542 145.257 445.769C144.914 445.994 144.522 446.107 144.082 446.107C143.75 446.107 143.479 446.051 143.269 445.94C143.06 445.828 142.897 445.698 142.779 445.549C142.66 445.4 142.569 445.267 142.505 445.151H142.416V446H141.379ZM142.42 443.273C142.42 443.656 142.475 443.992 142.587 444.281C142.698 444.57 142.859 444.796 143.07 444.96C143.28 445.121 143.538 445.201 143.844 445.201C144.161 445.201 144.426 445.117 144.639 444.949C144.852 444.778 145.013 444.548 145.122 444.256C145.234 443.965 145.289 443.637 145.289 443.273C145.289 442.913 145.235 442.59 145.126 442.303C145.019 442.017 144.858 441.791 144.643 441.625C144.43 441.459 144.163 441.376 143.844 441.376C143.536 441.376 143.276 441.456 143.063 441.614C142.852 441.773 142.692 441.994 142.583 442.278C142.474 442.562 142.42 442.894 142.42 443.273ZM148.841 446.121C148.496 446.121 148.183 446.057 147.904 445.929C147.624 445.799 147.403 445.611 147.24 445.364C147.079 445.118 146.998 444.816 146.998 444.459C146.998 444.151 147.057 443.898 147.176 443.699C147.294 443.5 147.454 443.343 147.655 443.227C147.856 443.111 148.081 443.023 148.33 442.964C148.578 442.905 148.832 442.86 149.09 442.829C149.417 442.791 149.682 442.76 149.885 442.737C150.089 442.71 150.237 442.669 150.329 442.612C150.422 442.555 150.468 442.463 150.468 442.335V442.31C150.468 442 150.38 441.76 150.205 441.589C150.032 441.419 149.774 441.334 149.431 441.334C149.073 441.334 148.792 441.413 148.586 441.572C148.382 441.728 148.241 441.902 148.163 442.094L147.165 441.866C147.284 441.535 147.456 441.268 147.684 441.064C147.913 440.858 148.177 440.709 148.476 440.616C148.774 440.522 149.087 440.474 149.417 440.474C149.634 440.474 149.865 440.5 150.109 440.553C150.355 440.602 150.585 440.695 150.798 440.83C151.013 440.964 151.19 441.157 151.327 441.408C151.464 441.657 151.533 441.98 151.533 442.378V446H150.496V445.254H150.453C150.385 445.392 150.282 445.527 150.145 445.659C150.007 445.792 149.831 445.902 149.615 445.989C149.4 446.077 149.142 446.121 148.841 446.121ZM149.072 445.268C149.366 445.268 149.617 445.21 149.825 445.094C150.036 444.978 150.195 444.827 150.304 444.64C150.416 444.451 150.471 444.248 150.471 444.033V443.33C150.433 443.367 150.36 443.403 150.251 443.436C150.145 443.467 150.023 443.494 149.885 443.518C149.748 443.539 149.614 443.559 149.484 443.578C149.354 443.595 149.245 443.609 149.157 443.621C148.951 443.647 148.763 443.691 148.593 443.752C148.425 443.814 148.29 443.902 148.188 444.018C148.088 444.132 148.039 444.284 148.039 444.473C148.039 444.736 148.136 444.935 148.33 445.07C148.524 445.202 148.771 445.268 149.072 445.268ZM152.647 446V440.545H153.674V441.412H153.73C153.83 441.118 154.005 440.888 154.256 440.719C154.509 440.549 154.796 440.464 155.115 440.464C155.182 440.464 155.26 440.466 155.35 440.471C155.442 440.476 155.514 440.482 155.566 440.489V441.504C155.524 441.492 155.448 441.479 155.339 441.465C155.23 441.449 155.121 441.44 155.012 441.44C154.761 441.44 154.538 441.494 154.341 441.6C154.147 441.704 153.993 441.85 153.88 442.037C153.766 442.222 153.709 442.432 153.709 442.669V446H152.647Z" fill="#7D7D7D"/>
<line x1="200.321" y1="418" x2="200.321" y2="72" stroke="#F1F1F1"/>
<path d="M192.765 445V437.727H197.325V438.672H193.862V440.888H197.087V441.829H193.862V444.055H197.367V445H192.765ZM200.447 445.107C200.007 445.107 199.614 444.994 199.268 444.769C198.925 444.542 198.655 444.219 198.459 443.8C198.264 443.378 198.167 442.873 198.167 442.283C198.167 441.694 198.266 441.19 198.462 440.771C198.661 440.352 198.933 440.031 199.279 439.808C199.625 439.586 200.016 439.474 200.454 439.474C200.793 439.474 201.065 439.531 201.271 439.645C201.479 439.756 201.64 439.886 201.754 440.036C201.87 440.185 201.96 440.316 202.024 440.43H202.088V437.727H203.15V445H202.113V444.151H202.024C201.96 444.267 201.868 444.4 201.747 444.549C201.629 444.698 201.465 444.828 201.257 444.94C201.049 445.051 200.779 445.107 200.447 445.107ZM200.682 444.201C200.987 444.201 201.245 444.121 201.456 443.96C201.669 443.796 201.83 443.57 201.939 443.281C202.05 442.992 202.106 442.656 202.106 442.273C202.106 441.894 202.051 441.562 201.942 441.278C201.833 440.994 201.674 440.773 201.463 440.614C201.252 440.456 200.992 440.376 200.682 440.376C200.362 440.376 200.096 440.459 199.883 440.625C199.67 440.791 199.509 441.017 199.4 441.303C199.293 441.59 199.24 441.913 199.24 442.273C199.24 442.637 199.294 442.965 199.403 443.256C199.512 443.548 199.673 443.778 199.886 443.949C200.102 444.117 200.367 444.201 200.682 444.201ZM206.663 445.11C206.151 445.11 205.705 444.993 205.324 444.759C204.943 444.524 204.647 444.196 204.436 443.775C204.225 443.353 204.12 442.861 204.12 442.298C204.12 441.732 204.225 441.237 204.436 440.813C204.647 440.389 204.943 440.06 205.324 439.826C205.705 439.592 206.151 439.474 206.663 439.474C207.174 439.474 207.62 439.592 208.001 439.826C208.383 440.06 208.679 440.389 208.889 440.813C209.1 441.237 209.205 441.732 209.205 442.298C209.205 442.861 209.1 443.353 208.889 443.775C208.679 444.196 208.383 444.524 208.001 444.759C207.62 444.993 207.174 445.11 206.663 445.11ZM206.666 444.219C206.998 444.219 207.272 444.131 207.49 443.956C207.708 443.781 207.869 443.548 207.973 443.256C208.08 442.965 208.133 442.644 208.133 442.294C208.133 441.946 208.08 441.626 207.973 441.335C207.869 441.042 207.708 440.806 207.49 440.629C207.272 440.451 206.998 440.362 206.666 440.362C206.332 440.362 206.055 440.451 205.835 440.629C205.617 440.806 205.455 441.042 205.349 441.335C205.245 441.626 205.192 441.946 205.192 442.294C205.192 442.644 205.245 442.965 205.349 443.256C205.455 443.548 205.617 443.781 205.835 443.956C206.055 444.131 206.332 444.219 206.666 444.219Z" fill="#7D7D7D"/>
<line x1="257.982" y1="418" x2="257.982" y2="72" stroke="#F1F1F1"/>
<path d="M249.74 445H247.386V437.727H249.815C250.528 437.727 251.14 437.873 251.651 438.164C252.162 438.453 252.554 438.868 252.826 439.411C253.101 439.95 253.238 440.598 253.238 441.353C253.238 442.111 253.1 442.762 252.823 443.306C252.548 443.851 252.151 444.27 251.63 444.563C251.109 444.854 250.479 445 249.74 445ZM248.483 444.041H249.68C250.234 444.041 250.695 443.937 251.061 443.729C251.428 443.518 251.703 443.214 251.885 442.816C252.068 442.416 252.159 441.928 252.159 441.353C252.159 440.782 252.068 440.298 251.885 439.901C251.705 439.503 251.437 439.201 251.079 438.995C250.722 438.789 250.278 438.686 249.748 438.686H248.483V444.041ZM256.568 445.11C256.031 445.11 255.568 444.995 255.18 444.766C254.794 444.534 254.496 444.208 254.285 443.789C254.077 443.368 253.973 442.874 253.973 442.308C253.973 441.75 254.077 441.257 254.285 440.831C254.496 440.405 254.789 440.072 255.166 439.833C255.545 439.594 255.987 439.474 256.494 439.474C256.802 439.474 257.1 439.525 257.389 439.627C257.678 439.729 257.937 439.889 258.166 440.107C258.396 440.324 258.577 440.607 258.71 440.955C258.842 441.301 258.909 441.721 258.909 442.216V442.592H254.573V441.797H257.868C257.868 441.518 257.811 441.27 257.698 441.055C257.584 440.837 257.424 440.665 257.218 440.54C257.015 440.414 256.776 440.352 256.501 440.352C256.203 440.352 255.942 440.425 255.72 440.572C255.5 440.716 255.329 440.906 255.208 441.14C255.09 441.372 255.031 441.624 255.031 441.896V442.518C255.031 442.882 255.095 443.192 255.223 443.448C255.353 443.704 255.534 443.899 255.766 444.034C255.998 444.167 256.269 444.233 256.579 444.233C256.78 444.233 256.964 444.205 257.13 444.148C257.295 444.089 257.439 444.001 257.559 443.885C257.68 443.769 257.772 443.626 257.836 443.455L258.841 443.636C258.761 443.932 258.616 444.192 258.408 444.414C258.202 444.634 257.943 444.806 257.63 444.929C257.32 445.05 256.966 445.11 256.568 445.11ZM260.849 437.727V445H259.787V437.727H260.849ZM264.523 439.545V440.398H261.544V439.545H264.523ZM262.343 438.239H263.405V443.398C263.405 443.604 263.435 443.759 263.497 443.864C263.558 443.965 263.638 444.035 263.735 444.073C263.834 444.109 263.942 444.126 264.058 444.126C264.143 444.126 264.218 444.121 264.282 444.109C264.346 444.097 264.395 444.087 264.431 444.08L264.623 444.957C264.561 444.981 264.473 445.005 264.36 445.028C264.246 445.054 264.104 445.069 263.934 445.071C263.654 445.076 263.394 445.026 263.152 444.922C262.911 444.818 262.716 444.657 262.567 444.439C262.417 444.221 262.343 443.948 262.343 443.619V438.239ZM266.985 445.121C266.639 445.121 266.327 445.057 266.048 444.929C265.768 444.799 265.547 444.611 265.384 444.364C265.223 444.118 265.142 443.816 265.142 443.459C265.142 443.151 265.201 442.898 265.32 442.699C265.438 442.5 265.598 442.343 265.799 442.227C266 442.111 266.225 442.023 266.474 441.964C266.722 441.905 266.976 441.86 267.234 441.829C267.56 441.791 267.826 441.76 268.029 441.737C268.233 441.71 268.381 441.669 268.473 441.612C268.565 441.555 268.611 441.463 268.611 441.335V441.31C268.611 441 268.524 440.76 268.349 440.589C268.176 440.419 267.918 440.334 267.575 440.334C267.217 440.334 266.935 440.413 266.729 440.572C266.526 440.728 266.385 440.902 266.307 441.094L265.309 440.866C265.427 440.535 265.6 440.268 265.827 440.064C266.057 439.858 266.321 439.709 266.619 439.616C266.918 439.522 267.231 439.474 267.56 439.474C267.778 439.474 268.009 439.5 268.253 439.553C268.499 439.602 268.729 439.695 268.942 439.83C269.157 439.964 269.334 440.157 269.471 440.408C269.608 440.657 269.677 440.98 269.677 441.378V445H268.64V444.254H268.597C268.529 444.392 268.426 444.527 268.288 444.659C268.151 444.792 267.975 444.902 267.759 444.989C267.544 445.077 267.286 445.121 266.985 445.121ZM267.216 444.268C267.509 444.268 267.76 444.21 267.969 444.094C268.179 443.978 268.339 443.827 268.448 443.64C268.559 443.451 268.615 443.248 268.615 443.033V442.33C268.577 442.367 268.504 442.403 268.395 442.436C268.288 442.467 268.166 442.494 268.029 442.518C267.892 442.539 267.758 442.559 267.628 442.578C267.498 442.595 267.389 442.609 267.301 442.621C267.095 442.647 266.907 442.691 266.736 442.752C266.568 442.814 266.433 442.902 266.332 443.018C266.232 443.132 266.183 443.284 266.183 443.473C266.183 443.736 266.28 443.935 266.474 444.07C266.668 444.202 266.915 444.268 267.216 444.268Z" fill="#7D7D7D"/>
<line x1="316.643" y1="418" x2="316.643" y2="72" stroke="#F1F1F1"/>
<path d="M286.524 445V437.727H287.621V444.055H290.917V445H286.524ZM293.371 445.121C293.025 445.121 292.713 445.057 292.433 444.929C292.154 444.799 291.933 444.611 291.769 444.364C291.608 444.118 291.528 443.816 291.528 443.459C291.528 443.151 291.587 442.898 291.705 442.699C291.824 442.5 291.983 442.343 292.185 442.227C292.386 442.111 292.611 442.023 292.859 441.964C293.108 441.905 293.361 441.86 293.619 441.829C293.946 441.791 294.211 441.76 294.415 441.737C294.618 441.71 294.766 441.669 294.859 441.612C294.951 441.555 294.997 441.463 294.997 441.335V441.31C294.997 441 294.91 440.76 294.734 440.589C294.562 440.419 294.303 440.334 293.96 440.334C293.603 440.334 293.321 440.413 293.115 440.572C292.911 440.728 292.771 440.902 292.692 441.094L291.695 440.866C291.813 440.535 291.986 440.268 292.213 440.064C292.443 439.858 292.707 439.709 293.005 439.616C293.303 439.522 293.617 439.474 293.946 439.474C294.164 439.474 294.395 439.5 294.638 439.553C294.885 439.602 295.114 439.695 295.327 439.83C295.543 439.964 295.719 440.157 295.857 440.408C295.994 440.657 296.062 440.98 296.062 441.378V445H295.026V444.254H294.983C294.914 444.392 294.811 444.527 294.674 444.659C294.537 444.792 294.36 444.902 294.145 444.989C293.929 445.077 293.671 445.121 293.371 445.121ZM293.602 444.268C293.895 444.268 294.146 444.21 294.354 444.094C294.565 443.978 294.725 443.827 294.834 443.64C294.945 443.451 295.001 443.248 295.001 443.033V442.33C294.963 442.367 294.889 442.403 294.781 442.436C294.674 442.467 294.552 442.494 294.415 442.518C294.277 442.539 294.144 442.559 294.013 442.578C293.883 442.595 293.774 442.609 293.687 442.621C293.481 442.647 293.293 442.691 293.122 442.752C292.954 442.814 292.819 442.902 292.717 443.018C292.618 443.132 292.568 443.284 292.568 443.473C292.568 443.736 292.665 443.935 292.859 444.07C293.053 444.202 293.301 444.268 293.602 444.268ZM299.464 447.159C299.03 447.159 298.658 447.102 298.345 446.989C298.035 446.875 297.782 446.725 297.585 446.538C297.389 446.351 297.242 446.146 297.145 445.923L298.057 445.547C298.121 445.651 298.207 445.761 298.313 445.877C298.422 445.996 298.569 446.096 298.753 446.179C298.94 446.262 299.181 446.303 299.474 446.303C299.877 446.303 300.209 446.205 300.472 446.009C300.735 445.814 300.866 445.504 300.866 445.078V444.006H300.799C300.735 444.122 300.643 444.251 300.522 444.393C300.404 444.535 300.24 444.658 300.032 444.762C299.823 444.866 299.552 444.918 299.219 444.918C298.788 444.918 298.399 444.818 298.054 444.616C297.711 444.413 297.438 444.113 297.237 443.718C297.038 443.32 296.939 442.831 296.939 442.251C296.939 441.671 297.037 441.174 297.234 440.76C297.432 440.346 297.705 440.028 298.05 439.808C298.396 439.586 298.788 439.474 299.226 439.474C299.564 439.474 299.838 439.531 300.046 439.645C300.254 439.756 300.417 439.886 300.533 440.036C300.651 440.185 300.742 440.316 300.806 440.43H300.884V439.545H301.925V445.121C301.925 445.589 301.816 445.974 301.598 446.275C301.38 446.576 301.085 446.798 300.714 446.942C300.344 447.087 299.928 447.159 299.464 447.159ZM299.453 444.038C299.758 444.038 300.016 443.967 300.227 443.825C300.44 443.68 300.601 443.474 300.71 443.207C300.821 442.937 300.877 442.614 300.877 442.237C300.877 441.87 300.823 441.547 300.714 441.268C300.605 440.988 300.445 440.771 300.234 440.614C300.024 440.456 299.763 440.376 299.453 440.376C299.133 440.376 298.867 440.459 298.654 440.625C298.441 440.788 298.28 441.011 298.171 441.293C298.065 441.574 298.011 441.889 298.011 442.237C298.011 442.595 298.066 442.908 298.175 443.178C298.283 443.448 298.444 443.659 298.658 443.81C298.873 443.962 299.138 444.038 299.453 444.038ZM305.346 445.11C304.835 445.11 304.389 444.993 304.007 444.759C303.626 444.524 303.33 444.196 303.12 443.775C302.909 443.353 302.804 442.861 302.804 442.298C302.804 441.732 302.909 441.237 303.12 440.813C303.33 440.389 303.626 440.06 304.007 439.826C304.389 439.592 304.835 439.474 305.346 439.474C305.858 439.474 306.304 439.592 306.685 439.826C307.066 440.06 307.362 440.389 307.573 440.813C307.783 441.237 307.889 441.732 307.889 442.298C307.889 442.861 307.783 443.353 307.573 443.775C307.362 444.196 307.066 444.524 306.685 444.759C306.304 444.993 305.858 445.11 305.346 445.11ZM305.35 444.219C305.681 444.219 305.956 444.131 306.174 443.956C306.391 443.781 306.552 443.548 306.657 443.256C306.763 442.965 306.816 442.644 306.816 442.294C306.816 441.946 306.763 441.626 306.657 441.335C306.552 441.042 306.391 440.806 306.174 440.629C305.956 440.451 305.681 440.362 305.35 440.362C305.016 440.362 304.739 440.451 304.519 440.629C304.301 440.806 304.139 441.042 304.032 441.335C303.928 441.626 303.876 441.946 303.876 442.294C303.876 442.644 303.928 442.965 304.032 443.256C304.139 443.548 304.301 443.781 304.519 443.956C304.739 444.131 305.016 444.219 305.35 444.219ZM312.861 440.877L311.899 441.048C311.859 440.924 311.795 440.807 311.707 440.696C311.622 440.585 311.506 440.494 311.359 440.423C311.212 440.352 311.029 440.316 310.809 440.316C310.508 440.316 310.257 440.384 310.056 440.518C309.855 440.651 309.754 440.823 309.754 441.033C309.754 441.216 309.822 441.362 309.957 441.474C310.091 441.585 310.309 441.676 310.61 441.747L311.476 441.946C311.978 442.062 312.352 442.241 312.599 442.482C312.845 442.724 312.968 443.037 312.968 443.423C312.968 443.75 312.873 444.041 312.684 444.297C312.497 444.55 312.235 444.749 311.899 444.893C311.565 445.038 311.178 445.11 310.738 445.11C310.127 445.11 309.629 444.98 309.243 444.719C308.857 444.457 308.62 444.084 308.533 443.601L309.559 443.445C309.623 443.712 309.754 443.915 309.953 444.052C310.152 444.187 310.411 444.254 310.731 444.254C311.079 444.254 311.357 444.182 311.565 444.038C311.774 443.891 311.878 443.712 311.878 443.501C311.878 443.331 311.814 443.188 311.686 443.072C311.56 442.956 311.367 442.868 311.107 442.809L310.184 442.607C309.675 442.491 309.298 442.306 309.055 442.053C308.813 441.799 308.692 441.478 308.692 441.09C308.692 440.768 308.782 440.487 308.962 440.245C309.142 440.004 309.391 439.815 309.708 439.68C310.025 439.543 310.389 439.474 310.798 439.474C311.388 439.474 311.852 439.602 312.19 439.858C312.529 440.111 312.752 440.451 312.861 440.877ZM322.308 440.092H321.2C321.157 439.856 321.078 439.647 320.962 439.467C320.846 439.287 320.704 439.135 320.535 439.009C320.367 438.884 320.179 438.789 319.971 438.725C319.765 438.661 319.546 438.629 319.314 438.629C318.895 438.629 318.52 438.735 318.188 438.945C317.859 439.156 317.599 439.465 317.407 439.872C317.218 440.279 317.123 440.777 317.123 441.364C317.123 441.955 317.218 442.455 317.407 442.862C317.599 443.269 317.86 443.577 318.192 443.786C318.523 443.994 318.896 444.098 319.31 444.098C319.54 444.098 319.758 444.067 319.964 444.006C320.172 443.942 320.36 443.848 320.528 443.725C320.696 443.602 320.839 443.452 320.955 443.274C321.073 443.094 321.155 442.888 321.2 442.656L322.308 442.66C322.248 443.017 322.134 443.346 321.963 443.647C321.795 443.945 321.578 444.203 321.313 444.421C321.05 444.637 320.75 444.804 320.411 444.922C320.073 445.04 319.703 445.099 319.303 445.099C318.674 445.099 318.112 444.95 317.62 444.652C317.128 444.351 316.739 443.922 316.455 443.363C316.174 442.804 316.033 442.138 316.033 441.364C316.033 440.587 316.175 439.921 316.459 439.364C316.743 438.806 317.131 438.377 317.624 438.079C318.116 437.778 318.676 437.628 319.303 437.628C319.689 437.628 320.049 437.683 320.383 437.795C320.719 437.904 321.021 438.065 321.288 438.278C321.556 438.488 321.777 438.746 321.952 439.052C322.128 439.355 322.246 439.702 322.308 440.092ZM325.586 445.11C325.049 445.11 324.586 444.995 324.198 444.766C323.812 444.534 323.513 444.208 323.303 443.789C323.094 443.368 322.99 442.874 322.99 442.308C322.99 441.75 323.094 441.257 323.303 440.831C323.513 440.405 323.807 440.072 324.183 439.833C324.562 439.594 325.005 439.474 325.512 439.474C325.819 439.474 326.118 439.525 326.406 439.627C326.695 439.729 326.955 439.889 327.184 440.107C327.414 440.324 327.595 440.607 327.728 440.955C327.86 441.301 327.926 441.721 327.926 442.216V442.592H323.59V441.797H326.886C326.886 441.518 326.829 441.27 326.715 441.055C326.602 440.837 326.442 440.665 326.236 440.54C326.032 440.414 325.793 440.352 325.519 440.352C325.22 440.352 324.96 440.425 324.737 440.572C324.517 440.716 324.347 440.906 324.226 441.14C324.108 441.372 324.049 441.624 324.049 441.896V442.518C324.049 442.882 324.112 443.192 324.24 443.448C324.37 443.704 324.552 443.899 324.784 444.034C325.016 444.167 325.287 444.233 325.597 444.233C325.798 444.233 325.982 444.205 326.147 444.148C326.313 444.089 326.456 444.001 326.577 443.885C326.698 443.769 326.79 443.626 326.854 443.455L327.859 443.636C327.778 443.932 327.634 444.192 327.426 444.414C327.22 444.634 326.96 444.806 326.648 444.929C326.338 445.05 325.984 445.11 325.586 445.11ZM329.866 441.761V445H328.804V439.545H329.824V440.433H329.891C330.017 440.144 330.213 439.912 330.481 439.737C330.75 439.562 331.09 439.474 331.5 439.474C331.871 439.474 332.197 439.553 332.476 439.709C332.756 439.863 332.972 440.092 333.126 440.398C333.28 440.703 333.357 441.081 333.357 441.531V445H332.295V441.658C332.295 441.263 332.192 440.954 331.986 440.732C331.78 440.507 331.497 440.394 331.138 440.394C330.891 440.394 330.672 440.447 330.481 440.554C330.291 440.661 330.141 440.817 330.03 441.023C329.921 441.226 329.866 441.473 329.866 441.761ZM337.027 439.545V440.398H334.048V439.545H337.027ZM334.847 438.239H335.909V443.398C335.909 443.604 335.939 443.759 336.001 443.864C336.062 443.965 336.142 444.035 336.239 444.073C336.338 444.109 336.446 444.126 336.562 444.126C336.647 444.126 336.722 444.121 336.786 444.109C336.85 444.097 336.899 444.087 336.935 444.08L337.127 444.957C337.065 444.981 336.977 445.005 336.864 445.028C336.75 445.054 336.608 445.069 336.438 445.071C336.158 445.076 335.898 445.026 335.656 444.922C335.415 444.818 335.22 444.657 335.071 444.439C334.921 444.221 334.847 443.948 334.847 443.619V438.239ZM337.902 445V439.545H338.928V440.412H338.985C339.084 440.118 339.259 439.888 339.51 439.719C339.764 439.549 340.05 439.464 340.37 439.464C340.436 439.464 340.514 439.466 340.604 439.471C340.696 439.476 340.769 439.482 340.821 439.489V440.504C340.778 440.492 340.702 440.479 340.593 440.465C340.485 440.449 340.376 440.44 340.267 440.44C340.016 440.44 339.792 440.494 339.596 440.6C339.401 440.704 339.248 440.85 339.134 441.037C339.02 441.222 338.964 441.432 338.964 441.669V445H337.902ZM342.978 445.121C342.632 445.121 342.32 445.057 342.041 444.929C341.761 444.799 341.54 444.611 341.377 444.364C341.216 444.118 341.135 443.816 341.135 443.459C341.135 443.151 341.194 442.898 341.313 442.699C341.431 442.5 341.591 442.343 341.792 442.227C341.993 442.111 342.218 442.023 342.467 441.964C342.715 441.905 342.969 441.86 343.227 441.829C343.553 441.791 343.819 441.76 344.022 441.737C344.226 441.71 344.374 441.669 344.466 441.612C344.558 441.555 344.605 441.463 344.605 441.335V441.31C344.605 441 344.517 440.76 344.342 440.589C344.169 440.419 343.911 440.334 343.568 440.334C343.21 440.334 342.928 440.413 342.722 440.572C342.519 440.728 342.378 440.902 342.3 441.094L341.302 440.866C341.42 440.535 341.593 440.268 341.82 440.064C342.05 439.858 342.314 439.709 342.612 439.616C342.911 439.522 343.224 439.474 343.553 439.474C343.771 439.474 344.002 439.5 344.246 439.553C344.492 439.602 344.722 439.695 344.935 439.83C345.15 439.964 345.327 440.157 345.464 440.408C345.601 440.657 345.67 440.98 345.67 441.378V445H344.633V444.254H344.59C344.522 444.392 344.419 444.527 344.281 444.659C344.144 444.792 343.968 444.902 343.752 444.989C343.537 445.077 343.279 445.121 342.978 445.121ZM343.209 444.268C343.503 444.268 343.753 444.21 343.962 444.094C344.173 443.978 344.332 443.827 344.441 443.64C344.552 443.451 344.608 443.248 344.608 443.033V442.33C344.57 442.367 344.497 442.403 344.388 442.436C344.281 442.467 344.159 442.494 344.022 442.518C343.885 442.539 343.751 442.559 343.621 442.578C343.491 442.595 343.382 442.609 343.294 442.621C343.088 442.647 342.9 442.691 342.73 442.752C342.561 442.814 342.427 442.902 342.325 443.018C342.225 443.132 342.176 443.284 342.176 443.473C342.176 443.736 342.273 443.935 342.467 444.07C342.661 444.202 342.908 444.268 343.209 444.268ZM347.846 437.727V445H346.784V437.727H347.846Z" fill="#7D7D7D"/>
<line x1="375.303" y1="418" x2="375.303" y2="72" stroke="#F1F1F1"/>
<path d="M370.546 441.364C370.546 442.14 370.404 442.808 370.12 443.366C369.836 443.923 369.447 444.351 368.952 444.652C368.459 444.95 367.9 445.099 367.272 445.099C366.642 445.099 366.08 444.95 365.585 444.652C365.093 444.351 364.705 443.922 364.421 443.363C364.137 442.804 363.994 442.138 363.994 441.364C363.994 440.587 364.137 439.921 364.421 439.364C364.705 438.806 365.093 438.377 365.585 438.079C366.08 437.778 366.642 437.628 367.272 437.628C367.9 437.628 368.459 437.778 368.952 438.079C369.447 438.377 369.836 438.806 370.12 439.364C370.404 439.921 370.546 440.587 370.546 441.364ZM369.46 441.364C369.46 440.772 369.364 440.273 369.172 439.869C368.983 439.461 368.722 439.154 368.391 438.945C368.062 438.735 367.689 438.629 367.272 438.629C366.853 438.629 366.479 438.735 366.15 438.945C365.821 439.154 365.561 439.461 365.369 439.869C365.179 440.273 365.085 440.772 365.085 441.364C365.085 441.955 365.179 442.455 365.369 442.862C365.561 443.267 365.821 443.575 366.15 443.786C366.479 443.994 366.853 444.098 367.272 444.098C367.689 444.098 368.062 443.994 368.391 443.786C368.722 443.575 368.983 443.267 369.172 442.862C369.364 442.455 369.46 441.955 369.46 441.364ZM372.591 441.761V445H371.529V439.545H372.548V440.433H372.616C372.741 440.144 372.938 439.912 373.205 439.737C373.475 439.562 373.815 439.474 374.224 439.474C374.596 439.474 374.922 439.553 375.201 439.709C375.48 439.863 375.697 440.092 375.851 440.398C376.005 440.703 376.082 441.081 376.082 441.531V445H375.02V441.658C375.02 441.263 374.917 440.954 374.711 440.732C374.505 440.507 374.222 440.394 373.862 440.394C373.616 440.394 373.397 440.447 373.205 440.554C373.016 440.661 372.866 440.817 372.754 441.023C372.645 441.226 372.591 441.473 372.591 441.761ZM379.248 445.107C378.807 445.107 378.414 444.994 378.069 444.769C377.725 444.542 377.455 444.219 377.259 443.8C377.065 443.378 376.968 442.873 376.968 442.283C376.968 441.694 377.066 441.19 377.263 440.771C377.461 440.352 377.734 440.031 378.079 439.808C378.425 439.586 378.817 439.474 379.255 439.474C379.593 439.474 379.866 439.531 380.071 439.645C380.28 439.756 380.441 439.886 380.554 440.036C380.67 440.185 380.76 440.316 380.824 440.43H380.888V437.727H381.95V445H380.913V444.151H380.824C380.76 444.267 380.668 444.4 380.547 444.549C380.429 444.698 380.266 444.828 380.057 444.94C379.849 445.051 379.579 445.107 379.248 445.107ZM379.482 444.201C379.787 444.201 380.045 444.121 380.256 443.96C380.469 443.796 380.63 443.57 380.739 443.281C380.85 442.992 380.906 442.656 380.906 442.273C380.906 441.894 380.852 441.562 380.743 441.278C380.634 440.994 380.474 440.773 380.263 440.614C380.053 440.456 379.792 440.376 379.482 440.376C379.162 440.376 378.896 440.459 378.683 440.625C378.47 440.791 378.309 441.017 378.2 441.303C378.094 441.59 378.04 441.913 378.04 442.273C378.04 442.637 378.095 442.965 378.204 443.256C378.312 443.548 378.473 443.778 378.687 443.949C378.902 444.117 379.167 444.201 379.482 444.201ZM385.463 445.11C384.952 445.11 384.505 444.993 384.124 444.759C383.743 444.524 383.447 444.196 383.237 443.775C383.026 443.353 382.92 442.861 382.92 442.298C382.92 441.732 383.026 441.237 383.237 440.813C383.447 440.389 383.743 440.06 384.124 439.826C384.505 439.592 384.952 439.474 385.463 439.474C385.974 439.474 386.421 439.592 386.802 439.826C387.183 440.06 387.479 440.389 387.69 440.813C387.9 441.237 388.006 441.732 388.006 442.298C388.006 442.861 387.9 443.353 387.69 443.775C387.479 444.196 387.183 444.524 386.802 444.759C386.421 444.993 385.974 445.11 385.463 445.11ZM385.467 444.219C385.798 444.219 386.073 444.131 386.29 443.956C386.508 443.781 386.669 443.548 386.773 443.256C386.88 442.965 386.933 442.644 386.933 442.294C386.933 441.946 386.88 441.626 386.773 441.335C386.669 441.042 386.508 440.806 386.29 440.629C386.073 440.451 385.798 440.362 385.467 440.362C385.133 440.362 384.856 440.451 384.636 440.629C384.418 440.806 384.256 441.042 384.149 441.335C384.045 441.626 383.993 441.946 383.993 442.294C383.993 442.644 384.045 442.965 384.149 443.256C384.256 443.548 384.418 443.781 384.636 443.956C384.856 444.131 385.133 444.219 385.467 444.219Z" fill="#7D7D7D"/>
<line x1="430.964" y1="418" x2="430.964" y2="72" stroke="#F1F1F1"/>
<path d="M405.267 445V437.727H406.364V440.888H409.99V437.727H411.091V445H409.99V441.829H406.364V445H405.267ZM414.655 445.11C414.117 445.11 413.654 444.995 413.266 444.766C412.88 444.534 412.582 444.208 412.371 443.789C412.163 443.368 412.059 442.874 412.059 442.308C412.059 441.75 412.163 441.257 412.371 440.831C412.582 440.405 412.876 440.072 413.252 439.833C413.631 439.594 414.073 439.474 414.58 439.474C414.888 439.474 415.186 439.525 415.475 439.627C415.764 439.729 416.023 439.889 416.253 440.107C416.482 440.324 416.663 440.607 416.796 440.955C416.929 441.301 416.995 441.721 416.995 442.216V442.592H412.659V441.797H415.954C415.954 441.518 415.898 441.27 415.784 441.055C415.67 440.837 415.51 440.665 415.305 440.54C415.101 440.414 414.862 440.352 414.587 440.352C414.289 440.352 414.028 440.425 413.806 440.572C413.586 440.716 413.415 440.906 413.295 441.14C413.176 441.372 413.117 441.624 413.117 441.896V442.518C413.117 442.882 413.181 443.192 413.309 443.448C413.439 443.704 413.62 443.899 413.852 444.034C414.084 444.167 414.355 444.233 414.665 444.233C414.867 444.233 415.05 444.205 415.216 444.148C415.381 444.089 415.525 444.001 415.645 443.885C415.766 443.769 415.858 443.626 415.922 443.455L416.927 443.636C416.847 443.932 416.702 444.192 416.494 444.414C416.288 444.634 416.029 444.806 415.716 444.929C415.406 445.05 415.052 445.11 414.655 445.11ZM419.46 445.121C419.115 445.121 418.802 445.057 418.523 444.929C418.243 444.799 418.022 444.611 417.859 444.364C417.698 444.118 417.617 443.816 417.617 443.459C417.617 443.151 417.676 442.898 417.795 442.699C417.913 442.5 418.073 442.343 418.274 442.227C418.475 442.111 418.7 442.023 418.949 441.964C419.198 441.905 419.451 441.86 419.709 441.829C420.036 441.791 420.301 441.76 420.504 441.737C420.708 441.71 420.856 441.669 420.948 441.612C421.041 441.555 421.087 441.463 421.087 441.335V441.31C421.087 441 420.999 440.76 420.824 440.589C420.651 440.419 420.393 440.334 420.05 440.334C419.692 440.334 419.411 440.413 419.205 440.572C419.001 440.728 418.86 440.902 418.782 441.094L417.784 440.866C417.903 440.535 418.075 440.268 418.303 440.064C418.532 439.858 418.796 439.709 419.095 439.616C419.393 439.522 419.707 439.474 420.036 439.474C420.253 439.474 420.484 439.5 420.728 439.553C420.974 439.602 421.204 439.695 421.417 439.83C421.632 439.964 421.809 440.157 421.946 440.408C422.083 440.657 422.152 440.98 422.152 441.378V445H421.115V444.254H421.073C421.004 444.392 420.901 444.527 420.764 444.659C420.626 444.792 420.45 444.902 420.234 444.989C420.019 445.077 419.761 445.121 419.46 445.121ZM419.691 444.268C419.985 444.268 420.236 444.21 420.444 444.094C420.655 443.978 420.814 443.827 420.923 443.64C421.035 443.451 421.09 443.248 421.09 443.033V442.33C421.052 442.367 420.979 442.403 420.87 442.436C420.764 442.467 420.642 442.494 420.504 442.518C420.367 442.539 420.233 442.559 420.103 442.578C419.973 442.595 419.864 442.609 419.776 442.621C419.57 442.647 419.382 442.691 419.212 442.752C419.044 442.814 418.909 442.902 418.807 443.018C418.707 443.132 418.658 443.284 418.658 443.473C418.658 443.736 418.755 443.935 418.949 444.07C419.143 444.202 419.39 444.268 419.691 444.268ZM425.308 445.107C424.868 445.107 424.475 444.994 424.129 444.769C423.786 444.542 423.516 444.219 423.32 443.8C423.125 443.378 423.028 442.873 423.028 442.283C423.028 441.694 423.127 441.19 423.323 440.771C423.522 440.352 423.794 440.031 424.14 439.808C424.486 439.586 424.877 439.474 425.315 439.474C425.654 439.474 425.926 439.531 426.132 439.645C426.34 439.756 426.501 439.886 426.615 440.036C426.731 440.185 426.821 440.316 426.885 440.43H426.949V437.727H428.011V445H426.974V444.151H426.885C426.821 444.267 426.729 444.4 426.608 444.549C426.49 444.698 426.326 444.828 426.118 444.94C425.91 445.051 425.64 445.107 425.308 445.107ZM425.543 444.201C425.848 444.201 426.106 444.121 426.317 443.96C426.53 443.796 426.691 443.57 426.8 443.281C426.911 442.992 426.967 442.656 426.967 442.273C426.967 441.894 426.912 441.562 426.803 441.278C426.694 440.994 426.535 440.773 426.324 440.614C426.113 440.456 425.853 440.376 425.543 440.376C425.223 440.376 424.957 440.459 424.744 440.625C424.53 440.791 424.37 441.017 424.261 441.303C424.154 441.59 424.101 441.913 424.101 442.273C424.101 442.637 424.155 442.965 424.264 443.256C424.373 443.548 424.534 443.778 424.747 443.949C424.963 444.117 425.228 444.201 425.543 444.201ZM437.975 441.364C437.975 442.14 437.833 442.808 437.549 443.366C437.265 443.923 436.876 444.351 436.381 444.652C435.888 444.95 435.328 445.099 434.701 445.099C434.071 445.099 433.509 444.95 433.014 444.652C432.522 444.351 432.134 443.922 431.85 443.363C431.565 442.804 431.423 442.138 431.423 441.364C431.423 440.587 431.565 439.921 431.85 439.364C432.134 438.806 432.522 438.377 433.014 438.079C433.509 437.778 434.071 437.628 434.701 437.628C435.328 437.628 435.888 437.778 436.381 438.079C436.876 438.377 437.265 438.806 437.549 439.364C437.833 439.921 437.975 440.587 437.975 441.364ZM436.889 441.364C436.889 440.772 436.793 440.273 436.601 439.869C436.412 439.461 436.151 439.154 435.82 438.945C435.491 438.735 435.118 438.629 434.701 438.629C434.282 438.629 433.908 438.735 433.579 438.945C433.25 439.154 432.989 439.461 432.798 439.869C432.608 440.273 432.514 440.772 432.514 441.364C432.514 441.955 432.608 442.455 432.798 442.862C432.989 443.267 433.25 443.575 433.579 443.786C433.908 443.994 434.282 444.098 434.701 444.098C435.118 444.098 435.491 443.994 435.82 443.786C436.151 443.575 436.412 443.267 436.601 442.862C436.793 442.455 436.889 441.955 436.889 441.364ZM441.554 439.545V440.398H438.472V439.545H441.554ZM439.317 445V438.913C439.317 438.572 439.391 438.29 439.54 438.065C439.69 437.837 439.887 437.668 440.134 437.557C440.38 437.443 440.647 437.386 440.936 437.386C441.149 437.386 441.331 437.404 441.483 437.44C441.634 437.473 441.747 437.504 441.82 437.532L441.572 438.391C441.522 438.377 441.458 438.361 441.38 438.342C441.302 438.32 441.207 438.31 441.096 438.31C440.838 438.31 440.653 438.374 440.542 438.501C440.433 438.629 440.379 438.814 440.379 439.055V445H439.317ZM444.945 439.545V440.398H441.863V439.545H444.945ZM442.708 445V438.913C442.708 438.572 442.783 438.29 442.932 438.065C443.081 437.837 443.279 437.668 443.525 437.557C443.771 437.443 444.039 437.386 444.327 437.386C444.541 437.386 444.723 437.404 444.874 437.44C445.026 437.473 445.138 437.504 445.212 437.532L444.963 438.391C444.913 438.377 444.849 438.361 444.771 438.342C444.693 438.32 444.599 438.31 444.487 438.31C444.229 438.31 444.045 438.374 443.933 438.501C443.824 438.629 443.77 438.814 443.77 439.055V445H442.708ZM445.741 445V439.545H446.803V445H445.741ZM446.277 438.704C446.092 438.704 445.934 438.642 445.801 438.519C445.671 438.394 445.606 438.245 445.606 438.072C445.606 437.897 445.671 437.747 445.801 437.624C445.934 437.499 446.092 437.436 446.277 437.436C446.462 437.436 446.619 437.499 446.749 437.624C446.882 437.747 446.948 437.897 446.948 438.072C446.948 438.245 446.882 438.394 446.749 438.519C446.619 438.642 446.462 438.704 446.277 438.704ZM450.229 445.11C449.701 445.11 449.246 444.991 448.865 444.751C448.486 444.51 448.195 444.177 447.992 443.754C447.788 443.33 447.686 442.844 447.686 442.298C447.686 441.744 447.79 441.255 447.999 440.831C448.207 440.405 448.501 440.072 448.879 439.833C449.258 439.594 449.704 439.474 450.218 439.474C450.632 439.474 451.002 439.551 451.326 439.705C451.65 439.857 451.912 440.07 452.111 440.344C452.312 440.619 452.432 440.94 452.469 441.307H451.436C451.379 441.051 451.249 440.831 451.045 440.646C450.844 440.462 450.574 440.369 450.236 440.369C449.94 440.369 449.681 440.447 449.458 440.604C449.238 440.758 449.066 440.978 448.943 441.264C448.82 441.548 448.759 441.884 448.759 442.273C448.759 442.67 448.819 443.014 448.94 443.303C449.06 443.591 449.231 443.815 449.451 443.974C449.674 444.132 449.935 444.212 450.236 444.212C450.437 444.212 450.619 444.175 450.783 444.102C450.948 444.026 451.087 443.918 451.198 443.778C451.312 443.639 451.391 443.471 451.436 443.274H452.469C452.432 443.627 452.317 443.942 452.125 444.219C451.933 444.496 451.676 444.714 451.354 444.872C451.035 445.031 450.66 445.11 450.229 445.11ZM455.656 445.11C455.118 445.11 454.656 444.995 454.267 444.766C453.881 444.534 453.583 444.208 453.372 443.789C453.164 443.368 453.06 442.874 453.06 442.308C453.06 441.75 453.164 441.257 453.372 440.831C453.583 440.405 453.877 440.072 454.253 439.833C454.632 439.594 455.075 439.474 455.581 439.474C455.889 439.474 456.187 439.525 456.476 439.627C456.765 439.729 457.024 439.889 457.254 440.107C457.483 440.324 457.665 440.607 457.797 440.955C457.93 441.301 457.996 441.721 457.996 442.216V442.592H453.66V441.797H456.956C456.956 441.518 456.899 441.27 456.785 441.055C456.671 440.837 456.512 440.665 456.306 440.54C456.102 440.414 455.863 440.352 455.588 440.352C455.29 440.352 455.03 440.425 454.807 440.572C454.587 440.716 454.416 440.906 454.296 441.14C454.177 441.372 454.118 441.624 454.118 441.896V442.518C454.118 442.882 454.182 443.192 454.31 443.448C454.44 443.704 454.621 443.899 454.853 444.034C455.085 444.167 455.356 444.233 455.666 444.233C455.868 444.233 456.051 444.205 456.217 444.148C456.383 444.089 456.526 444.001 456.647 443.885C456.767 443.769 456.86 443.626 456.924 443.455L457.929 443.636C457.848 443.932 457.704 444.192 457.495 444.414C457.289 444.634 457.03 444.806 456.718 444.929C456.407 445.05 456.054 445.11 455.656 445.11Z" fill="#7D7D7D"/>
<line x1="484.625" y1="418" x2="484.625" y2="72" stroke="#F1F1F1"/>
<path d="M482.947 441.364C482.947 442.14 482.805 442.808 482.52 443.366C482.236 443.923 481.847 444.351 481.352 444.652C480.86 444.95 480.3 445.099 479.672 445.099C479.043 445.099 478.48 444.95 477.986 444.652C477.493 444.351 477.105 443.922 476.821 443.363C476.537 442.804 476.395 442.138 476.395 441.364C476.395 440.587 476.537 439.921 476.821 439.364C477.105 438.806 477.493 438.377 477.986 438.079C478.48 437.778 479.043 437.628 479.672 437.628C480.3 437.628 480.86 437.778 481.352 438.079C481.847 438.377 482.236 438.806 482.52 439.364C482.805 439.921 482.947 440.587 482.947 441.364ZM481.86 441.364C481.86 440.772 481.764 440.273 481.572 439.869C481.383 439.461 481.123 439.154 480.791 438.945C480.462 438.735 480.089 438.629 479.672 438.629C479.253 438.629 478.879 438.735 478.55 438.945C478.221 439.154 477.961 439.461 477.769 439.869C477.58 440.273 477.485 440.772 477.485 441.364C477.485 441.955 477.58 442.455 477.769 442.862C477.961 443.267 478.221 443.575 478.55 443.786C478.879 443.994 479.253 444.098 479.672 444.098C480.089 444.098 480.462 443.994 480.791 443.786C481.123 443.575 481.383 443.267 481.572 442.862C481.764 442.455 481.86 441.955 481.86 441.364ZM484.601 447.045C484.442 447.045 484.298 447.032 484.167 447.006C484.037 446.983 483.94 446.957 483.876 446.928L484.132 446.058C484.326 446.11 484.499 446.133 484.65 446.126C484.802 446.119 484.936 446.062 485.052 445.955C485.17 445.849 485.274 445.675 485.364 445.433L485.496 445.071L483.5 439.545H484.636L486.018 443.778H486.074L487.456 439.545H488.596L486.348 445.728C486.244 446.012 486.111 446.252 485.95 446.449C485.789 446.648 485.597 446.797 485.375 446.896C485.152 446.996 484.894 447.045 484.601 447.045ZM491.406 445.11C490.894 445.11 490.448 444.993 490.067 444.759C489.686 444.524 489.39 444.196 489.179 443.775C488.968 443.353 488.863 442.861 488.863 442.298C488.863 441.732 488.968 441.237 489.179 440.813C489.39 440.389 489.686 440.06 490.067 439.826C490.448 439.592 490.894 439.474 491.406 439.474C491.917 439.474 492.363 439.592 492.744 439.826C493.126 440.06 493.421 440.389 493.632 440.813C493.843 441.237 493.948 441.732 493.948 442.298C493.948 442.861 493.843 443.353 493.632 443.775C493.421 444.196 493.126 444.524 492.744 444.759C492.363 444.993 491.917 445.11 491.406 445.11ZM491.409 444.219C491.741 444.219 492.015 444.131 492.233 443.956C492.451 443.781 492.612 443.548 492.716 443.256C492.822 442.965 492.876 442.644 492.876 442.294C492.876 441.946 492.822 441.626 492.716 441.335C492.612 441.042 492.451 440.806 492.233 440.629C492.015 440.451 491.741 440.362 491.409 440.362C491.075 440.362 490.798 440.451 490.578 440.629C490.36 440.806 490.198 441.042 490.092 441.335C489.987 441.626 489.935 441.946 489.935 442.294C489.935 442.644 489.987 442.965 490.092 443.256C490.198 443.548 490.36 443.781 490.578 443.956C490.798 444.131 491.075 444.219 491.409 444.219Z" fill="#7D7D7D"/>
<path d="M24.9588 74.7273V82H23.858V75.8281H23.8153L22.0753 76.9645V75.9134L23.8899 74.7273H24.9588ZM29.1581 82.1207C28.597 82.1184 28.1176 81.9704 27.7199 81.6768C27.3222 81.3833 27.0179 80.956 26.8072 80.3949C26.5965 79.8338 26.4912 79.1579 26.4912 78.3672C26.4912 77.5788 26.5965 76.9053 26.8072 76.3466C27.0203 75.7879 27.3257 75.3617 27.7234 75.0682C28.1235 74.7746 28.6018 74.6278 29.1581 74.6278C29.7144 74.6278 30.1915 74.7758 30.5892 75.0717C30.9869 75.3653 31.2911 75.7914 31.5018 76.3501C31.7149 76.9065 31.8214 77.5788 31.8214 78.3672C31.8214 79.1603 31.7161 79.8374 31.5054 80.3984C31.2947 80.9571 30.9905 81.3845 30.5928 81.6804C30.195 81.974 29.7168 82.1207 29.1581 82.1207ZM29.1581 81.1726C29.6505 81.1726 30.0352 80.9323 30.3122 80.4517C30.5916 79.9711 30.7312 79.2763 30.7312 78.3672C30.7312 77.7635 30.6673 77.2533 30.5395 76.8366C30.414 76.4176 30.2329 76.1004 29.9962 75.8849C29.7618 75.6671 29.4824 75.5582 29.1581 75.5582C28.668 75.5582 28.2833 75.7997 28.004 76.2827C27.7246 76.7656 27.5838 77.4605 27.5814 78.3672C27.5814 78.9732 27.6441 79.4858 27.7696 79.9048C27.8974 80.3215 28.0786 80.6375 28.3129 80.853C28.5473 81.0661 28.829 81.1726 29.1581 81.1726ZM35.3132 82.1207C34.7521 82.1184 34.2727 81.9704 33.875 81.6768C33.4772 81.3833 33.173 80.956 32.9623 80.3949C32.7516 79.8338 32.6463 79.1579 32.6463 78.3672C32.6463 77.5788 32.7516 76.9053 32.9623 76.3466C33.1754 75.7879 33.4808 75.3617 33.8785 75.0682C34.2786 74.7746 34.7568 74.6278 35.3132 74.6278C35.8695 74.6278 36.3466 74.7758 36.7443 75.0717C37.142 75.3653 37.4462 75.7914 37.6569 76.3501C37.87 76.9065 37.9765 77.5788 37.9765 78.3672C37.9765 79.1603 37.8712 79.8374 37.6605 80.3984C37.4498 80.9571 37.1456 81.3845 36.7478 81.6804C36.3501 81.974 35.8719 82.1207 35.3132 82.1207ZM35.3132 81.1726C35.8056 81.1726 36.1903 80.9323 36.4673 80.4517C36.7466 79.9711 36.8863 79.2763 36.8863 78.3672C36.8863 77.7635 36.8224 77.2533 36.6946 76.8366C36.5691 76.4176 36.388 76.1004 36.1512 75.8849C35.9169 75.6671 35.6375 75.5582 35.3132 75.5582C34.8231 75.5582 34.4384 75.7997 34.1591 76.2827C33.8797 76.7656 33.7388 77.4605 33.7365 78.3672C33.7365 78.9732 33.7992 79.4858 33.9247 79.9048C34.0525 80.3215 34.2336 80.6375 34.468 80.853C34.7024 81.0661 34.9841 81.1726 35.3132 81.1726ZM39.9271 80.1499L39.92 78.8537H40.1046L42.2779 76.5455H43.5492L41.0705 79.1733H40.9036L39.9271 80.1499ZM38.9505 82V74.7273H40.0123V82H38.9505ZM42.3951 82L40.442 79.4077L41.1735 78.6655L43.6984 82H42.3951Z" fill="#7D7D7D"/>
<path d="M67 79.3884L486.5 79.3884" stroke="#F1F1F1"/>
<path d="M27.1001 173.849C26.6551 173.849 26.255 173.764 25.8999 173.594C25.5471 173.421 25.2654 173.184 25.0547 172.884C24.844 172.583 24.7315 172.24 24.7173 171.854H25.7827C25.8087 172.166 25.9472 172.423 26.1982 172.624C26.4491 172.826 26.7498 172.926 27.1001 172.926C27.3795 172.926 27.6269 172.862 27.8423 172.734C28.0601 172.604 28.2306 172.425 28.3537 172.198C28.4792 171.971 28.5419 171.712 28.5419 171.42C28.5419 171.125 28.478 170.861 28.3501 170.629C28.2223 170.397 28.0459 170.214 27.821 170.082C27.5985 169.949 27.3428 169.882 27.054 169.879C26.8338 169.879 26.6125 169.917 26.3899 169.993C26.1674 170.069 25.9875 170.168 25.8501 170.291L24.8452 170.142L25.2536 166.477H29.2521V167.418H26.1662L25.9354 169.453H25.978C26.12 169.316 26.3082 169.201 26.5426 169.109C26.7794 169.016 27.0327 168.97 27.3026 168.97C27.7453 168.97 28.1394 169.076 28.4851 169.286C28.8331 169.497 29.1065 169.785 29.3054 170.149C29.5066 170.511 29.6061 170.928 29.6037 171.399C29.6061 171.87 29.4995 172.29 29.2841 172.66C29.071 173.029 28.7751 173.32 28.3963 173.533C28.0199 173.744 27.5878 173.849 27.1001 173.849ZM33.1327 173.871C32.5716 173.868 32.0922 173.72 31.6945 173.427C31.2968 173.133 30.9926 172.706 30.7819 172.145C30.5712 171.584 30.4658 170.908 30.4658 170.117C30.4658 169.329 30.5712 168.655 30.7819 168.097C30.9949 167.538 31.3003 167.112 31.698 166.818C32.0981 166.525 32.5764 166.378 33.1327 166.378C33.6891 166.378 34.1661 166.526 34.5638 166.822C34.9615 167.115 35.2658 167.541 35.4765 168.1C35.6895 168.656 35.7961 169.329 35.7961 170.117C35.7961 170.91 35.6907 171.587 35.48 172.148C35.2693 172.707 34.9651 173.134 34.5674 173.43C34.1696 173.724 33.6914 173.871 33.1327 173.871ZM33.1327 172.923C33.6251 172.923 34.0098 172.682 34.2868 172.202C34.5662 171.721 34.7059 171.026 34.7059 170.117C34.7059 169.513 34.6419 169.003 34.5141 168.587C34.3886 168.168 34.2075 167.85 33.9708 167.635C33.7364 167.417 33.457 167.308 33.1327 167.308C32.6426 167.308 32.2579 167.55 31.9786 168.033C31.6992 168.516 31.5584 169.21 31.556 170.117C31.556 170.723 31.6187 171.236 31.7442 171.655C31.8721 172.071 32.0532 172.388 32.2875 172.603C32.5219 172.816 32.8036 172.923 33.1327 172.923ZM37.7466 171.9L37.7395 170.604H37.9241L40.0974 168.295H41.3687L38.8901 170.923H38.7232L37.7466 171.9ZM36.77 173.75V166.477H37.8318V173.75H36.77ZM40.2146 173.75L38.2615 171.158L38.993 170.415L41.5179 173.75H40.2146Z" fill="#7D7D7D"/>
<path d="M67 170.888H486.5" stroke="#F1F1F1"/>
<path d="M24.6996 265.5V264.705L27.1605 262.155C27.4233 261.878 27.6399 261.635 27.8104 261.427C27.9832 261.216 28.1122 261.016 28.1974 260.827C28.2827 260.637 28.3253 260.436 28.3253 260.223C28.3253 259.982 28.2685 259.773 28.1548 259.598C28.0412 259.42 27.8861 259.284 27.6896 259.19C27.4931 259.093 27.2718 259.044 27.0256 259.044C26.7652 259.044 26.5379 259.097 26.3438 259.204C26.1496 259.31 26.0005 259.461 25.8963 259.655C25.7921 259.849 25.7401 260.076 25.7401 260.337H24.6925C24.6925 259.894 24.7943 259.507 24.9979 259.175C25.2015 258.844 25.4808 258.587 25.8359 258.405C26.1911 258.22 26.5947 258.128 27.0469 258.128C27.5038 258.128 27.9063 258.219 28.2543 258.401C28.6046 258.581 28.8781 258.827 29.0746 259.14C29.2711 259.45 29.3693 259.8 29.3693 260.191C29.3693 260.461 29.3184 260.725 29.2166 260.983C29.1172 261.241 28.9432 261.529 28.6946 261.846C28.446 262.161 28.1004 262.543 27.6577 262.993L26.2124 264.506V264.559H29.4865V265.5H24.6996ZM33.0643 265.621C32.5033 265.618 32.0239 265.47 31.6261 265.177C31.2284 264.883 30.9242 264.456 30.7135 263.895C30.5028 263.334 30.3974 262.658 30.3974 261.867C30.3974 261.079 30.5028 260.405 30.7135 259.847C30.9266 259.288 31.232 258.862 31.6297 258.568C32.0298 258.275 32.508 258.128 33.0643 258.128C33.6207 258.128 34.0977 258.276 34.4955 258.572C34.8932 258.865 35.1974 259.291 35.4081 259.85C35.6212 260.406 35.7277 261.079 35.7277 261.867C35.7277 262.66 35.6223 263.337 35.4116 263.898C35.2009 264.457 34.8967 264.884 34.499 265.18C34.1013 265.474 33.6231 265.621 33.0643 265.621ZM33.0643 264.673C33.5568 264.673 33.9415 264.432 34.2185 263.952C34.4978 263.471 34.6375 262.776 34.6375 261.867C34.6375 261.263 34.5736 260.753 34.4457 260.337C34.3203 259.918 34.1392 259.6 33.9024 259.385C33.668 259.167 33.3887 259.058 33.0643 259.058C32.5743 259.058 32.1896 259.3 31.9102 259.783C31.6309 260.266 31.49 260.96 31.4876 261.867C31.4876 262.473 31.5504 262.986 31.6759 263.405C31.8037 263.821 31.9848 264.138 32.2192 264.353C32.4536 264.566 32.7353 264.673 33.0643 264.673ZM37.6782 263.65L37.6711 262.354H37.8558L40.0291 260.045H41.3004L38.8217 262.673H38.6548L37.6782 263.65ZM36.7017 265.5V258.227H37.7635V265.5H36.7017ZM40.1463 265.5L38.1931 262.908L38.9247 262.165L41.4495 265.5H40.1463Z" fill="#7D7D7D"/>
<path d="M67 263.388H486.5" stroke="#F1F1F1"/>
<path d="M27.4588 349.977V357.25H26.358V351.078H26.3153L24.5753 352.214V351.163L26.3899 349.977H27.4588ZM31.6581 357.371C31.097 357.368 30.6176 357.22 30.2199 356.927C29.8222 356.633 29.5179 356.206 29.3072 355.645C29.0965 355.084 28.9912 354.408 28.9912 353.617C28.9912 352.829 29.0965 352.155 29.3072 351.597C29.5203 351.038 29.8257 350.612 30.2234 350.318C30.6235 350.025 31.1018 349.878 31.6581 349.878C32.2144 349.878 32.6915 350.026 33.0892 350.322C33.4869 350.615 33.7911 351.041 34.0018 351.6C34.2149 352.156 34.3214 352.829 34.3214 353.617C34.3214 354.41 34.2161 355.087 34.0054 355.648C33.7947 356.207 33.4905 356.634 33.0928 356.93C32.695 357.224 32.2168 357.371 31.6581 357.371ZM31.6581 356.423C32.1505 356.423 32.5352 356.182 32.8122 355.702C33.0916 355.221 33.2312 354.526 33.2312 353.617C33.2312 353.013 33.1673 352.503 33.0395 352.087C32.914 351.668 32.7329 351.35 32.4962 351.135C32.2618 350.917 31.9824 350.808 31.6581 350.808C31.168 350.808 30.7833 351.05 30.504 351.533C30.2246 352.016 30.0838 352.71 30.0814 353.617C30.0814 354.223 30.1441 354.736 30.2696 355.155C30.3974 355.571 30.5786 355.888 30.8129 356.103C31.0473 356.316 31.329 356.423 31.6581 356.423ZM36.272 355.4L36.2649 354.104H36.4495L38.6228 351.795H39.8941L37.4154 354.423H37.2485L36.272 355.4ZM35.2954 357.25V349.977H36.3572V357.25H35.2954ZM38.74 357.25L36.7869 354.658L37.5184 353.915L40.0433 357.25H38.74Z" fill="#7D7D7D"/>
<path d="M67 354.888H486.5" stroke="#F1F1F1"/>
<path d="M27.2315 449.121C26.6705 449.118 26.1911 448.97 25.7933 448.677C25.3956 448.383 25.0914 447.956 24.8807 447.395C24.67 446.834 24.5646 446.158 24.5646 445.367C24.5646 444.579 24.67 443.905 24.8807 443.347C25.0938 442.788 25.3991 442.362 25.7969 442.068C26.197 441.775 26.6752 441.628 27.2315 441.628C27.7879 441.628 28.2649 441.776 28.6626 442.072C29.0604 442.365 29.3646 442.791 29.5753 443.35C29.7884 443.906 29.8949 444.579 29.8949 445.367C29.8949 446.16 29.7895 446.837 29.5788 447.398C29.3681 447.957 29.0639 448.384 28.6662 448.68C28.2685 448.974 27.7902 449.121 27.2315 449.121ZM27.2315 448.173C27.724 448.173 28.1087 447.932 28.3857 447.452C28.665 446.971 28.8047 446.276 28.8047 445.367C28.8047 444.763 28.7408 444.253 28.6129 443.837C28.4875 443.418 28.3063 443.1 28.0696 442.885C27.8352 442.667 27.5559 442.558 27.2315 442.558C26.7415 442.558 26.3568 442.8 26.0774 443.283C25.7981 443.766 25.6572 444.46 25.6548 445.367C25.6548 445.973 25.7176 446.486 25.843 446.905C25.9709 447.321 26.152 447.638 26.3864 447.853C26.6207 448.066 26.9025 448.173 27.2315 448.173Z" fill="#7D7D7D"/>
<path d="M67 446.388H487.13" stroke="#F1F1F1"/>
<mask id="mask0_54_245" style="mask-type:alpha" maskUnits="userSpaceOnUse" x="76" y="72" width="654" height="375">
<rect x="76" y="72.3884" width="654" height="374.612" fill="#D9D9D9"/>
</mask>
<g mask="url(#mask0_54_245)">
<path d="M259.281 226.038L166.43 359.2L74.3851 389.93V449.927L730.807 451.39V92.8749L635.533 166.041L541.067 322.642L446.6 379.711L352.941 166.041L259.281 226.038Z" fill="url(#paint0_linear_54_245)" stroke="#25CD25" stroke-dasharray="2 2"/>
</g>
<defs>
<linearGradient id="paint0_linear_54_245" x1="402.596" y1="92.8749" x2="402.596" y2="449.927" gradientUnits="userSpaceOnUse">
<stop stop-color="#25CD25" stop-opacity="0.4"/>
<stop offset="1" stop-color="#25CD25" stop-opacity="0"/>
</linearGradient>
</defs>
</svg>
