<svg width="654" height="307" viewBox="0 0 654 307" fill="none" xmlns="http://www.w3.org/2000/svg">
<path fill-rule="evenodd" clip-rule="evenodd" d="M456.92 0.759261C344.5 -10.0291 355.961 97.9622 206.379 83.1816C53.3812 68.0632 7.65314 174.714 53.3812 233.623C102.771 297.249 419.02 331.453 532.16 284.55C659.498 231.76 667.85 21.0014 456.92 0.759261Z" fill="#DAF9DA"/>
<path fill-rule="evenodd" clip-rule="evenodd" d="M207.249 116.694C207.249 116.694 220.158 133.158 231.369 140.791C247.278 151.622 269.997 160.619 278.528 169.066C298.8 189.138 289.809 198.956 289.809 198.956C289.809 198.956 279.099 177.318 263.749 166.75C252.034 158.685 229.023 149.739 221.332 143.115C207.476 131.183 200.318 119.752 200.318 119.752L207.249 116.694Z" fill="white"/>
<path d="M366.616 291.933C313.688 293.378 260.8 295.296 207.972 297.686C201.198 298.077 196.185 298.136 196.453 298.556C191.691 298.38 183.081 296.864 178.076 298.077C181.846 298.589 188.973 300.538 189.396 302.788C139.544 304.47 89.4149 303.335 39.9335 299.405C88.381 301.337 136.977 301.999 185.526 301.391C179.27 298.935 171.224 298.099 163.904 299.144C173.34 296.476 184.273 295.662 194.55 296.864C186.709 291.733 181.512 285.236 179.802 278.427C187.635 281.56 193.9 286.019 197.638 291.121C197.281 281.531 208.882 272.213 224.596 269.469C214.561 276.945 209.257 286.545 209.913 296.042C260.081 293.535 310.359 291.781 360.681 290.784C358.197 289.632 356.507 287.909 356.061 286.073C358.521 284.845 362.155 284.483 365.171 285.167C367.385 274.914 379.579 265.604 395.925 261.684C386.82 267.699 380.495 275.14 377.792 283.018C380.6 282.023 384.156 281.781 387.279 282.374C386.388 284.596 384.162 286.625 381.079 288.024C443.387 279.693 508.794 293.885 572.086 288.68C540.136 294.724 505.613 290.038 472.214 288.005C423.322 285.167 376.366 290.784 366.616 291.933Z" fill="white"/>
<path d="M498.457 70.2377C499.004 67.1874 503.494 64.9009 508.099 63.4332C516.427 60.7788 526.232 59.7433 535.621 60.5262C539.873 60.8807 543.114 58.5108 546.152 56.735C554.036 52.1268 566.085 50.444 577.081 51.5085C588.076 52.5731 598.04 56.1263 606.066 60.6511C614.091 65.1753 620.355 70.6499 626.153 76.2185C627.368 77.3867 630.19 77.4175 632.525 77.3508C637.564 77.2064 642.867 77.2876 647.268 78.7296C651.67 80.171 654.763 83.3714 652.983 86.1328C652.148 87.4258 650.377 88.4562 648.353 89.1697C644.317 90.5932 639.423 90.8379 634.724 91.0479C603.385 92.4479 572.047 93.8473 540.709 95.2473C532.135 95.6304 523.425 96.0089 515.004 94.9886C506.583 93.9677 498.34 91.343 494.029 86.9901C489.718 82.6373 490.439 76.4375 497.052 73.222C498.449 72.5421 498.266 71.295 498.457 70.2377Z" fill="white"/>
<path d="M393.56 98.3228C400.4 102.919 435.705 101.309 436.85 109.718C432.806 110.367 428.761 111.016 424.716 111.665C418.14 112.72 411.49 113.792 405.54 115.742C402.748 116.657 399.429 117.788 396.59 116.925C385.611 113.587 372.843 112.55 360.526 113.239C348.209 113.928 336.295 116.275 325.117 119.379C319.282 121 312.706 122.872 306.665 121.532C284.614 116.641 259.457 116.727 237.504 121.767C233.612 122.661 229.273 121.669 225.442 120.689C221.299 119.628 217.157 118.568 213.013 117.507C218.356 113.932 241.199 108.959 245.856 105.499C246.674 104.892 277.175 92.519 310.621 98.1094C312.12 97.6978 364.138 92.519 393.56 98.3228Z" fill="white"/>
<path fill-rule="evenodd" clip-rule="evenodd" d="M256.849 156.753C237.455 145.971 215.065 135.056 209.842 119.705C219.428 134.106 240.713 144.473 259.381 155.408C278.049 166.342 295.732 179.982 294.578 195.42C325.102 191.523 356.733 190.609 387.765 192.729C390.946 184.349 400.206 177.294 407.472 169.835C425.483 151.347 431.572 129.823 437.359 108.814C438.822 103.503 427.705 100.355 418.792 99.0262C409.891 97.699 400.989 96.3724 392.087 95.0458C375.358 92.5521 358.026 90.0411 341.01 91.7457C329.504 92.8987 318.141 95.9659 306.633 94.8173C288.315 92.9894 268.881 95.3045 253.244 101.177C245.383 104.128 238.397 107.955 229.816 110.115C211.755 114.66 195.847 122.093 184.277 131.392C178.233 113.102 188.417 94.3839 200.324 77.1056C213.634 57.7912 230.342 38.2494 258.979 25.8779C300.966 7.73953 355.708 11.2703 399.383 27.9875C443.06 44.7046 469.747 72.2717 478.372 102.384C479.375 105.887 480.086 109.677 477.267 112.822C474.449 115.967 473.385 117.787 468.789 115.467C464.872 113.489 460.701 111.438 455.619 110.869C450.535 110.299 444.369 111.844 443.383 114.816C436.166 136.582 428.587 158.899 408.534 177.714C403.312 182.613 397.232 187.291 393.911 192.728C391.37 196.888 390.551 201.33 389.751 205.723C388.082 214.877 386.413 224.031 384.745 233.184C384.042 237.042 383.062 241.244 378.257 243.919C373.668 246.474 366.84 246.933 360.53 247.261C340.04 248.326 319.549 249.39 299.059 250.454C295.395 250.645 291.24 250.742 288.563 249.265C286.501 248.128 285.93 246.366 285.525 244.725C282.646 233.08 282.647 221.192 285.527 209.547C289.658 192.838 276.876 175.744 256.742 163.648C246.25 157.345 233.877 152.192 223.401 145.879C212.926 139.565 204.159 131.631 203.53 122.84C210.658 134.394 223.794 144.652 240.742 151.903C266.07 162.737 284.116 179.245 290.304 197.239C295.168 181.849 276.242 167.536 256.849 156.753Z" fill="white"/>
<path fill-rule="evenodd" clip-rule="evenodd" d="M204.439 191.919C201.366 190.933 200.233 188.722 199.425 186.728C195.461 176.94 192.562 167.003 190.753 157C190.639 156.363 190.586 155.629 191.377 155.188C193.071 156.357 193.371 157.99 193.631 159.515C195.501 170.482 199.124 181.346 204.439 191.919Z" fill="#00160A"/>
<path fill-rule="evenodd" clip-rule="evenodd" d="M448.164 158.577C450.95 153.128 453.004 147.552 454.301 141.915C454.476 141.152 454.967 140.192 456.279 140.134C457.045 140.525 456.972 141.222 456.827 141.812C455.592 146.837 453.831 151.818 451.554 156.717C451.092 157.712 449.799 158.96 448.164 158.577Z" fill="#00160A"/>
<path fill-rule="evenodd" clip-rule="evenodd" d="M377.18 289.556C378.699 287.143 381.483 285.008 385.059 283.511C381.259 283.647 377.563 284.615 374.858 286.183C376.348 279.349 380.084 272.685 385.803 266.663C375.225 271.742 368.396 279.409 367.342 287.39C364.822 286.531 361.679 286.324 358.895 286.833C361.468 288.533 364.042 290.233 366.616 291.933C313.688 293.378 260.8 295.296 207.972 297.686C205.225 289.146 208.797 279.975 217.596 272.974C205.986 277.764 198.818 286.032 199.073 294.342C193.895 290.302 191.316 284.532 183.542 282.224C184.918 286.182 186.507 287.072 195.639 297.298C196.012 297.716 196.185 298.136 196.453 298.556C191.691 298.38 183.081 296.864 178.076 298.077C181.846 298.589 188.973 300.538 189.396 302.788C139.544 304.47 89.4149 303.335 39.9335 299.405C88.381 301.337 136.977 301.999 185.526 301.391C179.27 298.935 171.224 298.099 163.904 299.144C173.34 296.476 184.273 295.662 194.55 296.864C186.709 291.733 181.512 285.236 179.802 278.427C187.635 281.56 193.9 286.019 197.638 291.121C197.281 281.531 208.882 272.213 224.596 269.469C214.561 276.945 209.257 286.545 209.913 296.042C260.081 293.535 310.359 291.781 360.681 290.784C358.197 289.632 356.507 287.909 356.061 286.073C358.521 284.845 362.155 284.483 365.171 285.167C367.385 274.914 379.579 265.604 395.925 261.684C386.82 267.699 380.495 275.14 377.792 283.018C380.6 282.023 384.156 281.781 387.279 282.374C386.388 284.596 384.162 286.625 381.079 288.024C443.387 279.693 508.794 293.885 572.086 288.68C540.136 294.724 505.613 290.038 472.214 288.005C440.602 286.081 408.558 286.604 377.18 289.556Z" fill="#00160A"/>
<path fill-rule="evenodd" clip-rule="evenodd" d="M405.235 156.29C405.999 156.947 405.76 157.826 405.452 158.6C403.602 163.247 400.341 167.701 395.867 171.691C394.622 170.783 395.766 169.469 396.814 168.48C399.601 165.848 401.65 162.948 402.853 159.933C403.363 158.653 403.774 157.288 405.235 156.29Z" fill="#00160A"/>
<path fill-rule="evenodd" clip-rule="evenodd" d="M393.309 164.728C392.157 164.148 392.673 163.066 393.225 162.237C394.996 159.576 396.187 156.781 396.759 153.944C396.949 153.004 397.25 151.897 398.701 151.476C399.383 151.836 399.281 152.469 399.122 152.999C397.92 157.029 396.67 161.141 393.309 164.728Z" fill="#00160A"/>
<path fill-rule="evenodd" clip-rule="evenodd" d="M297.514 179.748C297.851 179.572 298.376 179.753 298.689 179.945C300.09 180.803 300.926 181.971 300.988 183.158C299.113 182.57 297.738 181.463 297.362 180.238C297.309 180.068 297.293 179.864 297.514 179.748Z" fill="#00160A"/>
<path fill-rule="evenodd" clip-rule="evenodd" d="M445.106 143.76C444.607 148.935 442.587 154.058 439.162 158.838C439.073 158.961 438.978 159.089 438.804 159.176C438.296 159.433 437.439 159.157 437.256 158.779C437.074 158.401 437.334 158.004 437.58 157.639C439.996 154.061 441.6 150.297 442.334 146.475C442.552 145.338 443.165 143.894 445.106 143.76Z" fill="#00160A"/>
<path fill-rule="evenodd" clip-rule="evenodd" d="M294.246 170.824C290.955 168.221 288.308 165.34 286.413 162.298C286.17 161.907 286.318 161.247 287.006 161.355C287.264 161.396 287.417 161.548 287.544 161.685C290.402 164.802 293.26 167.92 296.118 171.037C295.972 171.505 294.73 171.207 294.246 170.824Z" fill="#00160A"/>
<path fill-rule="evenodd" clip-rule="evenodd" d="M200.535 116.732C199.023 116.274 198.962 115.041 199.144 114.05C202.526 95.5862 217.893 77.9596 241.456 65.5159C241.998 67.8583 238.906 69.8872 236.166 71.6238C216.643 83.9953 203.987 100.017 200.535 116.732Z" fill="#00160A"/>
<path fill-rule="evenodd" clip-rule="evenodd" d="M398.614 116.715C399.045 110.653 397.312 103.98 393.56 98.3238C400.4 102.92 400.684 109.607 400.611 115.701C411.523 111.905 424.156 109.82 436.85 109.719C432.806 110.368 428.761 111.017 424.716 111.666C418.14 112.721 411.49 113.794 405.54 115.743C402.748 116.658 399.429 117.789 396.59 116.926C385.611 113.588 372.843 112.551 360.526 113.24C348.209 113.929 336.295 116.837 325.117 119.941C319.282 121.562 312.706 123.433 306.665 122.093C284.614 117.203 259.457 116.728 237.504 121.768C233.612 122.662 229.273 121.67 225.442 120.69C221.299 119.63 217.157 118.569 213.013 117.509C217.83 118.1 229.789 120.616 229.789 120.616C229.789 120.616 233.234 120.86 234.319 120.086C235.403 119.312 235.745 118.283 236.136 117.309C237.855 113.022 241.199 108.96 245.856 105.501C246.674 104.893 248.426 104.325 249.078 104.998C242.633 109.368 238.336 114.81 236.826 120.513C260.315 115.33 287.121 115.494 310.42 120.962C312.646 113.421 312.715 105.664 310.621 98.1105C312.12 97.6995 313.22 99.0054 313.368 99.9697C314.442 106.995 314.249 114.086 312.793 121.088C326.268 117.28 340.243 113.839 355.018 112.451C369.794 111.062 385.566 112.429 398.614 116.715Z" fill="#00160A"/>
<path fill-rule="evenodd" clip-rule="evenodd" d="M227.346 101.662C234.391 89.869 245.371 78.8857 259.488 69.513C260.523 68.8253 261.753 68.0957 263.318 68.0643C264.883 68.0335 266.352 69.2297 265.248 69.8793C249.006 79.4306 236.339 91.0506 228.384 103.694C226.953 103.716 226.874 102.453 227.346 101.662Z" fill="#00160A"/>
<path fill-rule="evenodd" clip-rule="evenodd" d="M205.09 154.764C205.296 154.91 205.32 155.115 205.337 155.304C206.012 163.158 209.424 170.832 212.819 178.442C212.964 178.766 212.153 179.001 211.644 178.846C211.135 178.691 210.913 178.341 210.735 178.022C206.776 170.893 204.249 163.493 203.223 156.022C203.172 155.649 203.136 155.247 203.475 154.93C203.814 154.614 204.686 154.475 205.09 154.764Z" fill="#00160A"/>
<path fill-rule="evenodd" clip-rule="evenodd" d="M311.153 90.988C309.74 91.0227 309.279 89.8983 309.299 89.0711C309.514 80.4208 309.728 71.7711 309.941 63.1213C309.965 62.1659 310.408 60.9222 312.03 60.8169C313.473 61.8059 313.442 63.2428 313.335 64.5415C312.609 73.357 311.881 82.1725 311.153 90.988Z" fill="#00160A"/>
<path fill-rule="evenodd" clip-rule="evenodd" d="M447.31 104.228C450.444 101.252 450.232 97.507 449.704 94.0255C448.78 87.9277 447.192 81.864 444.957 75.8838C444.743 75.3103 444.614 74.5879 445.44 74.2547C446.122 73.9786 447.119 74.169 447.653 74.5403C448.187 74.911 448.374 75.4072 448.538 75.8826C451.103 83.3172 452.27 90.917 452.014 98.4999C451.919 101.32 451.129 104.628 446.898 105.98C446.084 105.546 446.733 104.776 447.31 104.228Z" fill="#00160A"/>
<path fill-rule="evenodd" clip-rule="evenodd" d="M397.679 84.1869C398.743 86.9521 398.292 89.9095 396.408 92.5208C395.113 91.7077 395.477 90.432 395.701 89.3293C396.572 85.0442 394.007 80.777 390.852 76.8766C387.698 72.9756 383.887 69.2091 381.991 65.0393C381.706 64.4121 381.75 63.5033 382.843 63.3924C383.767 63.2989 384.396 63.9098 384.741 64.42C388.285 69.6728 391.83 74.9256 395.374 80.1784C396.26 81.491 397.15 82.8104 397.679 84.1869Z" fill="#00160A"/>
<path fill-rule="evenodd" clip-rule="evenodd" d="M493.67 68.5578C494.218 65.5075 498.708 63.221 503.312 61.7532C511.64 59.0988 521.445 58.0634 530.835 58.8463C535.086 59.2008 538.328 56.8308 541.365 55.0551C549.249 50.4468 561.298 48.764 572.294 49.8286C583.29 50.8932 593.254 54.4464 601.279 58.9712C609.304 63.4954 615.568 68.97 621.366 74.5386C622.582 75.7068 625.403 75.7376 627.738 75.6709C632.777 75.5264 638.08 75.6076 642.482 77.0496C646.884 78.4911 649.977 81.6915 648.196 84.4528C647.361 85.7459 645.59 86.7763 643.566 87.4897C639.53 88.9132 634.636 89.158 629.937 89.368C598.599 90.768 567.26 92.1674 535.922 93.5674C527.348 93.9504 518.638 94.329 510.217 93.3087C501.797 92.2878 493.553 89.6631 489.242 85.3102C484.931 80.9573 485.652 74.7576 492.266 71.542C493.662 70.8622 493.479 69.6151 493.67 68.5578ZM505.541 62.6996C501.79 63.7452 498.045 65.2852 496.81 67.6064C496.37 68.4329 496.279 69.311 495.87 70.1437C494.81 72.302 491.757 73.9226 490.146 75.961C486.789 80.2108 490.615 85.4961 497.018 88.3056C503.419 91.1152 511.711 91.9501 519.695 92.2794C548.43 93.4627 577.003 89.1977 605.801 88.7738C617.111 88.6075 628.783 89.0012 639.364 86.6576C643.369 85.77 647.77 83.5255 646.051 81.2312C645.617 80.6516 644.835 80.1862 644.014 79.7735C638.948 77.2255 631.693 76.2505 625.234 77.2501C621.94 77.7597 619.189 75.8053 617.385 74.1141C609.537 66.7568 600.652 59.4231 587.973 54.928C575.294 50.4334 557.91 49.45 546.117 54.7051C540.817 57.0666 535.887 60.7357 529.263 60.3247C521.184 59.8235 512.875 60.6551 505.541 62.6996Z" fill="#00160A"/>
<path fill-rule="evenodd" clip-rule="evenodd" d="M66.6821 41.1402C65.6243 43.0711 66.9578 45.1492 68.4024 46.9916C70.0816 49.1336 72.8426 51.5495 76.8624 51.4011C89.2771 50.9424 101.691 50.4838 114.106 50.0251C115.903 49.9585 118.378 50.2329 118.389 51.2874C102.821 52.0159 87.2543 52.7451 71.6871 53.4736C61.2148 53.9642 50.2656 54.5449 41.4237 57.8635C32.5818 61.1815 26.8184 68.1781 31.5878 73.6532C33.395 75.7275 36.9416 77.4618 40.9202 77.3923C51.6429 77.2059 62.3655 77.0188 73.0876 76.8323C75.5863 76.7887 79.0049 77.2501 78.8929 78.7106C61.8533 78.1147 44.7122 78.509 27.8045 79.8855C21.7343 80.3794 15.4901 81.0458 10.3996 83.0422C5.30919 85.0386 1.65151 88.7043 3.07688 92.1909C4.06064 94.5978 7.28331 96.5303 11.01 97.7013C14.7367 98.8717 18.9552 99.3791 23.1269 99.7884C67.3656 104.134 112.75 99.052 157.491 100.95C162.497 101.162 167.916 101.573 171.481 103.64C132.882 99.3057 93.0758 104.142 53.8153 103.055C45.0766 102.814 36.3703 102.278 27.6699 101.743C20.5486 101.304 13.0874 100.795 7.21266 98.3996C4.38603 97.2471 2.01663 95.6551 0.834136 93.7623C-2.09511 89.0728 3.0742 83.7153 10.3583 81.113C17.6423 78.5107 26.4813 77.9955 34.9814 77.543C28.0343 74.7626 25.9687 68.905 28.9745 64.3057C31.9801 59.7059 39.1292 56.3526 46.9646 54.5522C54.8 52.7523 63.3372 52.3178 71.7455 52.0859C69.266 50.1864 66.7491 48.2471 65.3629 45.9987C63.9767 43.7498 63.8743 41.1015 66.0866 39.0911C67.6241 37.6934 70.0912 36.7475 72.5525 35.9165C96.0981 27.9695 124.561 27.0467 151.736 27.4409C159.12 27.5479 166.745 27.7719 173.386 29.6635C183.689 32.5985 189.951 39.3846 190.013 46.0872C190.076 52.7904 184.532 59.2584 176.382 63.9708C175.073 62.9102 176.709 61.4995 178.143 60.496C184.783 55.8469 188.554 49.6488 187.141 43.6484C185.729 37.6475 178.691 32.0346 168.879 30.0975C164.779 29.2883 160.402 29.1175 156.081 28.9887C127.979 28.151 98.5288 29.0117 73.9176 36.9895C70.8877 37.9711 67.7381 39.211 66.6821 41.1402Z" fill="#00160A"/>
<path fill-rule="evenodd" clip-rule="evenodd" d="M256.849 156.752C237.455 145.97 215.065 135.055 209.842 119.705C219.428 134.105 240.713 144.472 259.381 155.407C278.049 166.341 295.732 179.98 294.578 195.42C325.102 191.522 356.733 190.608 387.765 192.728C390.946 184.348 400.206 177.293 407.472 169.835C425.483 151.346 431.572 129.822 437.359 108.813C438.822 103.502 427.705 100.354 418.792 99.0252C409.891 97.698 400.989 96.3714 392.087 95.0447C375.358 92.551 358.026 90.04 341.01 91.7452C329.504 92.8977 318.141 95.9648 306.633 94.8168C288.315 92.989 268.881 95.3035 253.244 101.176C245.383 104.128 238.469 108.139 229.816 110.114C211.079 114.39 200.318 119.569 184.277 131.391C178.233 113.101 188.417 94.3828 200.324 77.1051C213.634 57.7902 230.342 38.2484 258.979 25.8769C300.966 7.73905 362.409 9.58929 406.085 26.3064C449.761 43.0235 476.449 72.2707 485.073 102.383C486.076 105.886 486.788 109.676 483.968 112.821C481.15 115.967 473.385 117.786 468.789 115.466C464.872 113.488 460.701 111.437 455.619 110.868C450.535 110.298 444.369 111.843 443.383 114.815C436.166 136.58 428.587 158.899 408.534 177.712C403.312 182.612 397.232 187.29 393.911 192.727C391.37 196.887 390.551 201.329 389.751 205.722C388.082 214.876 386.413 224.03 384.745 233.183C384.042 237.042 383.062 241.243 378.257 243.918C373.668 246.473 366.84 246.932 360.53 247.26C340.04 248.325 319.549 249.389 299.059 250.454C295.395 250.644 291.24 250.741 288.563 249.265C286.501 248.127 285.93 246.365 285.525 244.724C282.646 233.079 282.647 221.191 285.527 209.546C289.658 192.838 276.876 175.743 256.742 163.648C246.25 157.344 233.877 152.191 223.401 145.878C212.926 139.565 204.159 131.63 203.53 122.84C210.658 134.393 223.794 144.651 240.742 151.902C266.07 162.736 284.116 179.244 290.304 197.238C295.168 181.848 276.242 167.535 256.849 156.752ZM300.348 92.6933C308.589 93.1637 317.219 94.3621 324.909 92.5678C345.619 87.7362 369.644 87.9915 390.04 93.2606C398.745 95.5095 408.544 95.6333 417.917 96.5931C427.291 97.5524 437.186 99.7403 441.96 104.556C447.319 109.964 463.069 108.47 469.172 113.6C471.703 115.728 477.93 114.917 480.326 112.737C482.722 110.556 482.399 107.749 481.863 105.176C477.503 84.2306 464.389 63.6937 441.759 47.2622C419.128 30.8307 386.664 18.7475 351.047 15.4066C315.43 12.0662 276.999 17.9714 250.638 32.3746C234.682 41.0921 223.615 52.4013 213.891 63.8365C196.955 83.7518 183.092 105.494 185.827 127.68C197.194 119.634 209.542 111.192 226.59 108.112C230.662 107.376 235.122 106.903 238.212 105.187C254.59 96.0897 277.869 91.4086 300.348 92.6933ZM318.564 229.964C318.502 235.312 319.872 240.666 322.609 245.77C322.842 246.206 323.132 246.674 323.794 246.916C324.437 247.151 325.258 247.106 326.011 247.053C335.174 246.412 344.337 245.772 353.499 245.13C353.835 245.107 354.21 245.071 354.412 244.911C354.62 244.746 354.557 244.517 354.483 244.316C352.834 239.782 351.185 235.248 349.536 230.714C349.443 230.459 349.338 230.19 349.029 230.001C348.651 229.769 348.063 229.715 347.521 229.674C338.52 229.008 329.429 228.76 320.361 228.933C319.831 228.944 319.236 228.972 318.888 229.206C318.589 229.407 318.568 229.697 318.564 229.964ZM347.643 211.064C347.343 210.824 346.771 210.775 346.263 210.749C337.024 210.271 327.703 210.349 318.492 210.983C317.958 211.019 317.393 211.066 316.981 211.267C316.304 211.596 316.298 212.191 316.351 212.705C316.658 215.758 316.965 218.81 317.273 221.862C317.347 222.607 317.843 223.59 319.118 223.554C328.152 223.288 337.225 223.482 346.2 224.131C347.435 224.221 347.912 223.224 347.91 222.496C347.9 218.899 347.889 215.303 347.879 211.706C347.878 211.483 347.868 211.244 347.643 211.064ZM290.377 231.801C289.68 231.986 288.966 232.193 288.494 232.546C287.742 233.107 287.773 233.889 287.841 234.601C288.078 237.099 288.314 239.596 288.551 242.095C288.671 243.359 288.798 244.644 289.53 245.835C290.263 247.027 291.701 248.132 293.73 248.573C295.402 248.937 297.252 248.815 299.022 248.687C302.372 248.447 305.722 248.206 309.071 247.965C310.447 247.867 311.871 247.758 313.048 247.33C309.908 241.752 307.822 235.972 306.839 230.128C306.77 229.719 305.83 229.623 305.128 229.649C300.043 229.836 295.018 230.569 290.377 231.801ZM380.505 225.111C381.496 221.526 382.488 217.941 383.48 214.355C383.567 214.041 383.641 213.69 383.325 213.43C383.004 213.167 382.401 213.096 381.855 213.044C374.594 212.362 367.314 211.746 360.02 211.197C359.472 211.156 358.808 211.143 358.492 211.408C358.303 211.566 358.31 211.774 358.323 211.967C358.587 215.705 358.851 219.443 359.115 223.181C359.139 223.522 359.193 223.904 359.63 224.13C359.938 224.291 360.369 224.335 360.776 224.374C366.9 224.952 373.023 225.531 379.147 226.109C379.948 226.185 380.374 225.581 380.505 225.111ZM316.845 203.96C316.714 204.373 316.669 204.902 317.298 205.104C317.599 205.202 317.966 205.185 318.309 205.166C327.912 204.626 337.514 204.087 347.117 203.547C347.612 203.52 348.134 203.485 348.534 203.312C349.078 203.075 349.245 202.649 349.373 202.26C350.156 199.891 350.938 197.522 351.721 195.153C351.832 194.816 351.9 194.405 351.443 194.19C351.123 194.041 350.67 194.053 350.262 194.073C341.058 194.524 331.852 194.975 322.646 195.426C321.895 195.462 321.11 195.505 320.474 195.743C319.397 196.144 319.073 196.961 318.839 197.696C318.175 199.784 317.509 201.871 316.845 203.96ZM360.109 196.168C359.75 198.221 359.39 200.275 359.03 202.329C358.97 202.668 358.92 203.03 359.201 203.327C359.617 203.767 360.576 203.895 361.423 203.978C369.128 204.738 376.833 205.496 384.538 206.256C384.858 206.287 385.198 206.317 385.496 206.243C386.064 206.1 386.19 205.671 386.231 205.31C386.538 202.659 386.607 199.999 386.437 197.344C386.408 196.887 386.367 196.418 386.049 195.999C385.083 194.73 382.21 194.52 379.834 194.492C374.272 194.425 368.71 194.359 363.148 194.293C362.572 194.286 361.968 194.283 361.457 194.44C360.455 194.747 360.224 195.51 360.109 196.168ZM442.136 108.803C438.16 111.835 437.07 115.793 436.06 119.569C430.951 138.666 424.328 158.206 406.364 174.43C400.209 179.988 392.539 185.475 391.669 192.078C395.058 185.205 404.443 180.003 410.886 173.922C415.612 169.461 418.766 164.499 421.656 159.53C428.629 147.536 434.244 135.271 438.449 122.843C439.961 118.375 441.452 113.675 446.37 110.143C444.701 110.134 443.063 109.615 442.136 108.803ZM304.284 224.265C304.818 224.184 305.39 224.089 305.738 223.838C306.109 223.569 306.127 223.193 306.126 222.846C306.119 219.551 306.111 216.255 306.104 212.959C306.104 212.722 306.091 212.464 305.835 212.281C305.466 212.017 304.783 212.027 304.204 212.063C299.733 212.35 295.306 212.864 290.988 213.6C290.482 213.686 289.951 213.785 289.591 214.011C289.178 214.27 289.072 214.645 288.989 214.996C288.15 218.554 287.815 222.153 287.988 225.744C288.002 226.037 288.075 226.384 288.52 226.518C288.827 226.612 289.199 226.562 289.534 226.511C294.451 225.763 299.367 225.014 304.284 224.265ZM376.292 242.02C379.548 239.73 379.577 236.463 379.443 233.486C379.417 232.907 378.251 232.619 377.289 232.48C372.144 231.738 366.917 231.19 361.652 230.841C361.191 230.81 360.686 230.787 360.302 230.939C359.715 231.171 359.721 231.669 359.797 232.081C360.511 235.924 361.875 239.727 363.864 243.414C364.095 243.842 364.398 244.313 365.092 244.506C365.466 244.61 365.896 244.613 366.308 244.606C370.058 244.543 373.893 243.707 376.292 242.02ZM297.622 197.688C296.343 197.903 295.038 198.156 294.031 198.665C293.074 199.148 292.466 199.824 291.993 200.509C290.49 202.685 290.149 205.067 289.823 207.406C289.798 207.585 289.782 207.782 289.969 207.924C290.248 208.138 290.802 208.109 291.254 208.06C295.152 207.633 299.048 207.205 302.945 206.778C304.055 206.656 305.283 206.491 305.913 205.943C306.341 205.57 306.395 205.096 306.434 204.648C306.673 201.955 306.911 199.261 307.15 196.568C303.928 196.789 300.739 197.164 297.622 197.688ZM319.499 209.22C328.009 208.682 336.607 208.615 345.139 209.023C346.107 209.069 347.169 209.107 347.953 208.772C349.181 208.246 349.015 207.165 348.722 206.292C348.645 206.064 348.557 205.823 348.285 205.655C347.85 205.385 347.125 205.397 346.494 205.428C337.977 205.846 329.46 206.264 320.943 206.681C319.768 206.739 318.513 206.815 317.601 207.251C316.689 207.689 316.393 208.626 317.333 209.042C317.929 209.306 318.756 209.267 319.499 209.22ZM384.343 208.824C383.319 208.212 381.779 208.033 380.337 207.883C373.964 207.221 367.59 206.558 361.216 205.896C360.384 205.809 359.363 205.764 358.862 206.162C358.644 206.336 358.584 206.558 358.529 206.771C358.258 207.832 358.481 209.309 360.299 209.449C367.544 210.008 374.789 210.566 382.035 211.124C382.753 211.18 383.525 211.23 384.166 211.033C385.463 210.635 385.366 209.437 384.343 208.824ZM310.915 229.859C310.483 230.553 310.699 231.32 310.924 232.046C312.297 236.488 313.789 240.919 315.497 245.321C315.728 245.914 315.982 246.531 316.656 246.995C317.33 247.458 318.559 247.705 319.437 247.38C320.757 246.891 320.27 245.721 319.702 244.869C316.771 240.472 315.938 235.698 315.533 230.984C315.462 230.156 315.19 229.146 313.86 228.86C312.676 228.605 311.347 229.165 310.915 229.859ZM378.816 230.678C380.359 230.334 379.293 228.794 380.396 228.075C373.989 227.14 367.456 226.499 360.878 226.159C359.326 226.079 358.607 227.447 359.531 228.181C360.455 228.914 362.144 229.123 363.678 229.278C365.062 229.418 366.445 229.558 367.829 229.698C371.076 230.027 374.324 230.355 377.571 230.683C377.986 230.725 378.423 230.766 378.816 230.678ZM321.008 227.309C328.96 227.036 336.957 227.211 344.852 227.831C346.428 227.955 348.617 227.846 348.828 226.924C349.047 225.969 346.847 225.549 345.203 225.502C337.213 225.269 329.207 225.236 321.213 225.404C319.797 225.433 317.856 225.853 318.229 226.653C318.515 227.266 319.925 227.346 321.008 227.309ZM351.539 211.628C351.165 212.084 351.155 212.608 351.152 213.113C351.135 215.962 351.117 218.811 351.1 221.66C351.096 222.291 351.101 222.947 351.555 223.52C352.009 224.094 353.048 224.56 354.112 224.451C355.877 224.268 356.204 222.885 356.105 221.839C355.823 218.808 355.539 215.777 355.257 212.746C355.187 212.001 354.854 211.064 353.604 210.912C352.759 210.809 351.912 211.173 351.539 211.628ZM356.972 231.34C356.619 230.744 355.802 230.195 354.733 230.108C353.665 230.022 352.486 230.583 352.691 231.203C353.943 234.975 355.196 238.748 356.448 242.52C356.742 243.404 357.146 244.387 358.449 244.865C359.752 245.344 362.017 244.702 361.529 243.848C359.551 240.385 357.558 236.861 357.349 233.212C357.312 232.582 357.326 231.936 356.972 231.34ZM313.387 223.292C313.968 222.684 313.922 221.946 313.86 221.251C313.643 218.824 313.427 216.397 313.211 213.971C313.144 213.217 313.032 212.397 312.161 211.841C311.288 211.284 309.377 211.279 308.957 211.993C308.846 212.183 308.858 212.389 308.869 212.589C309.067 215.836 309.266 219.083 309.463 222.329C309.497 222.892 309.602 223.537 310.382 223.867C311.347 224.274 312.805 223.9 313.387 223.292ZM310.403 196.736C309.3 197.627 309.25 198.808 309.244 199.908C309.234 201.423 309.224 202.939 309.215 204.455C309.21 205.267 309.718 206.377 311.101 206.298C312.183 206.236 312.614 205.463 312.794 204.836C313.602 202.022 314.41 199.208 315.218 196.394C314.085 195.517 311.505 195.845 310.403 196.736ZM302.818 228.35C303.956 228.291 305.225 228.233 305.992 227.739C306.761 227.245 306.282 226.19 305.149 226.281C301.655 226.561 298.161 226.841 294.667 227.121C292.855 227.266 290.932 227.44 289.551 228.142C288.171 228.843 287.714 230.27 289.127 230.949C293.28 229.497 297.998 228.601 302.818 228.35ZM290.081 210.049C289.036 210.631 288.85 211.801 290.084 212.236C294.084 211.455 298.228 210.925 302.42 210.657C303.453 210.591 304.549 210.528 305.376 210.161C306.204 209.793 306.569 208.999 305.82 208.578C305.229 208.245 304.289 208.294 303.479 208.365C300.344 208.64 297.209 208.915 294.074 209.19C292.648 209.315 291.125 209.467 290.081 210.049ZM355.434 194.388C355.065 194.618 354.953 194.947 354.857 195.258C354.12 197.627 353.384 199.995 352.648 202.364C352.515 202.793 352.433 203.31 353.003 203.589C353.586 203.873 354.538 203.699 354.998 203.345C355.459 202.991 355.559 202.526 355.644 202.084C356.1 199.709 356.557 197.334 357.013 194.96C357.054 194.747 357.083 194.508 356.857 194.339C356.521 194.092 355.803 194.158 355.434 194.388ZM354.057 225.762C352.526 225.652 351.04 226.797 351.995 227.506C352.663 228.002 353.447 228.508 354.502 228.643C355.556 228.778 356.868 228.329 356.767 227.7C356.622 226.802 355.589 225.871 354.057 225.762ZM354.663 207.577C355.18 206.851 355.304 205.69 353.969 205.599C353.447 205.564 352.953 205.751 352.595 205.976C350.933 207.021 351.791 209.015 354.102 209.474C354.843 208.974 355.105 208.245 354.769 207.614C354.401 206.922 354.188 208.245 354.663 207.577ZM313.303 208.906C312.992 208.238 312.043 207.609 310.858 207.602C309.323 207.593 308.318 208.868 309.327 209.545C310.336 210.222 312.633 209.814 312.827 208.924C312.999 208.134 313.66 209.674 313.303 208.906ZM314.239 227.284C314.604 227.102 314.865 226.851 314.974 226.579C313.963 225.918 312.192 225.704 310.816 226.076C310.512 226.159 310.217 226.273 310.044 226.441C309.548 226.922 310.37 227.57 311.318 227.662C312.266 227.754 313.194 227.483 314.045 227.221L314.239 227.284Z" fill="#00160A"/>
</svg>
