<svg width="493" height="237" viewBox="0 0 493 237" fill="none" xmlns="http://www.w3.org/2000/svg">
<path fill-rule="evenodd" clip-rule="evenodd" d="M301.75 62.5307C307.736 60.4953 311.231 56.8463 314.69 53.2343C315.211 52.6911 315.73 52.1489 316.257 51.6131C316.61 51.2543 316.995 50.8845 317.389 50.5075V50.5072C318.427 49.5111 319.517 48.4647 320.197 47.4401C320.495 46.992 320.753 46.3345 321.012 45.67C321.319 44.8863 321.629 44.0928 322.014 43.6228C322.855 42.5962 329.238 42.1289 333.585 41.8108C335.02 41.7056 336.235 41.617 336.953 41.5293C344.594 40.6007 353.726 40.0438 359.97 43.6665C361.454 44.5275 363.116 45.3217 364.785 46.1185C366.785 47.0736 368.793 48.0327 370.511 49.1154C373.271 50.8542 376.986 53.7792 378.297 56.1022C371.571 56.8873 360.395 59.2923 357.716 63.5671C347.857 58.086 343.695 67.2154 341.511 72.0059C341.378 72.2981 341.252 72.5746 341.133 72.8302C335.763 71.423 336.042 67.1408 336.247 64.0052V64.0048C336.276 63.5654 336.303 63.1489 336.313 62.7656C336.327 62.1972 336.469 61.6049 336.608 61.0271C337.074 59.0901 337.501 57.317 332.933 57.1608C328.5 57.0099 324.195 58.1031 320.197 59.1267C315.21 60.4043 309.977 62.3151 305.948 64.5101L301.75 62.5307ZM292.062 53.9919C292.061 54.096 292.059 54.1998 292.058 54.3036C292.042 55.2271 292.027 56.1476 292.49 57.0378C292.758 57.5525 292.763 58.305 292.766 59.0276C292.769 59.5513 292.772 60.0596 292.875 60.4503C288.545 59.6521 280.501 58.4679 276.08 59.5446C271.854 60.5736 271.322 65.3328 271.173 67.6477C271.135 68.2326 271.27 68.9351 271.411 69.664C271.65 70.9013 271.902 72.2158 271.351 73.1662C270.926 73.8989 270.94 74.1155 270.968 74.1683C270.895 74.1424 270.563 74.1347 269.348 74.6658C268.807 74.902 268.218 75.0901 267.625 75.2789C266.92 75.504 266.21 75.7304 265.573 76.0415C263.878 76.8696 263.299 77.7857 262.605 78.8849C262.426 79.1684 262.239 79.4643 262.022 79.7741C261.001 81.2408 258.278 82.5442 255.238 82.4911C255.625 82.0665 256.035 81.6466 256.444 81.2277C258.621 79.0001 260.765 76.8057 259.127 74.1542C257.686 71.8221 260.135 69.0933 262.141 66.8586L262.258 66.7276C262.381 66.5905 262.731 66.2859 263.201 65.877C265.294 64.0569 269.758 60.1748 267.068 59.8449C265.156 59.6101 261.031 64.4453 259.506 66.2331C259.325 66.4454 259.18 66.6151 259.081 66.7276C256.461 65.655 255.285 64.3327 257.301 62.7172C258.014 62.1458 258.802 61.6126 259.591 61.0781C260.517 60.452 261.445 59.8241 262.258 59.1311C262.975 58.52 263.687 57.874 264.409 57.2199C266.148 55.6417 267.943 54.0144 269.997 52.7052C275.102 49.4534 284.014 47.2395 291.364 47.2197C291.199 48.4865 291.439 49.7036 291.68 50.9372C291.876 51.9333 292.073 52.9397 292.062 53.9919ZM270.986 74.1827C270.988 74.1807 270.984 74.174 270.968 74.1683C270.975 74.1817 270.983 74.1844 270.986 74.1827ZM312.795 105.949C314.244 104.106 315.51 102.495 316.257 101.681C320.775 96.7571 325.249 91.8752 329.485 86.8603C326.125 87.636 323.28 88.8252 320.398 90.0303C319.963 90.212 319.527 90.3937 319.089 90.5748C317.57 91.202 315.914 91.7681 314.248 92.3371C311.748 93.1918 309.229 94.0531 307.127 95.1368C306.651 95.3821 306.266 95.6538 305.899 95.9132C305.06 96.5048 304.316 97.0298 302.802 97.0208C301.768 97.0147 300.303 96.3677 298.993 95.7889C298.231 95.452 297.52 95.1382 296.978 94.9877C295.911 94.6921 295.031 94.3047 294.16 93.9217C293.179 93.4901 292.209 93.0638 290.998 92.7796C290.244 92.6025 289.629 92.5434 289.061 92.489C288.102 92.3969 287.282 92.318 286.17 91.7052C285.453 94.2708 275.495 93.0624 269.035 92.2783C266.89 92.018 265.131 91.8047 264.223 91.7916C263.878 91.7869 263.521 91.7805 263.153 91.7738C259.925 91.717 255.914 91.6465 253.101 92.3778C250.947 92.9378 248.401 94.2029 246.192 95.3004C245.338 95.7247 244.536 96.1235 243.825 96.4473C240.32 98.0434 237.821 100.078 235.241 102.288C231.93 105.122 236.875 104.849 240.442 104.652C240.688 104.638 240.928 104.625 241.157 104.613C249.289 104.195 257.191 105.024 265.029 106.149C272.03 107.154 278.398 108.696 285.101 110.326C286.342 110.628 288.599 111.337 291.144 112.137C296.332 113.768 302.72 115.777 304.159 115.48C305.529 115.196 309.605 110.009 312.795 105.949Z" fill="white" fill-opacity="0.84"/>
<path fill-rule="evenodd" clip-rule="evenodd" d="M358.229 74.0122C361.051 73.9248 363.861 74.3065 366.684 74.1402C364.233 72.8475 361.783 71.5551 359.332 70.2628C358.25 71.414 358.171 72.7239 358.229 74.0122ZM291.269 47.4402C283.964 47.4597 275.053 49.6819 269.978 52.9274C267.289 54.6474 265.067 56.9573 262.793 58.8896C261.268 60.1863 259.779 61.4377 257.927 62.5772C255.228 64.2377 256.001 64.6173 259.042 65.8677C260.005 64.7752 265.109 58.934 267.249 59.1967C270.499 59.5964 264.221 65.7663 263.536 66.5349C261.505 68.8092 258.225 71.9858 259.699 74.3844C261.643 77.5506 258.824 79.3549 256.376 82.0528C258.947 82.0979 259.2 81.4908 260.086 80.1628C261.224 78.4563 262.465 77.0306 264.871 75.8508C266.734 74.937 269.783 74.5524 270.658 73.4491C271.741 72.0856 271.061 69.393 271.149 67.8759C271.282 65.5707 271.292 60.1218 275.486 59.0976C279.88 58.0246 287.781 59.0357 292.076 59.8306C291.54 57.7992 289.848 56.4725 289.872 54.215C289.897 51.8521 290.971 49.7441 291.269 47.4402ZM235.148 85.1378C238.969 84.4051 242.592 83.6331 246.523 83.1339C250.637 82.6112 250.913 82.0132 253.232 79.8763C254.99 78.2564 257.123 76.994 256.625 75.0102C256.305 73.7377 255.155 73.1179 255.501 71.6868C255.716 70.7999 256.399 69.8318 256.893 68.9882C257.498 67.9535 258.753 66.7801 255.835 66.729C254.224 66.7005 254.145 67.2155 253.055 68.0799C251.042 69.6766 248.726 71.1265 246.584 72.658C242.865 75.317 238.921 78.1462 234.769 80.6073C230.198 83.3153 226.253 86.5813 223.299 90.0482C222.753 90.6885 219.436 94.4594 220.851 95.1988C222.151 95.878 229.38 94.2941 230.698 94.109C236.388 93.3091 242.846 93.0236 248.222 91.5706C250.961 90.8302 257.005 89.9467 259.168 88.8015C261.179 87.7369 261.088 85.1576 259.921 83.6569C256.655 84.8875 233.042 89.5305 235.148 85.1378ZM306.237 63.975C310.05 61.8892 314.557 60.2159 319.265 58.9759C323.476 57.867 328.708 56.6308 333.393 56.8233C339.23 57.0628 336.791 59.9105 336.77 62.3353C336.743 65.5533 334.414 70.1885 340.758 71.8581C342.829 67.4026 347.194 56.8669 357.651 62.7049C360.323 58.421 369.854 56.9711 376.566 56.1843C375.35 54.0199 371.654 52.0607 369.093 50.4361C365.889 48.404 363.36 46.0222 360.15 44.0284C353.809 40.0909 342.322 41.3554 334.294 42.337C331.615 42.6642 323.846 43.0754 322.548 44.2673C321.734 45.0147 322.189 46.8409 321.585 47.755C320.754 49.0141 319.333 50.1814 318.193 51.3445C314.035 55.5884 309.805 59.8598 302.689 62.29L306.237 63.975ZM329.507 86.8383C325.742 87.713 322.973 89.1761 319.633 90.4079C315.585 91.9019 310.837 93.301 307.203 95.146C305.873 95.8209 305.126 96.9866 303.291 97.0622C301.695 97.128 299.262 96.005 297.847 95.6123C295.473 94.9522 293.205 93.9521 290.82 93.3639C288.859 92.8804 287.991 92.9792 286.294 92.0389C285.343 95.4692 268.031 92.263 264.4 92.2106C261.04 92.1622 256.431 92.4034 253.304 93.2211C250.325 94.0005 247.995 95.7154 245.444 96.8838C241.949 98.4862 238.614 100.107 236.039 102.325C232.508 105.366 237.835 104.505 241.388 104.321C249.498 103.902 257.386 105.072 265.204 106.2C272.192 107.209 279.093 108.42 285.782 110.056C289.544 110.976 293.504 111.822 297.042 113.018C298.907 113.649 301.933 115.193 304.073 114.748C306.036 114.34 307.992 110.932 309.182 109.571C311.493 106.929 313.925 104.331 316.311 101.715C320.818 96.7729 325.282 91.8723 329.507 86.8383ZM283.178 152.246C285.498 151.439 289.281 151.656 291.846 151.318C294.746 150.936 297.661 150.313 300.425 149.664C303.225 149.007 305.87 148.335 308.428 147.513C309.598 147.137 311.157 146.766 312.238 146.245C313.11 145.824 313.427 145.043 314.231 144.662C316.326 143.666 316.942 144.291 317.223 142.37C317.528 140.285 315.596 139.103 313.191 137.542C311.037 136.145 308.24 134.938 305.534 133.955C304.337 133.521 303.058 133.032 301.837 132.617C299.989 131.989 297.512 130.944 296.542 132.293C298.562 132.605 299.007 134.167 297.184 134.728C296.183 135.037 294.668 134.584 293.539 134.911C291.797 135.418 290.121 136.829 288.629 137.589C283.733 140.086 279.051 141.022 272.643 141.222C259.253 141.64 245.232 140.715 232.1 139.514C228.72 139.204 225.346 139.539 221.935 139.465C218.615 139.394 215.155 138.954 211.892 138.614C205.607 137.961 198.983 137.422 192.796 136.461C185.314 135.297 177.806 133.792 170.781 131.843C164.042 129.973 156.426 126.883 148.857 126.645C152.087 128.56 156.927 129.298 160.812 130.56C163.987 131.59 168.953 132.252 170.959 133.95C172.265 135.055 172.92 137.085 173.906 138.381C174.997 139.815 176.004 141.273 177.014 142.728C178.028 144.193 179.085 145.658 179.909 147.167C180.419 148.103 180.639 150.043 181.843 150.683C183.765 151.704 190.198 152.157 192.788 152.497C197.624 153.132 203.14 153.047 208.072 153.091C210.11 153.109 212.165 153.278 214.112 153.3C216.848 153.332 216.587 153.046 216.548 151.607C216.525 150.744 216.554 149.173 218.461 149.884C219.761 150.369 218.867 152.516 218.626 153.279C229.513 153.935 240.873 154.266 251.709 154.046C262.365 153.83 272.652 152.997 283.178 152.246ZM332.346 137.11C334.268 128.755 336.608 120.261 339.229 112.014C341.877 103.681 345.061 95.4235 348.642 87.1215C346.277 86.7785 343.911 86.4365 341.545 86.0942C341.458 87.8434 340.481 89.3628 340.064 91.104C339.49 93.5073 338.391 95.8411 337.733 98.2366C336.484 102.79 334.168 107.245 332.129 111.686C330.05 116.213 329.355 120.876 327.445 125.426C325.871 129.174 325.067 133.303 324.187 137.156C322.055 146.504 319.016 155.87 316.704 165.223C314.535 173.992 314.317 182.939 314.442 191.789C314.519 197.193 315.88 202.581 315.809 207.992C315.791 209.329 315.977 210.662 316.092 211.998C316.173 212.94 315.337 215.552 316.046 216.341C316.494 216.84 318.422 217.301 319.104 217.995C320.183 219.093 320.41 220.405 322.144 221.235C323.549 217.803 322.885 213.274 322.578 209.771C322.281 206.396 322.858 202.908 322.971 199.481C323.193 192.759 323.781 186.136 324.35 179.41C324.974 172.035 326.748 164.48 328.481 157.16C330.057 150.504 331.108 143.73 332.346 137.11ZM280.927 32.3348C280.165 32.2914 279.404 32.2488 278.641 32.2058C278.755 33.178 278.416 34.7525 279.548 35.2598C280.405 35.6441 282.142 35.5178 283.181 35.6404C286.588 36.0438 290.536 36.3815 293.918 35.6464C295.233 35.3609 294.388 34.9138 296.198 35.0995C298.378 35.3239 297.582 35.5329 298.211 36.3563C298.696 36.9919 298.946 38.0736 299.496 38.8368C300.233 39.8577 301.726 41.6852 301.087 42.8644C300.467 44.0106 298.153 44.357 297.169 45.655C296.437 46.6202 296.61 48.023 296.23 49.0859C295.723 50.5036 295.082 51.9159 294.798 53.3597C294.442 55.1788 294.564 57.3134 298.286 57.5952C301.74 57.8576 304.209 57.1854 306.525 55.6619C310.949 52.7537 315.999 48.6486 318.598 44.9902C318.901 44.5629 319.648 43.8497 319.544 43.3921C319.338 42.4871 319.248 43.4032 318.775 42.7747C318.323 42.1737 317.613 41.6285 317.196 40.9616C315.696 38.5661 314.632 36.0549 314.03 33.5189C313.758 32.37 313.666 31.2352 313.713 30.0752C313.728 29.6792 314.121 28.49 313.887 28.2185C313.648 27.9437 312.404 27.8171 312.016 27.5443C311.296 27.0387 310.061 25.6113 309.265 25.2327C308.284 24.7678 306.092 25.1363 305.694 24.2111C305.057 22.731 320.129 20.32 313.088 18.3448C307.83 16.87 299.767 24.325 297.928 18.4588C297.61 17.4427 298.217 16.0634 297.481 15.1322C296.667 14.103 294.453 13.7182 292.907 13.2174C290.933 12.5788 288.94 11.9226 287.022 11.2232C285.706 10.7439 283.811 9.47099 282.41 9.35442C282.962 11.0821 281.905 12.7947 281.887 14.519C284.92 14.0219 287.008 14.0114 290.001 14.8953C291.427 15.3159 296.799 17.7033 294.077 18.8516C291.872 18.0623 289.514 17.3777 287.056 16.9136C286.086 16.7303 284.876 16.4811 283.845 16.4684C281.451 16.4393 281.789 16.5909 280.89 17.6839C280.024 18.7367 280.21 21.4826 278.308 22.155C276.342 22.8502 277.858 21.8771 276.179 22.1018C275.221 22.2302 274.178 22.6614 273.301 22.905C274.502 23.6948 276.927 24.4157 277.723 25.2928C278.886 26.5718 278.483 29.2166 278.665 30.6158C280.186 30.2859 281.788 30.2724 283.33 30.0275C284.78 29.7968 286.79 28.799 286.942 30.2661C287.11 31.9007 282.843 32.3348 280.927 32.3348ZM300.73 75.3768C300.848 73.9641 300.978 72.5518 301.237 71.1449C301.412 70.2003 302.893 67.4604 302.056 66.6306C301.146 65.728 298.095 65.6705 296.626 65.4538C293.812 65.0383 291.112 64.698 288.251 64.4235C285.619 64.1712 283.14 64.1181 280.489 64.0449C277.601 63.966 276.886 63.502 276.247 65.429C275.746 66.9444 275.073 68.5226 274.979 70.074C274.891 71.5303 275.618 72.7944 273.235 73.7757C278.467 73.7757 285.282 70.9541 290.057 73.477C296.887 77.085 285.001 78.1244 281.866 78.9209C284.472 79.6878 288.34 80.2902 289.566 82.0418C290.943 84.0053 288.946 84.8401 285.889 84.9973C286.177 85.7542 287.277 86.2457 287.605 87.1557C288.085 88.4897 286.528 88.048 288.515 89.0803C291.131 90.4389 296.516 91.3472 299.724 92.2126C300.476 92.4162 301.236 92.607 302.005 92.7857C303.207 93.4334 304.094 93.3101 304.667 92.4152C306.313 91.7843 307.778 90.3767 309.238 89.558C312.486 87.7359 316.071 86.1372 319.931 84.8216C318.33 84.4202 316.417 85.3272 314.881 84.8858C313.641 84.529 314.108 83.8797 313.365 83.3936C313.663 82.7597 313.348 82.5278 312.421 82.6982C311.958 82.7281 311.527 82.6804 311.128 82.5557C310.351 81.9729 310.002 81.7821 309.951 80.8821C309.896 79.9274 310.809 79.5904 311.16 78.8258C312.299 78.3559 312.273 77.8939 311.082 77.4411C310.592 76.9563 310.326 76.4306 310.281 75.8632C310.055 73.7572 313.229 72.9083 315.65 71.7943C311.315 71.5057 311.481 68.4269 314.48 67.0811C317.588 65.6856 324.17 66.2571 327.929 66.5718C328.71 66.6367 330.822 67.2474 331.612 66.858C332.097 66.6195 331.755 64.6022 331.777 64.2461C331.828 63.4379 332.153 62.4741 331.94 61.6698C331.495 59.9861 332.438 60.834 330.436 60.7873C325.673 60.6755 319.608 63.1936 315.417 64.3808C310.727 65.7098 307.713 65.9141 307.664 69.2093C307.617 72.3291 306.172 75.4379 305.542 78.5084C305.266 79.8491 305.069 86.8154 301.017 84.2448C299.446 83.2474 300.452 81.7142 300.569 80.4843C300.728 78.7922 300.634 77.0736 300.73 75.3768ZM38.6991 179.818C41.0183 180.067 44.7946 179.261 47.3245 179.176C51.7476 179.029 56.3027 178.774 60.6365 178.216C64.0267 177.78 67.8901 177.396 69.7184 175.409C71.353 173.632 71.9305 171.408 72.8108 169.469C73.2784 168.441 74.4848 166.948 74.4842 165.883C74.4837 164.499 74.1758 164.772 71.7923 164.014C68.7754 163.055 65.84 161.719 62.5856 161.176C61.6011 161.059 60.6159 160.945 59.6303 160.833C58.355 160.385 57.6356 160.605 57.4686 161.493C56.2239 162.288 55.4945 163.753 54.45 164.682C52.0693 166.802 49.2421 168.246 45.5484 169.468C38.9016 171.667 32.7085 173.364 25.5896 174.801C21.6663 175.594 18.0487 176.705 14.2139 177.579C11.1417 178.278 6.90172 178.491 4.54181 180.049C1.87908 181.806 5.97185 182.445 8.24667 183.633C10.1106 184.607 10.1469 184.83 12.6966 184.357C14.5961 184.005 16.2802 183.332 18.1041 182.875C24.3527 181.312 31.9153 180.272 38.6991 179.818ZM181.5 207.691C179.171 207.386 176.842 207.081 174.513 206.776C176.803 209.365 181.62 213.154 178.163 216.151C176.871 217.27 174.722 217.59 172.802 218.158C170.478 218.845 168.333 219.726 166.136 220.545C157.078 223.923 147.873 227.348 138.328 230.247C141.316 230.831 145.91 231.235 148.988 230.726C152.571 230.133 155.889 228.772 159.568 228.177C166.168 227.111 173.115 226.202 179.821 225.655C185.301 225.208 199.021 226.218 198.355 221.226C197.722 216.486 193.048 211.964 191.656 207.279C188.243 207.738 184.987 207.658 181.5 207.691ZM320.304 131.829C322.958 123.94 324.544 115.916 327.675 108.083C329.237 104.175 330.337 100.214 331.863 96.305C332.573 94.4866 333.109 92.65 333.801 90.8349C334.501 88.9973 336.008 87.3015 336.353 85.4018C333.816 85.7821 333.229 89.3004 332.461 90.6239C331.05 93.0521 329.512 95.3855 327.7 97.7105C324.819 101.406 321.762 104.971 318.512 108.554C315.085 112.333 311.466 115.966 307.185 119.417C305.778 120.551 303.869 121.44 302.962 122.683C301.537 124.64 300.937 126.972 299.576 129.008C300.535 129.303 303.012 129.376 304.188 129.517C306.376 129.778 307.908 130.011 310.01 130.641C313.711 131.751 316.821 133.066 319.294 135.063C319.915 134.038 320.077 132.914 320.304 131.829ZM217.134 192.027C217.09 184.428 216.912 176.765 217.118 169.223C217.174 167.128 217.456 164.869 217.958 162.791C218.272 161.484 220.125 158.707 218.907 158.081C217.866 157.546 212.372 157.898 211.023 157.879C208.409 157.843 205.802 157.772 203.181 157.653C203.181 160.469 204.998 163.667 205.842 166.452C206.629 169.051 207.275 171.664 207.925 174.274C209.33 179.927 209.73 185.658 211.256 191.326C212.639 196.465 214.464 201.583 215.469 206.721C216.021 209.542 217.138 212.203 218.006 215.022C218.459 216.492 220.112 222.547 222.193 223.142C222.634 220.97 220.836 218.347 220.514 216.151C220.182 213.884 219.924 211.601 219.317 209.322C218.604 206.646 218.244 203.904 217.971 201.195C217.804 199.538 217.753 197.885 217.517 196.229C217.346 195.027 216.595 193.205 217.134 192.027ZM282.518 90.4187C282.604 89.5913 279.068 89.6245 278.41 88.6735C277.073 86.7422 280.119 87.0899 281.991 86.89C281.323 85.816 268.823 86.207 271.736 83.3079C273.756 81.2963 281.417 84.3752 283.464 82.4637C284.81 81.2083 281.147 81.0353 279.695 80.9096C277.509 80.7198 272.361 81.3329 272.53 79.6153C272.743 77.4572 282.753 75.9677 285.561 75.3337C285.25 73.856 273.203 75.9566 271.459 76.5556C267.513 77.9114 264.49 80.3443 263.911 83.0479C263.236 86.1936 265.87 88.6711 271.058 89.4431C273.222 89.765 274.82 89.8009 276.821 90.2847C278.139 90.6028 282.401 91.3963 283.304 90.5934C283.041 90.5353 282.78 90.4768 282.518 90.4187ZM353.241 70.852C353.44 69.5086 355.308 66.9797 353.156 66.0972C350.145 64.8619 348.898 66.8974 348.216 68.1202C347.382 69.6131 343.875 73.2674 346.941 74.1976C347.654 74.414 351.035 74.1623 351.631 74.0196C353.292 74.2816 353.828 73.905 353.241 72.8885V70.852ZM279.767 179.338C279.578 175.667 282.293 171.253 283.831 167.656C285.575 163.582 286.494 159.426 288.341 155.396C286.286 155.547 284.212 155.669 282.181 155.918C279.411 156.259 279.361 156.206 279.561 157.851C279.857 160.323 279.468 162.746 279.258 165.217C278.836 170.164 279.864 175.191 279.18 180.107C279.79 180.201 279.985 179.944 279.767 179.338ZM356.467 83.1121C363.123 83.7292 369.502 85.0071 375.559 86.724C378.897 87.6704 382.574 88.6876 386.305 89.0655C390.45 89.4858 394.846 89.2886 399.078 89.4505C400.571 89.5076 404.493 89.9467 405.948 89.4152C407.389 88.8885 407.277 87.9962 407.344 86.9323C407.519 84.1961 405.474 81.517 403.635 79.062C402.058 76.9557 400.865 75.3475 398.417 73.5358C395.274 71.2088 392.536 68.6976 389.593 66.2688C387.373 64.4383 385.13 62.6336 382.868 60.8051C381.25 59.4956 381.326 59.0452 378.887 59.1916C376.485 59.3361 374.067 60.1961 371.804 60.6516C368.446 61.3282 364.379 61.6994 361.317 62.7811C359.337 63.4805 359.249 63.6092 359.272 64.8297C359.294 65.9665 359.899 67.3532 361.021 68.2424C363.354 70.0888 367.221 71.066 370.539 71.9871C372.459 72.5196 374.118 73.2755 375.827 74.0102C377.668 74.8023 381.383 75.2689 382.792 76.1719C386.894 78.8016 379.426 78.2819 377.34 78.2027C372.838 78.031 368.36 78.0572 363.824 78.0552C358.874 78.0532 353.962 77.9137 349.082 78.0112C346.223 78.0683 342.943 77.1901 341.091 75.7265C340.194 75.0173 339.845 74.3471 338.672 73.6114C337.135 72.6483 335.799 71.6334 333.929 70.888C330.87 69.6682 325.312 68.9781 321.67 69.4333C322.974 69.5435 329.107 70.808 326.407 72.3973C326.078 72.5908 322.133 72.7175 321.276 72.956C319.729 73.3863 317.779 74.0118 316.871 74.9206C319.514 74.6525 329.314 74.3421 324.314 77.4129C323.087 78.1667 319.563 78.9189 322.562 79.7204C323.25 79.9045 324.629 79.6438 325.515 79.8098C326.833 80.057 327.91 80.7178 329.145 81.0702C332.647 82.0706 337.474 82.6874 341.128 82.4684C346.182 82.1647 351.448 82.7113 356.467 83.1121ZM222.455 175.638C222.627 180.049 222.364 184.486 222.52 188.918C222.686 193.65 223.689 198.288 224.166 202.973C224.595 207.171 225.531 211.29 226.292 215.469C226.729 217.876 227.234 220.178 227.906 222.566C228.536 224.802 228.644 226.771 224.231 227.372C215.795 228.522 214.484 221.172 212.854 218.075C210.42 213.453 208.86 208.601 207.654 203.81C205.409 194.887 202.423 186.088 201.259 177.089C200.541 171.547 199.501 166.063 198.911 160.526C198.795 159.441 199.252 157.77 197.679 157.287C196.733 156.997 194.127 156.994 192.933 156.784C189.605 156.198 186.536 155.335 183.29 154.439C185.594 161.736 186.355 168.996 188.083 176.357C189 180.262 190.755 184.31 192.276 188.154C193.852 192.137 194.202 196.426 196.02 200.323C196.821 202.041 197.498 202.74 196.336 204.503C194.911 206.667 195.857 207.185 197.644 209.31C200.933 213.22 203.444 217.834 202.886 222.242C202.431 225.842 197.94 227.726 192.377 228.698C185.418 229.912 178.131 229.769 171.13 231.148C165.03 232.349 158.833 233.237 152.909 234.823C150.521 235.463 148.252 236.222 145.6 236.339C141.962 236.499 139.509 235.221 136.074 234.954C133.927 234.788 130.783 235.409 129.546 234.045C128.565 232.965 129.675 230.606 130.906 229.737C134.364 227.292 141.289 225.162 145.952 223.719C151.327 222.056 156.528 219.975 161.508 217.829C164.527 216.528 167.605 215.28 170.621 213.976C172.616 213.113 173.374 213.108 173.171 211.737C173.008 210.645 172.195 209.584 172.053 208.465C171.944 207.608 172.44 206.439 171.771 205.88C171.279 205.468 169.432 205.176 168.706 204.864C166.05 203.724 165.446 202.313 164.24 200.579C161.501 196.639 158.354 192.81 155.708 188.839C150.028 180.313 146.563 171.348 141.854 162.647C137.044 153.759 132.742 144.428 130.093 135.206C126.548 135.859 123.202 138.75 120.379 140.181C116.564 142.114 112.656 143.984 108.916 145.97C102.785 149.226 96.5769 152.392 91.5104 156.292C89.0692 158.17 87.0707 160.191 84.8608 162.164C83.5844 163.304 82.3941 164.594 81.0118 165.679C80.7899 165.853 80.7833 166.21 80.5442 166.358C80.0178 166.684 79.0122 166.25 78.6749 166.465C76.5915 167.784 76.6187 171.53 75.9697 173.271C75.075 175.67 74.0704 178.429 70.9775 180.082C66.1994 182.636 57.3882 183.032 51.3416 183.164C43.5815 183.334 36.0538 184.644 28.6915 186.051C25.2574 186.706 21.9132 187.474 18.4663 188.111C16.4838 188.478 14.2223 189.209 12.1051 189.068C9.55186 188.899 7.53584 187.598 5.6656 186.631C2.67362 185.084 -0.0964879 183.559 0.00257924 181.02C0.107914 178.334 2.5111 176.306 6.29689 174.971C13.6161 172.391 21.8022 170.737 29.6916 168.954C32.7146 168.27 35.3028 167.514 38.1933 166.594C42.278 165.293 46.9795 164.231 50.6038 162.514C51.6722 162.007 55.5993 160.455 55.9338 159.654C55.9776 159.55 54.9964 158.327 54.992 158.133C54.9825 157.634 55.4701 157.094 55.7702 156.667C57.6578 153.98 60.824 151.392 63.2446 148.857C67.6777 144.215 72.1279 139.549 77.2677 135.183C87.5166 126.478 99.0297 117.955 111.456 110.357C117.514 106.653 122.748 102.451 128.891 98.798C131.325 97.3511 133.895 96.1726 136.893 95.2334C140.236 94.1866 143.989 93.9813 147.821 93.6615C157.106 92.8875 164.861 94.5511 173.578 95.9986C181.82 97.3669 190.07 98.5212 198.358 99.9466C207.459 101.512 216.467 103.013 225.54 104.719C230.387 105.63 235.374 106.19 240.245 107.064C242.59 107.485 251.457 110.122 253.412 109.256C247.252 107.505 240.942 105.91 234.352 104.853C232.411 104.542 231.171 104.887 231.243 103.537C231.283 102.801 232.649 101.807 233.14 101.201C234.318 99.7504 235.651 98.3324 236.804 96.8774C232.626 97.596 221.396 100.083 218.248 97.512C214.953 94.8212 217.703 89.5459 219.769 86.9115C225.159 80.0345 234.326 74.2957 243.259 69.1115C245.192 67.9908 249.357 66.5272 250.387 65.0994C250.7 64.6654 250.018 64.0278 250.725 63.4641C251.145 63.1285 252.832 62.8994 253.507 62.5379C255.963 61.221 257.923 58.4502 259.62 56.7238C261.397 54.9158 262.999 52.958 265.232 51.3357C268.886 48.6832 272.658 45.8714 278.574 45.2509C281.475 44.9469 284.557 45.1091 287.338 44.5021C290.701 43.7681 293.896 42.6118 297.292 41.8515C296.45 40.8027 295.767 39.1345 294.132 39.0199C292.559 38.9094 290.25 39.7287 288.449 39.7227C285.819 39.714 283.573 39.4593 281.034 39.1556C278.224 38.819 277.299 38.8802 276.275 37.0342C275.201 35.1005 275.471 32.8545 275.48 30.8459C275.484 29.8646 275.806 28.6462 275.668 27.6827C275.461 26.2311 274.995 26.1754 273.116 25.2522C270.769 24.0989 267.875 22.5728 270.75 20.5688C272.304 19.4859 275.497 20.328 276.873 19.1645C278.275 17.9795 278.207 15.0025 278.634 13.6106C274.313 14.897 275.897 10.088 275.897 8.93084C275.896 7.24702 274.033 4.21898 276.715 2.81815C277.961 2.16778 278.887 2.70581 280.312 2.33205C281.938 1.90551 282.962 0.786771 284.692 0.353042C288.131 -0.509309 291.642 0.529174 295.172 0.357712C299.222 0.161323 303.2 -0.217917 307.272 0.175667C309.201 0.361508 310.013 0.805349 311.645 1.30287C313.215 1.78135 314.808 1.91226 316.512 2.22015C318.03 2.49424 319.36 2.63275 320.385 3.43345C321.195 4.06697 320.865 5.13246 321.683 5.67852C322.491 6.21656 324.088 6.13842 325.049 6.77741C325.973 7.39063 326.525 8.40419 327.006 9.16734C327.654 10.1953 327.73 10.5813 328.872 11.4039C329.868 12.1219 331.301 12.6992 332.132 13.5181C334.09 15.4485 334.14 18.2401 333.515 20.4116C333.303 21.1511 331.533 23.0626 331.81 23.6918C332.073 24.2907 333.733 24.1332 334.485 24.5121C335.134 24.8393 335.705 26.2976 336.217 26.3867C337.323 26.5788 338.688 25.2556 339.527 25.057C340.983 24.712 341.593 24.3583 342.4 25.6587C342.998 26.6235 342.165 27.9333 341.726 28.8541C341.168 30.0265 340.551 31.4385 339.072 32.325C337.334 33.3671 335.942 32.7973 334.024 33.3587C331.149 34.1999 331.997 36.8303 328.46 37.5821C325.089 38.2983 321.375 36.0449 318.826 35.0088C319.354 37.5237 321.342 39.9471 320.388 42.5244C328.141 40.6848 335.809 38.0739 344.258 37.4988C348.566 37.2052 352.918 36.8578 356.985 37.9409C361.746 39.2087 364.662 42.0054 367.885 44.3291C373.94 48.6963 380.154 52.9408 385.966 57.4488C391.297 61.5838 395.791 66.375 401.659 70.247C407.609 74.1731 412.1 80.5435 411.448 85.9803C411.39 86.4711 410.762 87.5861 410.86 88.1152C410.937 88.5206 411.545 89.0346 411.535 89.3615C411.502 90.4617 410.902 91.0953 409.17 91.7053C406.168 92.7642 401.696 93.3 398.304 93.5627C393.796 93.9121 388.277 93.9497 383.767 93.5768C379.116 93.1915 375.028 91.615 370.751 90.6622C367 89.8261 363.232 89.3041 359.29 88.7706C357.116 88.4763 354.708 87.6617 353.364 88.4501C352.131 89.1747 351.875 92.8929 351.587 93.8815C348.468 104.598 344.762 114.951 341.479 125.612C337.759 137.696 335.215 149.776 332.627 161.963C330.276 173.041 329.507 184.244 328.981 195.312C328.73 200.591 328.694 205.814 328.747 211.098C328.777 214.057 331.219 223.934 323.977 224.312C319.72 224.535 316.316 220.839 315.175 218.824C313.462 215.796 312.569 212.535 312.296 209.354C311.743 202.914 311.019 196.47 310.59 190.028C310.125 183.049 310.716 175.941 311.664 168.984C312.617 161.981 315.019 155.081 315.756 148.067C313.546 149.978 312.838 150.337 309.156 151.169C305.304 152.04 301.597 153.07 297.709 153.883C296.387 154.159 294.323 154.332 293.239 154.784C291.238 155.619 292.552 154.672 291.913 156.296C291.231 158.031 291.102 160.115 290.921 161.898C290.07 170.266 286.242 178.575 284.476 186.899C284.05 188.909 284.658 197.44 278.947 194.751C274.549 192.681 274.636 186.177 274.01 183.13C273.177 179.069 273.641 174.894 273.773 170.808C273.923 166.155 274.052 161.274 275.886 156.731C272.605 156.391 268.043 157.317 264.742 157.473C261.883 157.608 259.034 157.694 256.191 157.788C249.412 158.014 242.429 158.193 235.536 158.113C234.28 158.098 226.082 157.403 225.034 157.963C224.694 158.145 224.589 160.649 224.526 160.955C224.285 162.105 223.958 163.254 223.713 164.398C222.935 168.055 222.232 171.982 222.455 175.638Z" fill="#107F07" fill-opacity="0.6"/>
<path fill-rule="evenodd" clip-rule="evenodd" d="M344.209 210.391C349.384 211.615 354.874 212.06 360.092 213.175C364.756 214.173 369.088 215.513 373.681 216.527C373.949 215.237 374.093 213.052 373.305 211.836C372.192 210.113 369.26 210.071 366.374 209.458C359.348 207.965 351.958 207.65 344.983 205.906C346.177 207.298 345.644 209.142 344.209 210.391ZM433.52 205.887C422.346 206.086 411.668 207.661 400.655 208.635C395.297 209.108 389.933 209.531 384.569 209.973C382.505 210.143 378.743 209.943 377.243 211.025C375.999 211.922 377.362 214.982 376.809 216.295C379.068 216.397 383.078 215.119 385.529 214.907C389.347 214.578 393.113 214.118 396.97 213.971C403.078 213.738 409.079 213.54 415.177 213.128C421.378 212.71 427.379 211.932 433.629 211.647C436.667 211.509 437.889 211.854 438.068 209.911C438.138 209.152 438.31 207.881 437.959 207.131C438.521 206.211 438.022 205.764 436.463 205.79C435.473 205.723 434.492 205.755 433.52 205.887ZM411.908 199.688C414.93 199.516 417.965 199.27 420.994 199.167C421.608 199.146 424.724 199.259 425.233 198.913C425.953 198.424 425.15 196.634 425.018 196.081C424.569 194.198 424.073 193.103 420.681 193.099C417.819 193.094 414.855 193.461 412.004 193.63C399.062 194.398 386.185 194.723 373.385 196.182C374.164 198.191 375.048 200.264 374.116 202.319C380.257 202.511 386.998 201.795 392.999 201.061C399.132 200.311 405.64 199.939 411.908 199.688ZM391.424 180.768C386.799 180.781 381.912 182.014 377.349 181.739C377.281 182.254 378.741 181.827 379.145 182.308C380.006 182.309 380.306 182.479 380.043 182.82C380.059 183.051 379.864 183.187 379.455 183.227C379.254 183.238 379.053 183.248 378.852 183.258C377.97 183.276 377.825 183.636 378.419 184.34C378.164 185.213 378.547 186.322 378.602 187.198C386.802 186.522 394.769 185.819 403.027 185.517C406.925 185.375 410.821 185.375 414.715 185.181C418.998 184.967 423.675 185.426 427.863 184.94C430.102 184.68 429.868 184.698 429.704 182.935C429.605 181.864 429.642 180.592 428.202 179.81C425.796 178.505 420.319 179.259 417.443 179.305C408.78 179.444 399.971 179.932 391.424 180.768ZM396.157 205.951C408.545 205.269 420.839 203.777 433.297 203.777C432.416 203.244 430.498 203.107 429.402 202.816C428.151 202.484 426.972 201.779 425.75 201.489C423.299 200.908 420.804 201.715 418.287 202.064C412.213 202.906 405.982 202.935 399.899 203.761C393.61 204.615 387.24 205.402 380.835 205.836C377.785 206.043 374.513 206.462 371.499 205.974C371.255 205.868 371.009 205.762 370.765 205.657C370.502 204.977 369.77 204.796 368.571 205.112C367.048 204.937 365.109 205.163 363.576 205.187C363.513 205.558 369.178 206.721 370.258 207.009C372.861 207.703 374.625 208.211 377.405 207.914C383.663 207.244 389.819 206.445 396.157 205.951ZM352.58 184.016C353.064 185.159 355.097 184.639 356.847 184.765C359.196 184.934 361.533 185.424 363.809 185.794C367.941 186.467 372.074 187.13 376.188 187.841C376.026 186.834 376.393 184.544 375.515 183.651C374.593 182.715 370.225 182.305 368.191 182.019C363.063 181.301 357.586 181.709 352.377 181.861C352.469 182.578 352.537 183.296 352.58 184.016ZM401.835 191.167C406.7 190.917 411.571 190.723 416.45 190.619C422.028 190.501 417.973 189.961 417.856 187.901C410.524 188.609 403.128 188.749 395.819 189.354C389.764 189.856 382.55 191.167 376.374 190.463C373.461 190.131 370.487 190.003 367.388 189.815C364.464 189.638 361.705 188.813 358.818 188.608C355.575 188.378 352.263 189.482 349.038 189.774C347.672 189.897 347.354 190.459 346.708 189.462C346.039 188.428 347.956 187.584 348.711 186.966C349.593 186.244 349.227 187.416 349.716 186.289C349.853 185.973 349.482 185.179 349.413 184.839C349.24 183.978 348.794 183.045 348.725 182.186C348.66 181.397 348.649 180.193 350.063 179.733C350.926 179.452 351.537 179.862 352.289 179.782C358.161 179.164 365.067 179.113 371.021 179.71C377.476 180.357 383.032 178.645 389.394 177.95C396.858 177.136 404.4 177.014 411.928 176.669C418.365 176.375 430.126 174.85 432.578 179.829C433.272 181.24 434.284 185.124 432.416 186.324C429.964 187.901 424.288 187.397 421.118 187.807C421.592 188.624 423.004 189.18 422.515 190.152C426.958 190.279 427.743 192.821 428.439 195.193C429.159 197.648 427.755 198.623 431.628 199.902C437.026 201.683 442.745 203.482 442.639 207.725C442.587 209.858 442.192 213.075 438.576 214.181C435.038 215.264 429.277 215.081 425.378 215.474C417.828 216.236 410.251 217.129 402.655 217.586C394.566 218.073 386.343 218.473 378.241 218.69C373.826 218.809 370.013 219.213 365.75 218.313C361.558 217.429 357.458 216.783 353.133 216.126C348.863 215.478 335.793 214.606 339.602 210.184C340.211 209.476 342.294 208.914 342.63 208.245C343.173 207.165 341.34 206.323 341.417 205.348C341.556 203.563 344.881 203.34 347.176 203.34C343.241 201.849 348.51 200.085 348.479 198.82C348.423 196.591 343.846 195.144 343.587 193.276C342.957 188.728 366.775 193.463 370.441 194.447C367.619 196.981 354.529 194.788 350.63 194.404C351.162 195.25 351.67 196.011 351.824 196.877C351.949 197.583 351.504 198.39 351.911 199.1C352.555 200.224 352.532 200.009 354.811 200.315C356.496 200.541 358.162 200.803 359.842 201.043C362.422 201.412 366.481 202.401 369.037 202.347C371.28 202.3 370.837 202.721 371.248 201.213C371.469 200.402 371.092 199.54 370.866 198.746C370.395 197.082 369.706 195.507 372.106 194.313C374.394 193.174 379.218 192.632 382.025 192.23C388.254 191.339 395.444 191.121 401.835 191.167Z" fill="#107F07" fill-opacity="0.6"/>
<path fill-rule="evenodd" clip-rule="evenodd" d="M431.478 162.761C424.712 162.074 417.839 161.905 410.994 162.113C411.364 163.139 411.735 164.165 412.107 165.19C418.52 164.19 425.025 163.604 431.478 162.761ZM376.466 170.719C373.753 170.598 375.64 171.333 376.31 172.409C377.133 173.73 376.957 175.401 377.146 176.791C385.084 174.958 394.32 173.885 402.76 173.268C406.763 172.976 410.824 172.892 414.849 172.767C416.039 172.73 420.335 173.031 421.206 172.547C421.852 172.186 421.399 170.198 420.777 169.758C417.399 167.374 404.341 169.433 399.616 169.647C391.87 169.997 384.266 170.835 376.466 170.719ZM387.74 164.328C394.769 164.737 401.556 164.698 408.586 165.335C408.053 162.63 408.69 161.939 403.621 161.795C399.104 161.667 394.602 161.564 390.106 161.565C379.996 161.569 369.909 161.452 359.788 161.452V164.202C369.149 163.621 378.361 164.67 387.74 164.328ZM353.94 174.44C358.376 174.429 362.569 175.443 367.005 175.705C369.661 175.862 368.826 176.062 370.668 176.87C373.537 178.127 374.364 177.457 374.004 175.748C372.785 169.967 360.699 171.263 353.734 170.942C354.192 172.321 353.14 173.49 351.59 174.44H353.94ZM401.889 167.018C395.508 167.08 389.12 167.3 382.784 167.22C379.948 167.184 376.274 166.844 373.494 167.136C371.458 167.351 369.755 167.979 367.522 168.212C370.802 169.282 372.465 168.559 375.914 168.316C379.36 168.073 382.857 168.078 386.317 167.951C391.998 167.742 398.055 166.918 403.653 167.143C403.755 166.665 403.168 166.623 401.889 167.018ZM351.281 179.539C348.353 179.535 352.382 177.519 352.91 177.319C349.669 177.319 348.884 176.141 349.823 174.25C350.708 172.468 351.363 173.014 349.137 171.53C347.461 170.413 347.207 169.59 349.183 168.341C351.193 167.071 355.264 167.43 357.045 166.381C360.078 164.596 356.165 161.041 360.366 159.673C363.207 158.749 367.785 158.864 370.921 158.668C373.952 158.48 377.089 158.443 380.14 158.418C386.791 158.363 393.7 159.039 400.321 159.411C402.736 159.546 405.449 160.137 407.828 160.138C410.253 160.139 412.794 159.812 415.298 159.85C418.21 159.894 421.014 159.764 424.017 160.053C426.317 160.275 431.688 160.392 433.446 161.428C439.305 164.879 425.412 166.464 423.021 166.852C425.454 168.466 425.353 170.6 424.986 172.632C426.144 172.632 428.141 172.326 428.74 173.113C429.485 174.09 426.729 174.344 426.077 174.458C422.329 175.113 417.942 174.934 414.079 175.172C406.356 175.648 398.726 175.922 391.084 176.808C387.359 177.24 383.656 177.775 379.935 178.195C379.292 178.268 378.646 178.326 377.997 178.37C377.001 178.318 376.679 178.697 377.03 179.507C375.997 179.813 372.145 179.051 370.954 178.935C364.136 178.265 358.036 178.543 351.281 179.539Z" fill="#107F07" fill-opacity="0.6"/>
<path fill-rule="evenodd" clip-rule="evenodd" d="M488.965 219.638C484.567 221.734 480.479 223.712 475.717 225.533C479.083 225.469 490.28 222.218 488.965 219.638ZM487.248 216.222C484.848 214.973 482.463 215.1 479.492 214.722C476.756 214.373 474.098 213.773 471.368 213.373C469.225 213.06 467.104 212.636 464.969 212.339C461.955 211.921 461.657 212.382 458.884 213.338C449.052 216.732 438.049 219.067 427.692 221.821C430.733 223.442 437.573 223.512 441.373 224.029C444.149 224.406 446.789 224.922 449.446 225.519C451.921 226.076 455.908 227.355 458.518 227.398C460.721 227.434 462.512 226.121 464.408 225.414C466.903 224.483 469.387 223.569 471.902 222.662C477.223 220.741 482.198 218.389 487.248 216.222ZM442.812 229.969C441.676 229.307 438.26 229.336 436.837 229.134C434.033 228.737 431.271 228.325 428.43 228.027C423.82 227.544 416.537 227.328 416.036 223.706C415.619 220.695 421.625 219.981 425.138 218.961C430.42 217.427 435.809 216.011 441.226 214.658C446.304 213.391 451.457 212.318 456.627 211.222C457.636 211.008 458.454 211.038 459.278 210.549C459.927 210.163 459.727 209.414 460.439 209.011C462.068 208.088 464.183 208.574 466.142 208.811C470.59 209.348 475.208 210.053 479.449 211.05C483.856 212.086 487.797 212.302 488.856 215.328C491.109 214.688 492.804 214.595 492.534 216.476C492.456 217.029 491.793 217.63 491.634 218.2C491.4 219.041 491.809 219.927 491.578 220.769C490.734 223.833 483.913 226.103 479.686 227.306C474.473 228.79 467.748 230.982 461.928 231.271C455.726 231.58 448.968 230.105 442.812 229.969Z" fill="#107F07" fill-opacity="0.6"/>
<path fill-rule="evenodd" clip-rule="evenodd" d="M363.875 179.135C362.026 179.142 360.177 179.149 358.328 179.156C360.173 178.946 362.023 178.943 363.875 179.135Z" fill="#107F07" fill-opacity="0.6"/>
<path fill-rule="evenodd" clip-rule="evenodd" d="M255.711 60.6572C255.156 61.2169 254.602 61.7766 254.047 62.3369C254.236 61.6153 254.659 60.9969 255.711 60.6572Z" fill="#107F07" fill-opacity="0.6"/>
<path fill-rule="evenodd" clip-rule="evenodd" d="M363.875 195.191C364.987 195.197 366.098 195.202 367.203 195.209C366.09 195.204 364.983 195.198 363.875 195.191Z" fill="#107F07" fill-opacity="0.6"/>
<path fill-rule="evenodd" clip-rule="evenodd" d="M367.203 179.151C366.093 179.145 364.984 179.139 363.875 179.132C364.989 178.948 366.098 178.955 367.203 179.151Z" fill="#107F07" fill-opacity="0.6"/>
<path fill-rule="evenodd" clip-rule="evenodd" d="M411.348 83.8369C411.317 83.1647 411.286 82.4925 411.254 81.8213C411.286 82.4938 411.317 83.165 411.348 83.8369Z" fill="#107F07" fill-opacity="0.6"/>
<path fill-rule="evenodd" clip-rule="evenodd" d="M222.742 185.29C222.719 184.73 222.696 184.17 222.673 183.61C222.696 184.171 222.719 184.73 222.742 185.29Z" fill="#107F07" fill-opacity="0.6"/>
<path fill-rule="evenodd" clip-rule="evenodd" d="M252.938 157.911C253.68 157.911 254.42 157.911 255.156 157.912C254.414 157.912 253.675 157.911 252.938 157.911Z" fill="#107F07" fill-opacity="0.6"/>
<path fill-rule="evenodd" clip-rule="evenodd" d="M352.227 37.2488C351.302 37.2894 350.377 37.3297 349.453 37.3704C350.378 37.3297 351.303 37.2894 352.227 37.2488Z" fill="#107F07" fill-opacity="0.6"/>
<path fill-rule="evenodd" clip-rule="evenodd" d="M328.694 201.415C328.666 200.967 328.638 200.517 328.612 200.071C328.639 200.52 328.666 200.968 328.694 201.415Z" fill="#107F07" fill-opacity="0.6"/>
<path fill-rule="evenodd" clip-rule="evenodd" d="M329.792 184.282C329.772 183.834 329.752 183.386 329.732 182.938C329.752 183.387 329.772 183.834 329.792 184.282Z" fill="#107F07" fill-opacity="0.6"/>
<path fill-rule="evenodd" clip-rule="evenodd" d="M310.863 192.009C310.889 192.457 310.916 192.906 310.943 193.353C310.916 192.903 310.889 192.457 310.863 192.009Z" fill="#107F07" fill-opacity="0.6"/>
<path fill-rule="evenodd" clip-rule="evenodd" d="M257.375 157.582C257.932 157.578 258.488 157.573 259.039 157.568C258.481 157.573 257.928 157.578 257.375 157.582Z" fill="#107F07" fill-opacity="0.6"/>
<path fill-rule="evenodd" clip-rule="evenodd" d="M418.235 175.066C418.791 175.051 419.347 175.036 419.899 175.022C419.341 175.037 418.787 175.051 418.235 175.066Z" fill="#107F07" fill-opacity="0.6"/>
<path fill-rule="evenodd" clip-rule="evenodd" d="M311.964 202.759C311.996 203.207 312.028 203.656 312.06 204.103C312.028 203.653 311.996 203.206 311.964 202.759Z" fill="#107F07" fill-opacity="0.6"/>
<path fill-rule="evenodd" clip-rule="evenodd" d="M371.42 200.407C371.382 200.856 371.345 201.305 371.307 201.751C371.345 201.302 371.382 200.855 371.42 200.407Z" fill="#107F07" fill-opacity="0.6"/>
<path fill-rule="evenodd" clip-rule="evenodd" d="M307.488 0.237887C306.705 0.177418 305.92 0.117453 305.136 0.0569842C305.914 0.165828 306.765 -0.2378 307.488 0.237887Z" fill="#107F07" fill-opacity="0.6"/>
<path fill-rule="evenodd" clip-rule="evenodd" d="M273.771 172.524C273.75 172.973 273.728 173.421 273.706 173.868C273.727 173.419 273.749 172.972 273.771 172.524Z" fill="#107F07" fill-opacity="0.6"/>
<path fill-rule="evenodd" clip-rule="evenodd" d="M226.093 213.509C226.055 213.061 226.016 212.613 225.978 212.165C226.017 212.613 226.055 213.061 226.093 213.509Z" fill="#107F07" fill-opacity="0.6"/>
<path fill-rule="evenodd" clip-rule="evenodd" d="M405.477 175.726C406.034 175.719 406.59 175.712 407.141 175.706C406.583 175.713 406.03 175.72 405.477 175.726Z" fill="#107F07" fill-opacity="0.6"/>
<path fill-rule="evenodd" clip-rule="evenodd" d="M217.154 94.251C217.159 94.6998 217.163 95.1483 217.166 95.5947C217.161 95.1456 217.158 94.6984 217.154 94.251Z" fill="#107F07" fill-opacity="0.6"/>
<path fill-rule="evenodd" clip-rule="evenodd" d="M205.516 195.032C205.514 195.481 205.511 195.93 205.508 196.376C205.51 195.927 205.513 195.479 205.516 195.032Z" fill="#107F07" fill-opacity="0.6"/>
<path fill-rule="evenodd" clip-rule="evenodd" d="M343.764 192.345C343.744 192.793 343.725 193.242 343.703 193.688C343.4 193.228 343.434 192.781 343.764 192.345Z" fill="#107F07" fill-opacity="0.6"/>
<path fill-rule="evenodd" clip-rule="evenodd" d="M329.216 190.329C329.21 189.881 329.204 189.432 329.198 188.985C329.204 189.435 329.21 189.882 329.216 190.329Z" fill="#107F07" fill-opacity="0.6"/>
<path fill-rule="evenodd" clip-rule="evenodd" d="M442.641 230.124C443.198 230.133 443.755 230.142 444.305 230.151C443.746 230.142 443.193 230.133 442.641 230.124Z" fill="#107F07" fill-opacity="0.6"/>
<path fill-rule="evenodd" clip-rule="evenodd" d="M422.672 187.48C423.043 187.476 423.415 187.472 423.781 187.468C423.408 187.472 423.04 187.476 422.672 187.48Z" fill="#107F07" fill-opacity="0.6"/>
<path fill-rule="evenodd" clip-rule="evenodd" d="M408.805 188.482C409.177 188.482 409.548 188.481 409.914 188.481C409.542 188.482 409.173 188.482 408.805 188.482Z" fill="#107F07" fill-opacity="0.6"/>
<path fill-rule="evenodd" clip-rule="evenodd" d="M192.787 190.665C192.765 190.329 192.742 189.992 192.721 189.657C192.744 189.994 192.766 190.33 192.787 190.665Z" fill="#107F07" fill-opacity="0.6"/>
<path fill-rule="evenodd" clip-rule="evenodd" d="M419.899 190.41C419.417 190.705 418.797 190.531 418.235 190.55C418.789 190.503 419.345 190.457 419.899 190.41Z" fill="#107F07" fill-opacity="0.6"/>
<path fill-rule="evenodd" clip-rule="evenodd" d="M353.891 179.662C353.159 179.872 352.418 179.901 351.672 179.677C352.412 179.672 353.151 179.667 353.891 179.662Z" fill="#107F07" fill-opacity="0.6"/>
<path fill-rule="evenodd" clip-rule="evenodd" d="M402.149 191.175C401.409 191.171 400.669 191.167 399.93 191.163C400.67 191.167 401.41 191.171 402.149 191.175Z" fill="#107F07" fill-opacity="0.6"/>
<path fill-rule="evenodd" clip-rule="evenodd" d="M201.651 177.899C201.637 178.236 201.623 178.573 201.608 178.907C201.621 178.57 201.636 178.234 201.651 177.899Z" fill="#107F07" fill-opacity="0.6"/>
<path fill-rule="evenodd" clip-rule="evenodd" d="M329.165 196.04C329.193 195.703 329.222 195.367 329.25 195.032C329.222 195.37 329.193 195.705 329.165 196.04Z" fill="#107F07" fill-opacity="0.6"/>
<path fill-rule="evenodd" clip-rule="evenodd" d="M405.477 176.667C404.737 176.705 403.997 176.743 403.258 176.78C403.998 176.743 404.737 176.705 405.477 176.667Z" fill="#107F07" fill-opacity="0.6"/>
<path fill-rule="evenodd" clip-rule="evenodd" d="M222.73 175.548C222.715 175.211 222.699 174.875 222.684 174.54C222.699 174.877 222.715 175.213 222.73 175.548Z" fill="#107F07" fill-opacity="0.6"/>
<path fill-rule="evenodd" clip-rule="evenodd" d="M315.406 149.681C315.362 150.017 315.318 150.354 315.275 150.688C315.318 150.352 315.362 150.017 315.406 149.681Z" fill="#107F07" fill-opacity="0.6"/>
<path fill-rule="evenodd" clip-rule="evenodd" d="M416.571 159.846C415.829 160.079 415.091 160.049 414.352 159.844C415.091 159.844 415.831 159.845 416.571 159.846Z" fill="#107F07" fill-opacity="0.6"/>
<path fill-rule="evenodd" clip-rule="evenodd" d="M328.702 206.454C328.669 206.117 328.636 205.782 328.604 205.446C328.636 205.783 328.669 206.118 328.702 206.454Z" fill="#107F07" fill-opacity="0.6"/>
<path fill-rule="evenodd" clip-rule="evenodd" d="M328.688 209.142C328.664 208.805 328.64 208.469 328.618 208.134C328.642 208.47 328.665 208.806 328.688 209.142Z" fill="#107F07" fill-opacity="0.6"/>
<path fill-rule="evenodd" clip-rule="evenodd" d="M223.805 164.798C223.813 164.462 223.82 164.125 223.828 163.79C223.82 164.127 223.813 164.462 223.805 164.798Z" fill="#107F07" fill-opacity="0.6"/>
<path fill-rule="evenodd" clip-rule="evenodd" d="M381.625 218.389C381.996 218.383 382.368 218.376 382.735 218.371C382.361 218.378 381.994 218.383 381.625 218.389Z" fill="#107F07" fill-opacity="0.6"/>
<path fill-rule="evenodd" clip-rule="evenodd" d="M202.783 221.235C202.754 220.899 202.724 220.563 202.694 220.228C202.724 220.564 202.754 220.9 202.783 221.235Z" fill="#107F07" fill-opacity="0.6"/>
<path fill-rule="evenodd" clip-rule="evenodd" d="M322.828 224.084C323.2 224.089 323.572 224.093 323.938 224.098C323.565 224.093 323.197 224.089 322.828 224.084Z" fill="#107F07" fill-opacity="0.6"/>
<path fill-rule="evenodd" clip-rule="evenodd" d="M323.059 195.368C323.091 194.36 323.121 193.352 323.152 192.345C323.121 193.353 323.09 194.36 323.059 195.368Z" fill="#107F07" fill-opacity="0.6"/>
<path fill-rule="evenodd" clip-rule="evenodd" d="M279.811 158.415C279.83 159.199 279.849 159.984 279.869 160.767C279.85 159.982 279.831 159.198 279.811 158.415Z" fill="#107F07" fill-opacity="0.6"/>
<path fill-rule="evenodd" clip-rule="evenodd" d="M184.156 207.62C183.231 207.626 182.303 207.633 181.383 207.64C182.312 207.634 183.234 207.627 184.156 207.62Z" fill="#107F07" fill-opacity="0.6"/>
<path fill-rule="evenodd" clip-rule="evenodd" d="M260.149 140.792C259.222 140.783 258.295 140.773 257.375 140.765C258.304 140.774 259.227 140.783 260.149 140.792Z" fill="#107F07" fill-opacity="0.6"/>
<path fill-rule="evenodd" clip-rule="evenodd" d="M236.297 153.881C237.222 153.881 238.147 153.88 239.071 153.879C238.146 153.879 237.222 153.88 236.297 153.881Z" fill="#107F07" fill-opacity="0.6"/>
<path fill-rule="evenodd" clip-rule="evenodd" d="M248.5 140.431C247.758 140.439 247.016 140.447 246.281 140.454C247.026 140.446 247.763 140.439 248.5 140.431Z" fill="#107F07" fill-opacity="0.6"/>
<path fill-rule="evenodd" clip-rule="evenodd" d="M188.594 207.634C187.852 207.631 187.111 207.629 186.375 207.626C187.12 207.629 187.857 207.631 188.594 207.634Z" fill="#107F07" fill-opacity="0.6"/>
<path fill-rule="evenodd" clip-rule="evenodd" d="M288.438 36.0244C289.362 35.9854 290.287 35.9464 291.211 35.9075C290.287 35.9464 289.362 35.9854 288.438 36.0244Z" fill="#107F07" fill-opacity="0.6"/>
<path fill-rule="evenodd" clip-rule="evenodd" d="M300.867 75.4385C300.901 74.8785 300.935 74.3185 300.97 73.7588C300.935 74.3191 300.901 74.8788 300.867 75.4385Z" fill="#107F07" fill-opacity="0.6"/>
<path fill-rule="evenodd" clip-rule="evenodd" d="M278.453 80.6453C277.897 80.6453 277.34 80.6456 276.789 80.6459C277.348 80.6459 277.9 80.6456 278.453 80.6453Z" fill="#107F07" fill-opacity="0.6"/>
<path fill-rule="evenodd" clip-rule="evenodd" d="M231.305 139.429C230.749 139.433 230.192 139.437 229.641 139.44C230.199 139.437 230.752 139.433 231.305 139.429Z" fill="#107F07" fill-opacity="0.6"/>
<path fill-rule="evenodd" clip-rule="evenodd" d="M218.547 153.154C219.287 153.19 220.026 153.227 220.766 153.263C220.026 153.227 219.287 153.19 218.547 153.154Z" fill="#107F07" fill-opacity="0.6"/>
<path fill-rule="evenodd" clip-rule="evenodd" d="M217.143 170.173C217.154 169.724 217.167 169.277 217.178 168.829C217.166 169.278 217.154 169.725 217.143 170.173Z" fill="#107F07" fill-opacity="0.6"/>
<path fill-rule="evenodd" clip-rule="evenodd" d="M280.672 152.266C281.412 152.222 282.151 152.179 282.891 152.135C282.151 152.179 281.412 152.222 280.672 152.266Z" fill="#107F07" fill-opacity="0.6"/>
<path fill-rule="evenodd" clip-rule="evenodd" d="M331.36 144.306C331.404 143.858 331.448 143.409 331.492 142.962C331.448 143.411 331.404 143.858 331.36 144.306Z" fill="#107F07" fill-opacity="0.6"/>
<path fill-rule="evenodd" clip-rule="evenodd" d="M265.696 141.119C265.139 141.116 264.582 141.113 264.031 141.11C264.59 141.113 265.143 141.116 265.696 141.119Z" fill="#107F07" fill-opacity="0.6"/>
<path fill-rule="evenodd" clip-rule="evenodd" d="M217.201 195.368C217.173 195.032 217.147 194.695 217.119 194.36C217.147 194.697 217.173 195.033 217.201 195.368Z" fill="#107F07" fill-opacity="0.6"/>
<path fill-rule="evenodd" clip-rule="evenodd" d="M279.392 178.235C280.604 180.056 279.924 178.767 279.955 179.187C278.922 179.271 278.734 178.954 279.392 178.235Z" fill="#107F07" fill-opacity="0.6"/>
<path fill-rule="evenodd" clip-rule="evenodd" d="M228.531 139.453C227.976 139.441 227.418 139.429 226.867 139.416C227.427 139.428 227.978 139.44 228.531 139.453Z" fill="#107F07" fill-opacity="0.6"/>
<path fill-rule="evenodd" clip-rule="evenodd" d="M341.912 105.337C341.947 104.889 341.983 104.441 342.018 103.993C341.982 104.442 341.947 104.889 341.912 105.337Z" fill="#107F07" fill-opacity="0.6"/>
<path fill-rule="evenodd" clip-rule="evenodd" d="M217.163 192.009C217.161 191.561 217.159 191.113 217.158 190.665C217.159 191.114 217.161 191.562 217.163 192.009Z" fill="#107F07" fill-opacity="0.6"/>
<path fill-rule="evenodd" clip-rule="evenodd" d="M217.103 181.931C217.141 181.594 217.18 181.258 217.218 180.923C217.18 181.259 217.141 181.595 217.103 181.931Z" fill="#107F07" fill-opacity="0.6"/>
<path fill-rule="evenodd" clip-rule="evenodd" d="M332.458 137.923C332.509 137.587 332.562 137.25 332.613 136.915C332.562 137.252 332.509 137.588 332.458 137.923Z" fill="#107F07" fill-opacity="0.6"/>
<path fill-rule="evenodd" clip-rule="evenodd" d="M209.875 182.938C209.924 183.275 209.974 183.612 210.024 183.946C209.974 183.61 209.924 183.274 209.875 182.938Z" fill="#107F07" fill-opacity="0.6"/>
<path fill-rule="evenodd" clip-rule="evenodd" d="M208.758 180.251C208.813 180.587 208.867 180.924 208.922 181.259C208.867 180.922 208.813 180.586 208.758 180.251Z" fill="#107F07" fill-opacity="0.6"/>
<path fill-rule="evenodd" clip-rule="evenodd" d="M319.715 134.228C319.757 133.892 319.798 133.555 319.84 133.22C319.798 133.556 319.757 133.892 319.715 134.228Z" fill="#107F07" fill-opacity="0.6"/>
<path fill-rule="evenodd" clip-rule="evenodd" d="M36.6096 179.8C37.3485 179.765 38.0884 179.729 38.8284 179.694C38.0868 179.729 37.3479 179.765 36.6096 179.8Z" fill="#107F07" fill-opacity="0.6"/>
<path fill-rule="evenodd" clip-rule="evenodd" d="M314.817 187.978C314.796 188.314 314.774 188.651 314.753 188.985C314.775 188.648 314.796 188.313 314.817 187.978Z" fill="#107F07" fill-opacity="0.6"/>
<path fill-rule="evenodd" clip-rule="evenodd" d="M323.599 188.985C323.64 188.649 323.681 188.313 323.723 187.978C323.681 188.314 323.64 188.65 323.599 188.985Z" fill="#107F07" fill-opacity="0.6"/>
<path fill-rule="evenodd" clip-rule="evenodd" d="M320.245 132.884C320.303 132.548 320.362 132.212 320.42 131.876C320.362 132.213 320.303 132.548 320.245 132.884Z" fill="#107F07" fill-opacity="0.6"/>
<path fill-rule="evenodd" clip-rule="evenodd" d="M41.0471 179.478C41.7871 179.434 42.527 179.389 43.2659 179.345C42.527 179.389 41.786 179.434 41.0471 179.478Z" fill="#107F07" fill-opacity="0.6"/>
<path fill-rule="evenodd" clip-rule="evenodd" d="M276.235 140.775C275.864 140.777 275.491 140.78 275.125 140.782C275.499 140.78 275.866 140.777 276.235 140.775Z" fill="#107F07" fill-opacity="0.6"/>
<path fill-rule="evenodd" clip-rule="evenodd" d="M217.163 178.907C217.161 178.571 217.159 178.234 217.158 177.899C217.159 178.236 217.161 178.571 217.163 178.907Z" fill="#107F07" fill-opacity="0.6"/>
<path fill-rule="evenodd" clip-rule="evenodd" d="M324.813 178.235C324.616 177.888 324.52 177.546 324.9 177.228C324.871 177.564 324.842 177.9 324.813 178.235Z" fill="#107F07" fill-opacity="0.6"/>
<path fill-rule="evenodd" clip-rule="evenodd" d="M315.364 171.853C315.348 172.189 315.332 172.525 315.317 172.86C315.333 172.523 315.348 172.188 315.364 171.853Z" fill="#107F07" fill-opacity="0.6"/>
<path fill-rule="evenodd" clip-rule="evenodd" d="M315.843 205.11C315.878 205.446 315.912 205.783 315.947 206.118C315.912 205.782 315.878 205.446 315.843 205.11Z" fill="#107F07" fill-opacity="0.6"/>
<path fill-rule="evenodd" clip-rule="evenodd" d="M356.664 82.9255C357.22 82.9736 357.774 83.0213 358.328 83.069C357.773 83.0209 357.219 82.9729 356.664 82.9255Z" fill="#107F07" fill-opacity="0.6"/>
<path fill-rule="evenodd" clip-rule="evenodd" d="M354.446 82.9568C355.19 82.984 356.008 82.7673 356.664 83.0848L354.446 82.9568Z" fill="#107F07" fill-opacity="0.6"/>
<path fill-rule="evenodd" clip-rule="evenodd" d="M276.235 82.6028L278.453 82.7197C277.713 82.6807 276.975 82.6418 276.235 82.6028Z" fill="#107F07" fill-opacity="0.6"/>
<path fill-rule="evenodd" clip-rule="evenodd" d="M239.625 153.792C240.366 153.794 241.105 153.796 241.844 153.798C241.101 154.015 240.362 154.036 239.625 153.792Z" fill="#107F07" fill-opacity="0.6"/>
<path fill-rule="evenodd" clip-rule="evenodd" d="M219.442 210.149C219.401 209.812 219.359 209.476 219.316 209.142C219.359 209.479 219.401 209.814 219.442 210.149Z" fill="#107F07" fill-opacity="0.6"/>
<path fill-rule="evenodd" clip-rule="evenodd" d="M300.351 83.165C300.36 82.8284 300.367 82.4925 300.376 82.1572C300.367 82.4942 300.36 82.8298 300.351 83.165Z" fill="#107F07" fill-opacity="0.6"/>
<path fill-rule="evenodd" clip-rule="evenodd" d="M253.492 153.934C254.232 153.898 254.972 153.862 255.711 153.826C254.971 153.862 254.232 153.898 253.492 153.934Z" fill="#107F07" fill-opacity="0.6"/>
<path fill-rule="evenodd" clip-rule="evenodd" d="M316.431 213.173C316.443 213.509 316.456 213.845 316.468 214.181C316.456 213.843 316.443 213.508 316.431 213.173Z" fill="#107F07" fill-opacity="0.6"/>
<path fill-rule="evenodd" clip-rule="evenodd" d="M328.022 160.431C328.073 160.094 328.124 159.758 328.174 159.423C328.123 159.759 328.072 160.095 328.022 160.431Z" fill="#107F07" fill-opacity="0.6"/>
<path fill-rule="evenodd" clip-rule="evenodd" d="M353.55 70.7354C353.593 70.3987 353.635 70.0628 353.677 69.7275C353.635 70.0641 353.592 70.3997 353.55 70.7354Z" fill="#107F07" fill-opacity="0.6"/>
<path fill-rule="evenodd" clip-rule="evenodd" d="M300.902 41.8447C300.913 42.181 300.923 42.5176 300.934 42.8525C300.924 42.5156 300.913 42.18 300.902 41.8447Z" fill="#107F07" fill-opacity="0.6"/>
<path fill-rule="evenodd" clip-rule="evenodd" d="M281.227 35.574C281.966 35.6113 282.707 35.6489 283.446 35.6858C282.706 35.6486 281.966 35.6113 281.227 35.574Z" fill="#107F07" fill-opacity="0.6"/>
<path fill-rule="evenodd" clip-rule="evenodd" d="M170.289 226.508C171.029 226.464 171.768 226.42 172.508 226.376C171.768 226.42 171.029 226.464 170.289 226.508Z" fill="#107F07" fill-opacity="0.6"/>
<path fill-rule="evenodd" clip-rule="evenodd" d="M282.336 32.2709C281.965 32.2706 281.593 32.2703 281.227 32.2703C281.6 32.2709 281.968 32.2709 282.336 32.2709Z" fill="#107F07" fill-opacity="0.6"/>
<path fill-rule="evenodd" clip-rule="evenodd" d="M145.883 230.883C146.624 230.652 147.362 230.718 148.102 230.885C147.362 230.884 146.622 230.884 145.883 230.883Z" fill="#107F07" fill-opacity="0.6"/>
<path fill-rule="evenodd" clip-rule="evenodd" d="M433.766 205.599C433.024 205.609 432.283 205.62 431.547 205.63C432.29 205.62 433.028 205.609 433.766 205.599Z" fill="#107F07" fill-opacity="0.6"/>
<path fill-rule="evenodd" clip-rule="evenodd" d="M422.672 198.936C423.597 198.893 424.521 198.851 425.446 198.808C424.583 199.136 423.597 198.893 422.672 198.936Z" fill="#107F07" fill-opacity="0.6"/>
<path fill-rule="evenodd" clip-rule="evenodd" d="M412.133 199.628C413.058 199.588 413.982 199.547 414.906 199.507C413.982 199.547 413.058 199.588 412.133 199.628Z" fill="#107F07" fill-opacity="0.6"/>
<path fill-rule="evenodd" clip-rule="evenodd" d="M403.258 205.338C403.997 205.298 404.737 205.259 405.477 205.219C404.737 205.258 403.998 205.298 403.258 205.338Z" fill="#107F07" fill-opacity="0.6"/>
<path fill-rule="evenodd" clip-rule="evenodd" d="M407.141 193.854C406.585 193.856 406.028 193.858 405.477 193.86C406.035 193.857 406.588 193.855 407.141 193.854Z" fill="#107F07" fill-opacity="0.6"/>
<path fill-rule="evenodd" clip-rule="evenodd" d="M421.008 212.361C421.747 212.323 422.487 212.285 423.227 212.247C422.537 212.541 421.757 212.372 421.008 212.361Z" fill="#107F07" fill-opacity="0.6"/>
<path fill-rule="evenodd" clip-rule="evenodd" d="M397.156 180.084C396.6 180.084 396.043 180.083 395.492 180.083C396.052 180.083 396.604 180.084 397.156 180.084Z" fill="#107F07" fill-opacity="0.6"/>
<path fill-rule="evenodd" clip-rule="evenodd" d="M391.61 180.753C391.239 180.755 390.867 180.756 390.5 180.756C390.874 180.755 391.241 180.754 391.61 180.753Z" fill="#107F07" fill-opacity="0.6"/>
<path fill-rule="evenodd" clip-rule="evenodd" d="M378.297 181.689C378.111 181.965 377.131 181.93 377.19 181.646C377.559 181.661 377.928 181.675 378.297 181.689Z" fill="#107F07" fill-opacity="0.6"/>
<path fill-rule="evenodd" clip-rule="evenodd" d="M352.47 182.938C352.493 183.274 352.516 183.611 352.538 183.946C352.515 183.61 352.493 183.274 352.47 182.938Z" fill="#107F07" fill-opacity="0.6"/>
<path fill-rule="evenodd" clip-rule="evenodd" d="M428.219 184.719C428.774 184.714 429.328 184.708 429.883 184.703C429.335 184.94 428.78 184.907 428.219 184.719Z" fill="#107F07" fill-opacity="0.6"/>
<path fill-rule="evenodd" clip-rule="evenodd" d="M407.141 179.743C406.77 179.746 406.398 179.749 406.031 179.752C406.405 179.749 406.773 179.746 407.141 179.743Z" fill="#107F07" fill-opacity="0.6"/>
<path fill-rule="evenodd" clip-rule="evenodd" d="M392.719 200.974C393.459 200.932 394.199 200.891 394.938 200.849C394.198 200.891 393.459 200.932 392.719 200.974Z" fill="#107F07" fill-opacity="0.6"/>
<path fill-rule="evenodd" clip-rule="evenodd" d="M400.485 213.747C401.226 213.583 401.966 213.527 402.703 213.751C401.963 213.75 401.224 213.749 400.485 213.747Z" fill="#107F07" fill-opacity="0.6"/>
<path fill-rule="evenodd" clip-rule="evenodd" d="M399.309 167.441L398.266 167.223C399.56 167.213 400.855 167.203 402.149 167.194C402.151 167.194 399.458 167.448 399.309 167.441Z" fill="#107F07" fill-opacity="0.6"/>
<path fill-rule="evenodd" clip-rule="evenodd" d="M389.391 161.607C388.464 161.607 387.538 161.606 386.617 161.606C387.545 161.607 388.468 161.607 389.391 161.607Z" fill="#107F07" fill-opacity="0.6"/>
<path fill-rule="evenodd" clip-rule="evenodd" d="M354.446 174.448C355.369 174.225 356.293 174.268 357.219 174.442C356.294 174.444 355.37 174.446 354.446 174.448Z" fill="#107F07" fill-opacity="0.6"/>
<path fill-rule="evenodd" clip-rule="evenodd" d="M410.469 168.991C409.913 168.995 409.356 168.999 408.805 169.003C409.364 168.999 409.916 168.995 410.469 168.991Z" fill="#107F07" fill-opacity="0.6"/>
<path fill-rule="evenodd" clip-rule="evenodd" d="M398.821 164.575C399.746 164.612 400.67 164.648 401.594 164.685C400.67 164.648 399.745 164.612 398.821 164.575Z" fill="#107F07" fill-opacity="0.6"/>
<path fill-rule="evenodd" clip-rule="evenodd" d="M388.281 164.239C389.021 164.276 389.761 164.313 390.5 164.349C389.76 164.312 389.021 164.276 388.281 164.239Z" fill="#107F07" fill-opacity="0.6"/>
<path fill-rule="evenodd" clip-rule="evenodd" d="M377.742 170.684C377.371 170.679 377 170.675 376.633 170.67C377.006 170.675 377.374 170.679 377.742 170.684Z" fill="#107F07" fill-opacity="0.6"/>
<path fill-rule="evenodd" clip-rule="evenodd" d="M389.391 167.338C389.019 167.325 388.648 167.31 388.281 167.297C388.654 167.31 389.023 167.325 389.391 167.338Z" fill="#107F07" fill-opacity="0.6"/>
<path fill-rule="evenodd" clip-rule="evenodd" d="M382.18 167.327C381.808 167.32 381.437 167.314 381.071 167.308C381.443 167.314 381.812 167.321 382.18 167.327Z" fill="#107F07" fill-opacity="0.6"/>
<path fill-rule="evenodd" clip-rule="evenodd" d="M402.149 167.014C402.149 167.101 403.819 166.66 403.813 167.07L402.149 167.014Z" fill="#107F07" fill-opacity="0.6"/>
<path fill-rule="evenodd" clip-rule="evenodd" d="M396.047 161.606C395.675 161.606 395.304 161.607 394.938 161.607C395.311 161.607 395.679 161.606 396.047 161.606Z" fill="#107F07" fill-opacity="0.6"/>
<path fill-rule="evenodd" clip-rule="evenodd" d="M199.133 145.675C199.734 144.191 199.57 143.029 201.71 143.978C202.883 144.499 204.819 147.14 204.672 148.034C204.491 149.138 203.66 149.578 201.945 149.227C199.974 148.822 199.192 146.786 199.133 145.675Z" fill="#107F07" fill-opacity="0.6"/>
<path fill-rule="evenodd" clip-rule="evenodd" d="M307.203 136.662C312.171 136.662 310.003 139.864 305.862 139.935C303.96 139.969 301.222 139.741 301.839 138.199C302.168 137.375 306.995 136.265 307.203 136.662Z" fill="#107F07" fill-opacity="0.6"/>
<path fill-rule="evenodd" clip-rule="evenodd" d="M253.922 142.962C257.508 144.013 252.462 148.627 249.204 147.485C245.032 146.023 252.447 143.62 253.922 142.962Z" fill="#107F07" fill-opacity="0.6"/>
<path fill-rule="evenodd" clip-rule="evenodd" d="M245.197 147.329C246.37 148.104 251.66 150.733 248.744 151.79C245.159 153.09 242.43 148.799 245.197 147.329Z" fill="#107F07" fill-opacity="0.6"/>
<path fill-rule="evenodd" clip-rule="evenodd" d="M185.087 145.314C183.921 143.947 185.526 140.372 189.088 141.025C192.673 141.683 187.06 144.951 185.087 145.314Z" fill="#107F07" fill-opacity="0.6"/>
<path fill-rule="evenodd" clip-rule="evenodd" d="M264.22 146.101C266.546 145.534 266.103 147.212 266.454 147.753C266.853 148.368 268.9 149.865 268.387 150.52C267.625 151.491 265.803 150.872 264.813 150.241C263.078 149.136 263.202 147.363 264.22 146.101Z" fill="#107F07" fill-opacity="0.6"/>
<path fill-rule="evenodd" clip-rule="evenodd" d="M228.776 147.656C226.837 147.656 222.21 144.271 224.929 143.703C228.304 142.998 231.125 147.905 228.776 147.656Z" fill="#107F07" fill-opacity="0.6"/>
<path fill-rule="evenodd" clip-rule="evenodd" d="M295.764 142.29C297.54 142.555 299.889 145.599 297.213 145.952C294.251 146.344 293.723 143.132 295.764 142.29Z" fill="#107F07" fill-opacity="0.6"/>
<path fill-rule="evenodd" clip-rule="evenodd" d="M285 148.001C283.607 146.377 283.265 142.901 286.664 145.691C287.401 146.295 288.161 146.051 287.783 147.048C287.452 147.918 286.132 148.001 285 148.001Z" fill="#107F07" fill-opacity="0.6"/>
<path fill-rule="evenodd" clip-rule="evenodd" d="M211.661 139.603C213.08 140.896 212.661 144.953 209.695 142.553C208.434 141.534 209.303 139.651 211.661 139.603Z" fill="#107F07" fill-opacity="0.6"/>
<path fill-rule="evenodd" clip-rule="evenodd" d="M282.995 17.6901C285.749 17.2596 286.409 21.191 284.803 21.6244C282.555 22.2309 282.836 18.3477 282.995 17.6901Z" fill="#107F07" fill-opacity="0.6"/>
<path fill-rule="evenodd" clip-rule="evenodd" d="M457.149 217.422C454.594 217.332 451.014 216.91 454.885 215.811C457.341 215.115 460.992 215.067 463.585 215.352C465.373 215.549 468.055 216.447 465.328 217.61C463.731 218.29 459.091 217.455 457.149 217.422Z" fill="#107F07" fill-opacity="0.6"/>
<path fill-rule="evenodd" clip-rule="evenodd" d="M454.285 220.227C453.546 220.177 452.808 220.126 452.071 220.077C452.663 219.425 454.384 219.289 454.285 220.227Z" fill="#107F07" fill-opacity="0.6"/>
<path fill-rule="evenodd" clip-rule="evenodd" d="M457.617 217.357C458.359 217.367 459.101 217.378 459.836 217.387C459.092 217.377 458.355 217.367 457.617 217.357Z" fill="#107F07" fill-opacity="0.6"/>
</svg>
